<svg width="140" height="140" viewBox="0 0 140 140" fill="none" xmlns="http://www.w3.org/2000/svg">
<circle cx="70.5" cy="68.5" r="61.5" fill="#1B1E23" stroke="url(#paint0_linear_2191_10563)" stroke-width="2"/>
<path fill-rule="evenodd" clip-rule="evenodd" d="M28.2535 114.559C31.0273 97.3427 36.9036 80.9234 45.407 66.0397C44.2745 66.0132 43.1388 65.9999 41.9999 65.9999C30.2913 65.9999 18.9114 67.4071 8.02005 70.0615C8.01168 69.7205 8.00605 69.3787 8.00317 69.0363C18.9037 66.398 30.2885 64.9999 41.9999 64.9999C43.3294 64.9999 44.6546 65.0179 45.9755 65.0537C50.7867 56.7841 56.4131 48.9979 62.772 41.8237C52.1324 33.9798 40.3669 27.5748 27.7626 22.8959C28.0354 22.6402 28.3104 22.387 28.5876 22.1362C41.1299 26.8429 52.8411 33.2491 63.4408 41.0744C73.4648 29.9224 85.2731 20.2778 98.5494 12.6318C98.9045 12.8105 99.2577 12.9924 99.609 13.1776C86.2244 20.805 74.3285 30.4722 64.2468 41.6737C76.948 51.1875 88.0257 62.7504 96.9894 75.872C97.6563 76.1478 98.3207 76.4285 98.9825 76.7139C109.908 65.8469 119.003 53.2902 125.923 39.581C126.113 39.9461 126.301 40.3133 126.485 40.6826C119.619 54.1167 110.672 66.4378 99.9681 77.1434C109.901 81.5166 119.246 86.9793 127.852 93.3802C127.716 93.6938 127.577 94.0062 127.436 94.3171C118.736 87.8254 109.273 82.3003 99.2051 77.901C99.0321 78.0714 98.8587 78.2415 98.6848 78.4111C105.518 88.8827 111.025 100.298 114.967 112.42C114.705 112.686 114.439 112.95 114.172 113.211C110.267 101.057 104.78 89.6129 97.953 79.1199C79.5741 96.7956 56.2759 109.807 29.6005 115.76C29.1457 115.366 28.6967 114.966 28.2535 114.559ZM98.0089 77.3848L98.2142 77.4725L98.125 77.5598L98.0089 77.3848ZM96.3318 76.6828C96.6896 77.209 97.044 77.7376 97.3949 78.2688C79.0867 95.9226 55.846 108.91 29.2248 114.819C32.0013 97.5061 37.9371 81.0029 46.5422 66.0707C64.123 66.6192 80.9041 70.3412 96.3318 76.6828ZM47.1131 65.089C64.0864 65.6813 80.3129 69.2112 95.2998 75.1859C86.5373 62.6463 75.8153 51.577 63.5779 42.4222C57.3593 49.4295 51.845 57.0255 47.1131 65.089Z" fill="url(#paint1_linear_2191_10563)"/>
<circle cx="28" cy="24" r="6" fill="white"/>
<circle cx="29" cy="113" r="5" fill="white"/>
<circle cx="125" cy="41" r="5" fill="#718096"/>
<circle cx="63" cy="41" r="6" fill="#718096"/>
<circle cx="47" cy="65" r="6" fill="white"/>
<circle cx="9" cy="69" r="5" fill="#718096"/>
<circle cx="100" cy="16" r="6" fill="white"/>
<circle cx="98" cy="77" r="5" fill="white"/>
<circle cx="114" cy="113" r="6" fill="white"/>
<defs>
<linearGradient id="paint0_linear_2191_10563" x1="70.5" y1="6" x2="70.5" y2="131" gradientUnits="userSpaceOnUse">
<stop stop-color="#718096"/>
<stop offset="1" stop-color="#718096" stop-opacity="0.5"/>
</linearGradient>
<linearGradient id="paint1_linear_2191_10563" x1="67.9278" y1="12.6318" x2="67.9278" y2="115.76" gradientUnits="userSpaceOnUse">
<stop stop-color="#718096"/>
<stop offset="1" stop-color="#718096" stop-opacity="0"/>
</linearGradient>
</defs>
</svg>
