<svg width="140" height="140" viewBox="0 0 140 140" fill="none" xmlns="http://www.w3.org/2000/svg">
<path d="M15 18L25 43" stroke="url(#paint0_linear_2191_10596)"/>
<path d="M96 39L58 58" stroke="url(#paint1_linear_2191_10596)"/>
<path d="M84 122L58 131" stroke="url(#paint2_linear_2191_10596)"/>
<path d="M127 84L118 93" stroke="url(#paint3_linear_2191_10596)"/>
<path d="M72 22L92 24" stroke="url(#paint4_linear_2191_10596)"/>
<path d="M30 115L30 100" stroke="url(#paint5_linear_2191_10596)"/>
<path d="M81 99.5L55 87" stroke="url(#paint6_linear_2191_10596)"/>
<path d="M106.5 87.5002L113.5 48" stroke="url(#paint7_linear_2191_10596)"/>
<circle cx="13" cy="15" r="6" fill="white"/>
<circle cx="57" cy="131" r="6" fill="white"/>
<circle cx="130" cy="81" r="5" fill="#718096"/>
<circle cx="30" cy="117" r="5" fill="#718096"/>
<circle cx="69" cy="21" r="6" fill="white"/>
<circle cx="31" cy="70" r="30" stroke="#718096" stroke-width="2"/>
<path d="M47.9799 86.5H47.9803C48.1981 86.5002 48.4133 86.4538 48.6114 86.364C48.8094 86.2743 48.9857 86.1433 49.1282 85.98C49.2707 85.8168 49.3762 85.6252 49.4378 85.4181C49.4993 85.2112 49.5154 84.9936 49.4852 84.7799C49.3383 83.7573 49.029 82.9117 48.5479 82.1795L48.5478 82.1794C48.1112 81.5145 47.5362 80.949 46.7762 80.4507C45.4061 79.5525 43.6582 79.0239 41.7085 78.4388L41.7001 78.4363C40.9309 78.2054 40.125 77.9635 39.3176 77.6881C38.4126 77.3793 37.6781 76.9024 37.1369 76.2359C36.5962 75.5699 36.2734 74.7454 36.1417 73.7808L36.1018 73.4888L36.338 73.3125L36.5952 73.1205L36.5959 73.12C37.6578 72.33 38.3708 71.1618 38.5861 69.8607L38.5862 69.8598L38.7026 69.164L38.755 68.8508L39.0609 68.7651C39.3298 68.6897 39.6353 68.5123 39.9133 68.0996C40.1919 67.686 40.3616 67.1573 40.5328 66.6133C40.5328 66.6133 40.5328 66.6133 40.5328 66.6133L40.5374 66.5987C40.605 66.3836 40.6756 66.1592 40.7494 65.9708L40.7495 65.9705C41.0916 65.0979 41.3004 64.065 41.3004 63.2969C41.3004 62.6085 41.0159 62.2431 40.8042 62.0577C40.6458 61.9199 40.4579 61.8194 40.2547 61.7638L39.8866 61.6631V61.2815V55.9758V55.9757C39.8867 55.3537 39.6722 54.7502 39.2787 54.2662C38.8851 53.7822 38.3361 53.4471 37.7234 53.3175C37.7234 53.3175 37.7234 53.3175 37.7234 53.3175L35.8355 52.9181L35.0127 52.744L35.5587 52.1043C35.8475 51.7659 36.2058 51.3772 36.5658 51.0188L36.5658 51.0188C36.6087 50.9761 36.6377 50.922 36.6494 50.8633C36.6611 50.8047 36.6552 50.7439 36.6321 50.6886C36.6091 50.6332 36.5699 50.5855 36.5193 50.5518L36.7962 50.1355L36.5192 50.5518C36.4686 50.5181 36.4087 50.5 36.3473 50.5H36.3473C35.685 50.5 33.4009 50.6929 31.0059 51.1659L31.0058 51.1659C27.8063 51.7976 25.5949 52.6657 24.3502 53.6985L24.3309 53.7145L24.3101 53.7285C23.9407 53.977 23.6386 54.312 23.43 54.7037C23.2214 55.0954 23.1127 55.532 23.1134 55.9751L23.1134 55.9758L23.1134 61.2815V61.6631L22.7453 61.7638C22.542 61.8194 22.3541 61.9199 22.1957 62.0578C21.984 62.2432 21.6996 62.6086 21.6996 63.2969C21.6996 64.065 21.9084 65.0979 22.2505 65.9705L22.2506 65.9708C22.3244 66.1592 22.395 66.3836 22.4626 66.5986L22.4672 66.6133L22.4673 66.6135C22.638 67.1569 22.8079 67.685 23.0868 68.0998C23.3648 68.5123 23.6703 68.6897 23.9391 68.7651L24.245 68.8508L24.2974 69.164L24.4138 69.8598L24.4139 69.8607C24.6292 71.1618 25.3422 72.33 26.4041 73.12L26.4048 73.1205L26.662 73.3125L26.8982 73.4888L26.8583 73.7808C26.7266 74.7453 26.4041 75.5698 25.8635 76.2358C25.3225 76.9024 24.588 77.3793 23.6826 77.688C23.6825 77.6881 23.6824 77.6881 23.6823 77.6881L23.521 77.2149C22.7217 77.4878 21.9216 77.7279 21.1478 77.9599L47.9799 86.5ZM47.9799 86.5H15.0196H15.0193C14.8015 86.5001 14.5864 86.4537 14.3884 86.3639C14.1903 86.2741 14.0142 86.1431 13.8717 85.9799C13.7292 85.8167 13.6237 85.6251 13.5622 85.418C13.5007 85.2112 13.4846 84.9936 13.5148 84.7801C13.6622 83.7574 13.9717 82.9116 14.4523 82.1793L14.4523 82.1792C14.8887 81.5139 15.4636 80.9491 16.2238 80.4507C17.5939 79.5525 19.3418 79.0239 21.2916 78.4388L47.9799 86.5Z" stroke="url(#paint8_linear_2191_10596)"/>
<circle cx="114" cy="25" r="23" stroke="#718096" stroke-width="2"/>
<path d="M127.362 41.5H127.363C127.526 41.5001 127.687 41.4654 127.835 41.3982C127.983 41.331 128.115 41.2329 128.222 41.1108C128.329 40.9887 128.407 40.8453 128.453 40.6905C128.499 40.5357 128.512 40.3729 128.489 40.2131C128.372 39.3959 128.125 38.7239 127.744 38.1435L127.743 38.1433C127.397 37.6162 126.941 37.1666 126.334 36.7689C125.237 36.0496 123.834 35.6246 122.25 35.1491L122.242 35.1468C121.619 34.9598 120.964 34.7632 120.308 34.5393C119.561 34.2843 118.949 33.8886 118.497 33.3319C118.046 32.776 117.778 32.0902 117.67 31.2946L117.63 31.0025L117.866 30.8262L118.075 30.6705L118.075 30.67C118.917 30.0441 119.482 29.1185 119.652 28.0878L119.652 28.0869L119.747 27.5228L119.799 27.2095L120.105 27.1238C120.301 27.0689 120.53 26.9389 120.743 26.6224C120.96 26.3005 121.094 25.8856 121.234 25.4419C121.234 25.4419 121.234 25.4419 121.234 25.4419L121.238 25.4284C121.292 25.2553 121.35 25.0707 121.411 24.9148L121.412 24.9146C121.685 24.2161 121.852 23.3903 121.852 22.7812C121.852 22.2544 121.636 21.9829 121.482 21.8479C121.364 21.7455 121.225 21.6708 121.073 21.6294L120.705 21.5287V21.1471V16.8452V16.8452C120.705 16.3626 120.539 15.8943 120.234 15.5188C119.928 15.1432 119.502 14.883 119.026 14.7824L117.496 14.4585L116.673 14.2845L117.219 13.6448C117.455 13.3685 117.747 13.0514 118.041 12.7591L118.041 12.759C118.062 12.7376 118.077 12.7106 118.082 12.6815C118.088 12.6524 118.085 12.6222 118.074 12.5947C118.062 12.5671 118.043 12.5432 118.017 12.5262C117.992 12.5092 117.961 12.5 117.93 12.5H117.93C117.401 12.5 115.555 12.6554 113.618 13.0381L113.618 13.0382C111.028 13.5495 109.254 14.2497 108.263 15.0716L108.244 15.0876L108.223 15.1016C107.936 15.2945 107.702 15.5544 107.54 15.8583C107.378 16.1621 107.294 16.5008 107.295 16.8445L107.295 16.8452L107.295 21.1471V21.5287L106.927 21.6294C106.775 21.6708 106.636 21.7455 106.518 21.8479C106.364 21.9829 106.148 22.2544 106.148 22.7812C106.148 23.3903 106.315 24.2161 106.588 24.9146L106.589 24.9148C106.65 25.0707 106.708 25.2552 106.762 25.4283L106.766 25.4419L106.766 25.4421C106.906 25.8852 107.04 26.2998 107.257 26.6227C107.47 26.939 107.699 27.069 107.895 27.1238L108.201 27.2095L108.253 27.5228L108.348 28.0869L108.348 28.0878C108.518 29.1185 109.083 30.0441 109.925 30.67L109.925 30.6705L110.134 30.8262L110.37 31.0025L110.33 31.2946C110.222 32.0901 109.955 32.7759 109.503 33.3319C109.052 33.8885 108.44 34.2843 107.692 34.5393C107.692 34.5393 107.692 34.5393 107.692 34.5394L107.531 34.0661C106.882 34.2874 106.234 34.4821 105.606 34.6702L127.362 41.5ZM127.362 41.5H100.637H100.637C100.474 41.5001 100.313 41.4653 100.165 41.3981C100.017 41.3309 99.8847 41.2328 99.778 41.1107C99.6714 40.9886 99.5925 40.8452 99.5465 40.6904C99.5006 40.5357 99.4885 40.3731 99.5111 40.2134C99.6288 39.396 99.8756 38.7238 100.257 38.1432L100.257 38.1431C100.603 37.6157 101.059 37.1667 101.666 36.7689C102.763 36.0496 104.166 35.6246 105.75 35.1491L127.362 41.5ZM113.521 12.5476L113.521 12.5476L113.521 12.5476Z" stroke="url(#paint9_linear_2191_10596)"/>
<circle cx="102" cy="109" r="23" stroke="#718096" stroke-width="2"/>
<path d="M116.307 125.5H116.308C116.479 125.5 116.648 125.464 116.803 125.393C116.958 125.323 117.097 125.22 117.208 125.092C117.32 124.964 117.403 124.814 117.451 124.652C117.499 124.489 117.512 124.319 117.488 124.151C117.367 123.305 117.111 122.608 116.716 122.006L116.716 122.006C116.356 121.459 115.883 120.993 115.255 120.581C114.118 119.836 112.666 119.396 111.03 118.905L111.022 118.902C110.378 118.709 109.702 118.506 109.024 118.275C108.254 118.012 107.625 117.605 107.16 117.033C106.696 116.461 106.421 115.755 106.309 114.935L106.269 114.643L106.505 114.467L106.72 114.306L106.721 114.306C107.594 113.656 108.18 112.696 108.357 111.627L108.357 111.626L108.455 111.043L108.507 110.73L108.813 110.644C109.019 110.586 109.259 110.449 109.482 110.119C109.707 109.784 109.847 109.353 109.991 108.895C109.991 108.895 109.991 108.895 109.991 108.895L109.995 108.881C110.051 108.702 110.111 108.512 110.174 108.351L110.174 108.351C110.458 107.628 110.63 106.772 110.63 106.141C110.63 105.59 110.404 105.306 110.242 105.163C110.118 105.056 109.972 104.978 109.814 104.934L109.446 104.834V104.452V100.007V100.007C109.446 99.5042 109.272 99.0166 108.954 98.6256C108.636 98.2345 108.193 97.9636 107.697 97.8588C107.697 97.8588 107.697 97.8588 107.697 97.8588L106.116 97.5242L105.293 97.3501L105.839 96.7104C106.082 96.4253 106.384 96.098 106.687 95.7962L106.687 95.7961C106.712 95.7717 106.728 95.7408 106.735 95.7074C106.742 95.6741 106.738 95.6396 106.725 95.6081C106.712 95.5765 106.69 95.5492 106.66 95.5299C106.631 95.5105 106.597 95.5 106.561 95.5H106.561C106.013 95.5 104.105 95.6607 102.102 96.0564L102.102 96.0564C99.4245 96.585 97.5882 97.3092 96.5614 98.1611L96.5421 98.1771L96.5213 98.1911C96.2228 98.392 95.9787 98.6626 95.8102 98.979C95.6417 99.2955 95.5539 99.6481 95.5544 100.006L95.5544 100.007L95.5544 104.452V104.834L95.1864 104.934C95.0279 104.978 94.8814 105.056 94.7579 105.163C94.5956 105.306 94.3699 105.591 94.3699 106.141C94.3699 106.772 94.5423 107.628 94.8259 108.351L94.826 108.351C94.8889 108.512 94.9487 108.702 95.005 108.881L95.0094 108.895L95.0094 108.895C95.1531 109.352 95.2923 109.783 95.5182 110.119L116.307 125.5ZM116.307 125.5H88.6921H88.6918M116.307 125.5H88.6918M88.6918 125.5C88.5209 125.5 88.3521 125.464 88.1967 125.393C88.0413 125.323 87.9032 125.22 87.7914 125.092C87.6797 124.964 87.597 124.814 87.5488 124.651C87.5006 124.489 87.4879 124.319 87.5116 124.152C87.6336 123.305 87.8893 122.608 88.2846 122.005L88.2846 122.005M88.6918 125.5L88.2846 122.005M88.2846 122.005C88.6435 121.458 89.1168 120.993 89.7455 120.581C90.8817 119.836 92.3337 119.396 93.9703 118.905M88.2846 122.005L93.8266 118.426M98.7312 114.643L98.6914 114.935C98.5794 115.755 98.3046 116.461 97.8405 117.032C97.3759 117.605 96.7467 118.012 95.9762 118.275M98.7312 114.643L93.8266 118.426M98.7312 114.643L98.4951 114.467M98.7312 114.643L98.4951 114.467M95.9762 118.275L95.8149 117.802L95.9765 118.275C95.9764 118.275 95.9763 118.275 95.9762 118.275ZM95.9762 118.275C95.2963 118.507 94.6172 118.711 93.9703 118.905M93.9703 118.905L93.8266 118.426M93.9703 118.905C93.9702 118.905 93.9702 118.905 93.9702 118.905L93.8266 118.426M98.4951 114.467L98.2795 114.306L98.2789 114.306M98.4951 114.467L98.2789 114.306M98.2789 114.306C97.406 113.656 96.82 112.696 96.643 111.627L96.6428 111.626M98.2789 114.306L96.6428 111.626M96.6428 111.626L96.5453 111.043L96.4929 110.73M96.6428 111.626L96.4929 110.73M96.4929 110.73L96.1871 110.644M96.4929 110.73L96.1871 110.644M96.1871 110.644C95.9808 110.586 95.7408 110.449 95.5184 110.119L96.1871 110.644ZM102.005 95.5659L102.005 95.5659L102.005 95.5659Z" stroke="url(#paint10_linear_2191_10596)"/>
<defs>
<linearGradient id="paint0_linear_2191_10596" x1="15.518" y1="18.4632" x2="24.9234" y2="43.0309" gradientUnits="userSpaceOnUse">
<stop stop-color="#718096"/>
<stop offset="1" stop-color="#718096" stop-opacity="0"/>
</linearGradient>
<linearGradient id="paint1_linear_2191_10596" x1="58.4651" y1="58.9303" x2="97.4999" y2="38.9999" gradientUnits="userSpaceOnUse">
<stop stop-color="#718096"/>
<stop offset="1" stop-color="#718096" stop-opacity="0"/>
</linearGradient>
<linearGradient id="paint2_linear_2191_10596" x1="83.5" y1="122.5" x2="57.9673" y2="130.906" gradientUnits="userSpaceOnUse">
<stop stop-color="#718096"/>
<stop offset="1" stop-color="#718096" stop-opacity="0"/>
</linearGradient>
<linearGradient id="paint3_linear_2191_10596" x1="127.01" y1="84.4265" x2="118.155" y2="93.1582" gradientUnits="userSpaceOnUse">
<stop stop-color="#718096"/>
<stop offset="1" stop-color="#718096" stop-opacity="0"/>
</linearGradient>
<linearGradient id="paint4_linear_2191_10596" x1="72.4931" y1="21.7388" x2="92.0111" y2="23.91" gradientUnits="userSpaceOnUse">
<stop stop-color="#718096"/>
<stop offset="1" stop-color="#718096" stop-opacity="0"/>
</linearGradient>
<linearGradient id="paint5_linear_2191_10596" x1="29.6911" y1="114.653" x2="29.8126" y2="99.9976" gradientUnits="userSpaceOnUse">
<stop stop-color="#718096"/>
<stop offset="1" stop-color="#718096" stop-opacity="0"/>
</linearGradient>
<linearGradient id="paint6_linear_2191_10596" x1="80.5" y1="99" x2="55.22" y2="86.56" gradientUnits="userSpaceOnUse">
<stop stop-color="#718096"/>
<stop offset="1" stop-color="#718096" stop-opacity="0"/>
</linearGradient>
<linearGradient id="paint7_linear_2191_10596" x1="112.5" y1="46" x2="107" y2="88" gradientUnits="userSpaceOnUse">
<stop stop-color="#718096"/>
<stop offset="1" stop-color="#718096" stop-opacity="0"/>
</linearGradient>
<linearGradient id="paint8_linear_2191_10596" x1="24.4303" y1="50.8553" x2="24.4103" y2="87.0084" gradientUnits="userSpaceOnUse">
<stop stop-color="#718096"/>
<stop offset="1" stop-color="#718096" stop-opacity="0"/>
</linearGradient>
<linearGradient id="paint9_linear_2191_10596" x1="108.268" y1="12.6935" x2="108.252" y2="42.0068" gradientUnits="userSpaceOnUse">
<stop stop-color="#718096"/>
<stop offset="1" stop-color="#718096" stop-opacity="0"/>
</linearGradient>
<linearGradient id="paint10_linear_2191_10596" x1="96.5767" y1="95.7166" x2="96.56" y2="126.007" gradientUnits="userSpaceOnUse">
<stop stop-color="#718096"/>
<stop offset="1" stop-color="#718096" stop-opacity="0"/>
</linearGradient>
</defs>
</svg>
