<svg width="140" height="140" viewBox="0 0 140 140" fill="none" xmlns="http://www.w3.org/2000/svg">
<circle cx="34" cy="31" r="6" fill="white"/>
<circle cx="71" cy="12" r="6" fill="#718096"/>
<circle cx="106" cy="31" r="6" fill="white"/>
<path d="M18 70H122V133H18V70Z" fill="#1B1E23" stroke="#718096" stroke-width="2"/>
<path d="M17.5 86.5H122.5V115.5H17.5V86.5Z" stroke="url(#paint0_linear_2191_10621)"/>
<path d="M19.5 71.5L6 58" stroke="url(#paint1_linear_2191_10621)" stroke-width="2"/>
<path d="M121 71.5L134.5 58" stroke="url(#paint2_linear_2191_10621)" stroke-width="2"/>
<path d="M58.6734 107.68C58.6201 107.68 58.5534 107.66 58.4734 107.62C58.3934 107.58 58.3268 107.547 58.2734 107.52L51.5134 102.9C51.3134 102.767 51.1668 102.633 51.0734 102.5C50.9801 102.367 50.9334 102.207 50.9334 102.02V101.52C50.9334 101.333 50.9801 101.173 51.0734 101.04C51.1668 100.907 51.3134 100.773 51.5134 100.64L58.2734 96.02C58.3268 95.9933 58.3934 95.96 58.4734 95.92C58.5534 95.88 58.6201 95.86 58.6734 95.86C58.7801 95.86 58.8734 95.9 58.9534 95.98C59.0334 96.0467 59.0734 96.14 59.0734 96.26V97.78C59.0734 97.9667 59.0268 98.1133 58.9334 98.22C58.8401 98.3267 58.7201 98.42 58.5734 98.5L53.7134 101.76L58.5734 105.04C58.7201 105.133 58.8401 105.233 58.9334 105.34C59.0268 105.433 59.0734 105.573 59.0734 105.76V107.28C59.0734 107.4 59.0334 107.5 58.9534 107.58C58.8734 107.647 58.7801 107.68 58.6734 107.68ZM65.8219 109.68C65.7152 109.68 65.6219 109.64 65.5419 109.56C65.4619 109.48 65.4219 109.38 65.4219 109.26C65.4219 109.207 65.4352 109.133 65.4619 109.04L72.2619 92.7C72.3152 92.6067 72.3885 92.5133 72.4819 92.42C72.5752 92.3267 72.7085 92.28 72.8819 92.28H74.1819C74.2885 92.28 74.3819 92.32 74.4619 92.4C74.5552 92.48 74.6019 92.58 74.6019 92.7C74.6019 92.7533 74.5819 92.8267 74.5419 92.92L67.7219 109.26C67.6819 109.34 67.6152 109.427 67.5219 109.52C67.4285 109.627 67.2885 109.68 67.1019 109.68H65.8219ZM81.3284 107.68C81.2218 107.68 81.1284 107.647 81.0484 107.58C80.9684 107.5 80.9284 107.393 80.9284 107.26V105.76C80.9284 105.56 80.9751 105.413 81.0684 105.32C81.1618 105.213 81.2818 105.12 81.4284 105.04L86.2884 101.76L81.4284 98.5C81.2818 98.4067 81.1618 98.3133 81.0684 98.22C80.9751 98.1133 80.9284 97.9667 80.9284 97.78V96.26C80.9284 96.1267 80.9684 96.0267 81.0484 95.96C81.1284 95.8933 81.2218 95.86 81.3284 95.86C81.3951 95.86 81.4684 95.88 81.5484 95.92C81.6284 95.9467 81.6951 95.98 81.7484 96.02L88.4884 100.64C88.6884 100.773 88.8351 100.907 88.9284 101.04C89.0218 101.16 89.0684 101.32 89.0684 101.52V102C89.0684 102.2 89.0218 102.367 88.9284 102.5C88.8351 102.633 88.6884 102.767 88.4884 102.9L81.7484 107.52C81.6951 107.547 81.6284 107.58 81.5484 107.62C81.4684 107.66 81.3951 107.68 81.3284 107.68Z" fill="#718096"/>
<path d="M33.6464 43.6464C33.8417 43.4512 34.1583 43.4512 34.3536 43.6464L37.5355 46.8284C37.7308 47.0237 37.7308 47.3403 37.5355 47.5355C37.3403 47.7308 37.0237 47.7308 36.8284 47.5355L34 44.7071L31.1716 47.5355C30.9763 47.7308 30.6597 47.7308 30.4645 47.5355C30.2692 47.3403 30.2692 47.0237 30.4645 46.8284L33.6464 43.6464ZM33.5 53.3048L33.5 44L34.5 44L34.5 53.3048L33.5 53.3048ZM42.3048 61.8048L42 61.8048L42 60.8048L42.3048 60.8048L42.3048 61.8048ZM49.5 69C49.5 65.0262 46.2786 61.8048 42.3048 61.8048L42.3048 60.8048C46.8309 60.8048 50.5 64.4739 50.5 69L49.5 69ZM34.5 53.3048C34.5 57.4469 37.8579 60.8048 42 60.8048L42 61.8048C37.3056 61.8048 33.5 57.9992 33.5 53.3048L34.5 53.3048Z" fill="url(#paint3_linear_2191_10621)"/>
<path d="M71 42.8048L70.5 42.8048L71 42.8048ZM70.6464 25.1464C70.8417 24.9512 71.1583 24.9512 71.3536 25.1464L74.5355 28.3284C74.7308 28.5237 74.7308 28.8403 74.5355 29.0355C74.3403 29.2308 74.0237 29.2308 73.8284 29.0355L71 26.2071L68.1716 29.0355C67.9763 29.2308 67.6597 29.2308 67.4645 29.0355C67.2692 28.8403 67.2692 28.5237 67.4645 28.3284L70.6464 25.1464ZM71 61.3048L71.5 61.3048L71 61.3048ZM70.5 42.8048L70.5 25.5L71.5 25.5L71.5 42.8048L70.5 42.8048ZM70.5 69L70.5 61.3048L71.5 61.3048L71.5 69L70.5 69ZM70.5 61.3048L70.5 42.8048L71.5 42.8048L71.5 61.3048L70.5 61.3048Z" fill="url(#paint4_linear_2191_10621)"/>
<path d="M106.354 43.6464C106.158 43.4512 105.842 43.4512 105.646 43.6464L102.464 46.8284C102.269 47.0237 102.269 47.3403 102.464 47.5355C102.66 47.7308 102.976 47.7308 103.172 47.5355L106 44.7071L108.828 47.5355C109.024 47.7308 109.34 47.7308 109.536 47.5355C109.731 47.3403 109.731 47.0237 109.536 46.8284L106.354 43.6464ZM106.5 53.3048L106.5 44L105.5 44L105.5 53.3048L106.5 53.3048ZM97.6952 61.8048L98 61.8048L98 60.8048L97.6952 60.8048L97.6952 61.8048ZM90.5 69C90.5 65.0262 93.7214 61.8048 97.6952 61.8048L97.6952 60.8048C93.1691 60.8048 89.5 64.4739 89.5 69L90.5 69ZM105.5 53.3048C105.5 57.4469 102.142 60.8048 98 60.8048L98 61.8048C102.694 61.8048 106.5 57.9992 106.5 53.3048L105.5 53.3048Z" fill="url(#paint5_linear_2191_10621)"/>
<defs>
<linearGradient id="paint0_linear_2191_10621" x1="119.5" y1="116" x2="28" y2="87.5" gradientUnits="userSpaceOnUse">
<stop stop-color="#718096"/>
<stop offset="1" stop-color="#718096" stop-opacity="0"/>
</linearGradient>
<linearGradient id="paint1_linear_2191_10621" x1="6.00033" y1="71.4992" x2="18.6391" y2="76.7859" gradientUnits="userSpaceOnUse">
<stop stop-color="#718096"/>
<stop offset="1" stop-color="#718096" stop-opacity="0"/>
</linearGradient>
<linearGradient id="paint2_linear_2191_10621" x1="134.5" y1="71.4992" x2="121.861" y2="76.7859" gradientUnits="userSpaceOnUse">
<stop stop-color="#718096"/>
<stop offset="1" stop-color="#718096" stop-opacity="0"/>
</linearGradient>
<linearGradient id="paint3_linear_2191_10621" x1="33.9969" y1="42.4995" x2="20.9453" y2="62.4688" gradientUnits="userSpaceOnUse">
<stop stop-color="#718096"/>
<stop offset="1" stop-color="#718096" stop-opacity="0"/>
</linearGradient>
<linearGradient id="paint4_linear_2191_10621" x1="54.9969" y1="42.4995" x2="41.9453" y2="62.4688" gradientUnits="userSpaceOnUse">
<stop stop-color="#718096"/>
<stop offset="1" stop-color="#718096" stop-opacity="0"/>
</linearGradient>
<linearGradient id="paint5_linear_2191_10621" x1="105.999" y1="44.0006" x2="118.593" y2="63.2697" gradientUnits="userSpaceOnUse">
<stop stop-color="#718096"/>
<stop offset="1" stop-color="#718096" stop-opacity="0"/>
</linearGradient>
</defs>
</svg>
