<svg width="262" height="80" viewBox="0 0 262 80" fill="none" xmlns="http://www.w3.org/2000/svg">
<path d="M10.8057 0C5.28166 0 0.805664 4.477 0.805664 10C0.805664 15.521 5.28166 20 10.8057 20C16.3297 20 20.8057 15.521 20.8057 10C20.8057 4.477 16.3297 0 10.8057 0Z" fill="white"/>
<path d="M70.8057 60C66.4567 60 62.7947 62.793 61.4177 66.667H50.1937C48.8167 62.793 45.1547 60 40.8057 60C35.2817 60 30.8057 64.479 30.8057 70C30.8057 75.521 35.2817 80 40.8057 80C45.1547 80 48.8167 77.207 50.1937 73.333H61.4187C62.7947 77.207 66.4567 80 70.8057 80C76.3297 80 80.8057 75.521 80.8057 70C80.8057 64.479 76.3297 60 70.8057 60Z" fill="white"/>
<path d="M74.1387 30.611V19.389C78.0157 18.008 80.8057 14.346 80.8057 10C80.8057 4.477 76.3297 0 70.8057 0C65.2817 0 60.8057 4.477 60.8057 10C60.8057 14.346 63.5957 18.008 67.4727 19.389V30.612C67.1467 30.729 66.8277 30.854 66.5187 31.001L49.8067 14.283C50.4277 12.982 50.8057 11.539 50.8057 10C50.8057 4.477 46.3297 0 40.8057 0C35.2817 0 30.8057 4.477 30.8057 10C30.8057 15.521 35.2817 20 40.8057 20C42.3487 20 43.7867 19.623 45.0927 19L61.8047 35.713C61.1837 37.018 60.8057 38.457 60.8057 40C60.8057 45.521 65.2817 50 70.8057 50C76.3297 50 80.8057 45.521 80.8057 40C80.8057 35.65 78.0157 31.988 74.1387 30.611Z" fill="white"/>
<path d="M40.8057 30C36.4567 30 32.7947 32.793 31.4177 36.666H20.1937C18.8137 32.793 15.1517 30 10.8057 30C5.28166 30 0.805664 34.477 0.805664 40C0.805664 45.523 5.28166 50 10.8057 50C15.1517 50 18.8137 47.211 20.1937 43.334H31.4187C31.5357 43.658 31.6587 43.979 31.8057 44.287L15.0897 60.999C13.7867 60.378 12.3457 60 10.8057 60C5.28166 60 0.805664 64.476 0.805664 70C0.805664 75.524 5.28166 80 10.8057 80C16.3267 80 20.8057 75.524 20.8057 70C20.8057 68.46 20.4277 67.019 19.8067 65.713L36.5187 49C37.8247 49.623 39.2627 50 40.8057 50C46.3267 50 50.8057 45.523 50.8057 40C50.8057 34.477 46.3267 30 40.8057 30Z" fill="white"/>
<path d="M101.212 76C101.143 76 101.087 75.9792 101.046 75.9376C101.004 75.896 100.983 75.8406 100.983 75.7712V68.9592C100.983 68.883 101.004 68.824 101.046 68.7824C101.087 68.7408 101.143 68.72 101.212 68.72H103.427C104.162 68.72 104.738 68.8275 105.154 69.0424C105.57 69.2574 105.864 69.5763 106.038 69.9992C106.218 70.4152 106.312 70.9248 106.319 71.528C106.326 71.84 106.329 72.1174 106.329 72.36C106.329 72.5958 106.326 72.8696 106.319 73.1816C106.305 73.8195 106.211 74.3464 106.038 74.7624C105.864 75.1784 105.573 75.4904 105.164 75.6984C104.755 75.8995 104.194 76 103.479 76H101.212ZM101.639 75.376H103.427C103.982 75.376 104.419 75.3032 104.738 75.1576C105.064 75.0051 105.296 74.7659 105.435 74.44C105.58 74.1072 105.656 73.6704 105.663 73.1296C105.67 72.9216 105.674 72.7414 105.674 72.5888C105.674 72.4294 105.674 72.2734 105.674 72.1208C105.674 71.9683 105.67 71.788 105.663 71.58C105.65 70.8174 105.473 70.2558 105.133 69.8952C104.793 69.5278 104.207 69.344 103.375 69.344H101.639V75.376Z" fill="white"/>
<path d="M111.142 76.104C110.469 76.104 109.935 75.8856 109.54 75.4488C109.145 75.0051 108.92 74.4262 108.864 73.712C108.857 73.608 108.854 73.4694 108.854 73.296C108.854 73.1227 108.857 72.984 108.864 72.88C108.899 72.4086 109.01 71.9926 109.197 71.632C109.384 71.2715 109.641 70.9907 109.966 70.7896C110.299 70.5886 110.691 70.488 111.142 70.488C111.627 70.488 112.04 70.5955 112.379 70.8104C112.719 71.0254 112.979 71.3339 113.159 71.736C113.346 72.1382 113.44 72.6166 113.44 73.1712V73.3272C113.44 73.3966 113.416 73.452 113.367 73.4936C113.326 73.5352 113.27 73.556 113.201 73.556H109.498C109.498 73.556 109.498 73.5699 109.498 73.5976C109.498 73.6254 109.498 73.6462 109.498 73.66C109.512 73.972 109.585 74.2702 109.717 74.5544C109.849 74.8318 110.036 75.0606 110.278 75.2408C110.521 75.4142 110.809 75.5008 111.142 75.5008C111.44 75.5008 111.686 75.4558 111.88 75.3656C112.081 75.2755 112.241 75.1784 112.358 75.0744C112.476 74.9635 112.553 74.8803 112.587 74.8248C112.65 74.7347 112.698 74.6827 112.733 74.6688C112.768 74.648 112.823 74.6376 112.899 74.6376H113.066C113.128 74.6376 113.18 74.6584 113.222 74.7C113.27 74.7347 113.291 74.7832 113.284 74.8456C113.277 74.9427 113.222 75.064 113.118 75.2096C113.021 75.3483 112.878 75.487 112.691 75.6256C112.511 75.7643 112.289 75.8787 112.026 75.9688C111.762 76.059 111.468 76.104 111.142 76.104ZM109.498 72.9736H112.806V72.932C112.806 72.5854 112.74 72.2734 112.608 71.996C112.476 71.7187 112.286 71.5003 112.036 71.3408C111.786 71.1744 111.488 71.0912 111.142 71.0912C110.795 71.0912 110.497 71.1744 110.247 71.3408C110.005 71.5003 109.817 71.7187 109.686 71.996C109.561 72.2734 109.498 72.5854 109.498 72.932V72.9736Z" fill="white"/>
<path d="M118.109 76.104C117.623 76.104 117.211 76.0104 116.871 75.8232C116.531 75.6291 116.271 75.3518 116.091 74.9912C115.918 74.6307 115.824 74.2043 115.81 73.712C115.803 73.608 115.8 73.4694 115.8 73.296C115.8 73.1227 115.803 72.984 115.81 72.88C115.824 72.3808 115.918 71.9544 116.091 71.6008C116.271 71.2403 116.531 70.9664 116.871 70.7792C117.211 70.5851 117.623 70.488 118.109 70.488C118.476 70.488 118.792 70.54 119.055 70.644C119.325 70.7411 119.547 70.8728 119.721 71.0392C119.894 71.1987 120.026 71.3755 120.116 71.5696C120.206 71.7638 120.254 71.9544 120.261 72.1416C120.268 72.211 120.248 72.2664 120.199 72.308C120.15 72.3496 120.095 72.3704 120.033 72.3704H119.887C119.818 72.3704 119.766 72.3566 119.731 72.3288C119.703 72.2942 119.672 72.2352 119.637 72.152C119.492 71.7568 119.291 71.483 119.034 71.3304C118.785 71.171 118.476 71.0912 118.109 71.0912C117.637 71.0912 117.245 71.2368 116.933 71.528C116.628 71.8123 116.465 72.2803 116.445 72.932C116.431 73.1747 116.431 73.4174 116.445 73.66C116.465 74.3118 116.628 74.7832 116.933 75.0744C117.245 75.3587 117.637 75.5008 118.109 75.5008C118.476 75.5008 118.785 75.4246 119.034 75.272C119.291 75.1126 119.492 74.8352 119.637 74.44C119.672 74.3568 119.703 74.3014 119.731 74.2736C119.766 74.239 119.818 74.2216 119.887 74.2216H120.033C120.095 74.2216 120.15 74.2424 120.199 74.284C120.248 74.3256 120.268 74.3811 120.261 74.4504C120.254 74.603 120.223 74.7555 120.168 74.908C120.112 75.0606 120.026 75.2096 119.908 75.3552C119.797 75.5008 119.658 75.6291 119.492 75.74C119.325 75.851 119.124 75.9376 118.889 76C118.66 76.0694 118.4 76.104 118.109 76.104Z" fill="white"/>
<path d="M124.891 76.104C124.218 76.104 123.684 75.8856 123.289 75.4488C122.894 75.0051 122.669 74.4262 122.613 73.712C122.606 73.608 122.603 73.4694 122.603 73.296C122.603 73.1227 122.606 72.984 122.613 72.88C122.648 72.4086 122.759 71.9926 122.946 71.632C123.133 71.2715 123.39 70.9907 123.716 70.7896C124.048 70.5886 124.44 70.488 124.891 70.488C125.376 70.488 125.789 70.5955 126.128 70.8104C126.468 71.0254 126.728 71.3339 126.908 71.736C127.096 72.1382 127.189 72.6166 127.189 73.1712V73.3272C127.189 73.3966 127.165 73.452 127.116 73.4936C127.075 73.5352 127.019 73.556 126.95 73.556H123.248C123.248 73.556 123.248 73.5699 123.248 73.5976C123.248 73.6254 123.248 73.6462 123.248 73.66C123.261 73.972 123.334 74.2702 123.466 74.5544C123.598 74.8318 123.785 75.0606 124.028 75.2408C124.27 75.4142 124.558 75.5008 124.891 75.5008C125.189 75.5008 125.435 75.4558 125.629 75.3656C125.83 75.2755 125.99 75.1784 126.108 75.0744C126.225 74.9635 126.302 74.8803 126.336 74.8248C126.399 74.7347 126.447 74.6827 126.482 74.6688C126.517 74.648 126.572 74.6376 126.648 74.6376H126.815C126.877 74.6376 126.929 74.6584 126.971 74.7C127.019 74.7347 127.04 74.7832 127.033 74.8456C127.026 74.9427 126.971 75.064 126.867 75.2096C126.77 75.3483 126.628 75.487 126.44 75.6256C126.26 75.7643 126.038 75.8787 125.775 75.9688C125.511 76.059 125.217 76.104 124.891 76.104ZM123.248 72.9736H126.555V72.932C126.555 72.5854 126.489 72.2734 126.357 71.996C126.225 71.7187 126.035 71.5003 125.785 71.3408C125.536 71.1744 125.237 71.0912 124.891 71.0912C124.544 71.0912 124.246 71.1744 123.996 71.3408C123.754 71.5003 123.567 71.7187 123.435 71.996C123.31 72.2734 123.248 72.5854 123.248 72.932V72.9736Z" fill="white"/>
<path d="M130.038 76C129.968 76 129.913 75.9792 129.871 75.9376C129.83 75.896 129.809 75.8406 129.809 75.7712V70.8208C129.809 70.7515 129.83 70.696 129.871 70.6544C129.913 70.6128 129.968 70.592 130.038 70.592H130.215C130.284 70.592 130.339 70.6128 130.381 70.6544C130.423 70.696 130.443 70.7515 130.443 70.8208V71.3096C130.631 71.067 130.856 70.8694 131.119 70.7168C131.39 70.5643 131.747 70.488 132.191 70.488C132.662 70.488 133.054 70.592 133.366 70.8C133.685 71.0011 133.92 71.2784 134.073 71.632C134.232 71.9787 134.312 72.3739 134.312 72.8176V75.7712C134.312 75.8406 134.291 75.896 134.25 75.9376C134.208 75.9792 134.153 76 134.083 76H133.907C133.837 76 133.782 75.9792 133.74 75.9376C133.699 75.896 133.678 75.8406 133.678 75.7712V72.8696C133.678 72.315 133.543 71.8816 133.272 71.5696C133.002 71.2507 132.607 71.0912 132.087 71.0912C131.594 71.0912 131.196 71.2507 130.891 71.5696C130.592 71.8816 130.443 72.315 130.443 72.8696V75.7712C130.443 75.8406 130.423 75.896 130.381 75.9376C130.339 75.9792 130.284 76 130.215 76H130.038Z" fill="white"/>
<path d="M138.93 76C138.57 76 138.285 75.9238 138.077 75.7712C137.869 75.6187 137.724 75.4107 137.64 75.1472C137.557 74.8838 137.516 74.5891 137.516 74.2632V71.1952H136.704C136.635 71.1952 136.58 71.1744 136.538 71.1328C136.496 71.0912 136.476 71.0358 136.476 70.9664V70.8208C136.476 70.7515 136.496 70.696 136.538 70.6544C136.58 70.6128 136.635 70.592 136.704 70.592H137.516V68.8448C137.516 68.7755 137.536 68.72 137.578 68.6784C137.62 68.6368 137.675 68.616 137.744 68.616H137.921C137.991 68.616 138.046 68.6368 138.088 68.6784C138.129 68.72 138.15 68.7755 138.15 68.8448V70.592H139.44C139.509 70.592 139.564 70.6128 139.606 70.6544C139.648 70.696 139.668 70.7515 139.668 70.8208V70.9664C139.668 71.0358 139.648 71.0912 139.606 71.1328C139.564 71.1744 139.509 71.1952 139.44 71.1952H138.15V74.2216C138.15 74.5891 138.209 74.8768 138.327 75.0848C138.452 75.2928 138.67 75.3968 138.982 75.3968H139.544C139.613 75.3968 139.668 75.4176 139.71 75.4592C139.752 75.5008 139.772 75.5563 139.772 75.6256V75.7712C139.772 75.8406 139.752 75.896 139.71 75.9376C139.668 75.9792 139.613 76 139.544 76H138.93Z" fill="white"/>
<path d="M142.324 76C142.255 76 142.2 75.9792 142.158 75.9376C142.116 75.896 142.096 75.8406 142.096 75.7712V70.8312C142.096 70.7619 142.116 70.7064 142.158 70.6648C142.2 70.6163 142.255 70.592 142.324 70.592H142.491C142.56 70.592 142.616 70.6163 142.657 70.6648C142.706 70.7064 142.73 70.7619 142.73 70.8312V71.3096C142.855 71.067 143.035 70.8867 143.271 70.7688C143.507 70.651 143.798 70.592 144.144 70.592H144.529C144.599 70.592 144.654 70.6128 144.696 70.6544C144.737 70.696 144.758 70.7515 144.758 70.8208V70.9664C144.758 71.0358 144.737 71.0912 144.696 71.1328C144.654 71.1744 144.599 71.1952 144.529 71.1952H144.082C143.666 71.1952 143.337 71.3166 143.094 71.5592C142.851 71.8019 142.73 72.1312 142.73 72.5472V75.7712C142.73 75.8406 142.706 75.896 142.657 75.9376C142.616 75.9792 142.56 76 142.491 76H142.324Z" fill="white"/>
<path d="M148.334 76.104C148.001 76.104 147.693 76.0347 147.408 75.896C147.131 75.7574 146.906 75.5736 146.732 75.3448C146.559 75.1091 146.472 74.8456 146.472 74.5544C146.472 74.083 146.663 73.7051 147.044 73.4208C147.426 73.1366 147.921 72.9528 148.532 72.8696L150.175 72.6408V72.2768C150.175 71.9094 150.06 71.6216 149.832 71.4136C149.61 71.1987 149.253 71.0912 148.76 71.0912C148.4 71.0912 148.109 71.164 147.887 71.3096C147.665 71.4483 147.512 71.632 147.429 71.8608C147.394 71.9648 147.329 72.0168 147.232 72.0168H147.065C146.982 72.0168 146.923 71.996 146.888 71.9544C146.854 71.9059 146.836 71.8504 146.836 71.788C146.836 71.691 146.871 71.5696 146.94 71.424C147.017 71.2784 147.131 71.1363 147.284 70.9976C147.436 70.852 147.634 70.7307 147.876 70.6336C148.119 70.5366 148.414 70.488 148.76 70.488C149.169 70.488 149.506 70.5435 149.769 70.6544C150.04 70.7654 150.248 70.911 150.393 71.0912C150.546 71.2646 150.653 71.4587 150.716 71.6736C150.778 71.8886 150.809 72.1 150.809 72.308V75.7712C150.809 75.8406 150.788 75.896 150.747 75.9376C150.705 75.9792 150.65 76 150.58 76H150.404C150.334 76 150.279 75.9792 150.237 75.9376C150.196 75.896 150.175 75.8406 150.175 75.7712V75.2824C150.092 75.4072 149.974 75.532 149.821 75.6568C149.669 75.7816 149.471 75.8891 149.228 75.9792C148.993 76.0624 148.694 76.104 148.334 76.104ZM148.438 75.5008C148.757 75.5008 149.048 75.4315 149.312 75.2928C149.575 75.1542 149.783 74.9427 149.936 74.6584C150.095 74.3672 150.175 74.0032 150.175 73.5664V73.2128L148.833 73.4C148.265 73.4763 147.835 73.608 147.544 73.7952C147.252 73.9824 147.107 74.2182 147.107 74.5024C147.107 74.7312 147.173 74.9184 147.304 75.064C147.436 75.2096 147.602 75.3206 147.804 75.3968C148.012 75.4662 148.223 75.5008 148.438 75.5008Z" fill="white"/>
<path d="M153.941 76C153.872 76 153.816 75.9792 153.775 75.9376C153.733 75.896 153.712 75.8406 153.712 75.7712V68.8448C153.712 68.7755 153.733 68.72 153.775 68.6784C153.816 68.6368 153.872 68.616 153.941 68.616H154.118C154.187 68.616 154.243 68.6368 154.284 68.6784C154.326 68.72 154.347 68.7755 154.347 68.8448V75.7712C154.347 75.8406 154.326 75.896 154.284 75.9376C154.243 75.9792 154.187 76 154.118 76H153.941Z" fill="white"/>
<path d="M157.514 76C157.445 76 157.39 75.9792 157.348 75.9376C157.306 75.896 157.286 75.8406 157.286 75.7712V70.8208C157.286 70.7515 157.306 70.696 157.348 70.6544C157.39 70.6128 157.445 70.592 157.514 70.592H157.691C157.761 70.592 157.816 70.6128 157.858 70.6544C157.899 70.696 157.92 70.7515 157.92 70.8208V75.7712C157.92 75.8406 157.899 75.896 157.858 75.9376C157.816 75.9792 157.761 76 157.691 76H157.514ZM157.4 69.4792C157.331 69.4792 157.275 69.4584 157.234 69.4168C157.192 69.3752 157.171 69.3198 157.171 69.2504V68.8552C157.171 68.7859 157.192 68.7304 157.234 68.6888C157.275 68.6403 157.331 68.616 157.4 68.616H157.795C157.865 68.616 157.92 68.6403 157.962 68.6888C158.01 68.7304 158.034 68.7859 158.034 68.8552V69.2504C158.034 69.3198 158.01 69.3752 157.962 69.4168C157.92 69.4584 157.865 69.4792 157.795 69.4792H157.4Z" fill="white"/>
<path d="M160.672 76C160.603 76 160.548 75.9792 160.506 75.9376C160.464 75.896 160.444 75.8406 160.444 75.7712V75.5944C160.444 75.539 160.458 75.4835 160.485 75.428C160.52 75.3726 160.555 75.3206 160.589 75.272L163.647 71.1952H160.776C160.707 71.1952 160.652 71.1744 160.61 71.1328C160.568 71.0912 160.548 71.0358 160.548 70.9664V70.8208C160.548 70.7515 160.568 70.696 160.61 70.6544C160.652 70.6128 160.707 70.592 160.776 70.592H164.271C164.34 70.592 164.396 70.6128 164.437 70.6544C164.479 70.696 164.5 70.7515 164.5 70.8208V70.9976C164.5 71.0531 164.482 71.1086 164.448 71.164C164.42 71.2126 164.389 71.2646 164.354 71.32L161.317 75.3968H164.479C164.548 75.3968 164.604 75.4176 164.645 75.4592C164.687 75.5008 164.708 75.5563 164.708 75.6256V75.7712C164.708 75.8406 164.687 75.896 164.645 75.9376C164.604 75.9792 164.548 76 164.479 76H160.672Z" fill="white"/>
<path d="M169.132 76.104C168.459 76.104 167.925 75.8856 167.53 75.4488C167.135 75.0051 166.91 74.4262 166.854 73.712C166.847 73.608 166.844 73.4694 166.844 73.296C166.844 73.1227 166.847 72.984 166.854 72.88C166.889 72.4086 167 71.9926 167.187 71.632C167.374 71.2715 167.631 70.9907 167.957 70.7896C168.289 70.5886 168.681 70.488 169.132 70.488C169.617 70.488 170.03 70.5955 170.369 70.8104C170.709 71.0254 170.969 71.3339 171.149 71.736C171.337 72.1382 171.43 72.6166 171.43 73.1712V73.3272C171.43 73.3966 171.406 73.452 171.357 73.4936C171.316 73.5352 171.26 73.556 171.191 73.556H167.489C167.489 73.556 167.489 73.5699 167.489 73.5976C167.489 73.6254 167.489 73.6462 167.489 73.66C167.503 73.972 167.575 74.2702 167.707 74.5544C167.839 74.8318 168.026 75.0606 168.269 75.2408C168.511 75.4142 168.799 75.5008 169.132 75.5008C169.43 75.5008 169.676 75.4558 169.87 75.3656C170.071 75.2755 170.231 75.1784 170.349 75.0744C170.466 74.9635 170.543 74.8803 170.577 74.8248C170.64 74.7347 170.688 74.6827 170.723 74.6688C170.758 74.648 170.813 74.6376 170.889 74.6376H171.056C171.118 74.6376 171.17 74.6584 171.212 74.7C171.26 74.7347 171.281 74.7832 171.274 74.8456C171.267 74.9427 171.212 75.064 171.108 75.2096C171.011 75.3483 170.869 75.487 170.681 75.6256C170.501 75.7643 170.279 75.8787 170.016 75.9688C169.752 76.059 169.458 76.104 169.132 76.104ZM167.489 72.9736H170.796V72.932C170.796 72.5854 170.73 72.2734 170.598 71.996C170.466 71.7187 170.276 71.5003 170.026 71.3408C169.777 71.1744 169.479 71.0912 169.132 71.0912C168.785 71.0912 168.487 71.1744 168.237 71.3408C167.995 71.5003 167.808 71.7187 167.676 71.996C167.551 72.2734 167.489 72.5854 167.489 72.932V72.9736Z" fill="white"/>
<path d="M176.005 76.104C175.603 76.104 175.26 76.0312 174.976 75.8856C174.698 75.74 174.473 75.5459 174.3 75.3032C174.126 75.0606 173.998 74.7902 173.915 74.492C173.839 74.1939 173.793 73.8923 173.78 73.5872C173.773 73.4832 173.769 73.3862 173.769 73.296C173.769 73.2059 173.773 73.1088 173.78 73.0048C173.793 72.6998 173.839 72.3982 173.915 72.1C173.998 71.8019 174.126 71.5315 174.3 71.2888C174.473 71.0462 174.698 70.852 174.976 70.7064C175.26 70.5608 175.603 70.488 176.005 70.488C176.435 70.488 176.789 70.5678 177.066 70.7272C177.35 70.8867 177.579 71.0808 177.752 71.3096V68.8448C177.752 68.7755 177.773 68.72 177.815 68.6784C177.856 68.6368 177.912 68.616 177.981 68.616H178.158C178.227 68.616 178.283 68.6368 178.324 68.6784C178.366 68.72 178.387 68.7755 178.387 68.8448V75.7712C178.387 75.8406 178.366 75.896 178.324 75.9376C178.283 75.9792 178.227 76 178.158 76H177.981C177.912 76 177.856 75.9792 177.815 75.9376C177.773 75.896 177.752 75.8406 177.752 75.7712V75.2824C177.579 75.5182 177.35 75.7158 177.066 75.8752C176.789 76.0278 176.435 76.104 176.005 76.104ZM176.068 75.5008C176.463 75.5008 176.782 75.4072 177.024 75.22C177.267 75.0328 177.447 74.8006 177.565 74.5232C177.683 74.239 177.745 73.9547 177.752 73.6704C177.759 73.5664 177.763 73.4312 177.763 73.2648C177.763 73.0984 177.759 72.9632 177.752 72.8592C177.745 72.5819 177.68 72.308 177.555 72.0376C177.437 71.7672 177.257 71.5419 177.014 71.3616C176.771 71.1814 176.456 71.0912 176.068 71.0912C175.665 71.0912 175.343 71.1814 175.1 71.3616C174.865 71.5419 174.695 71.7776 174.591 72.0688C174.487 72.36 174.428 72.672 174.414 73.0048C174.407 73.199 174.407 73.3931 174.414 73.5872C174.428 73.92 174.487 74.232 174.591 74.5232C174.695 74.8144 174.865 75.0502 175.1 75.2304C175.343 75.4107 175.665 75.5008 176.068 75.5008Z" fill="white"/>
<path d="M188.016 76.104C187.454 76.104 186.973 76 186.57 75.792C186.175 75.584 185.87 75.2651 185.655 74.8352C185.44 74.4054 185.333 73.8542 185.333 73.1816V68.9592C185.333 68.883 185.354 68.824 185.395 68.7824C185.437 68.7408 185.492 68.72 185.562 68.72H185.749C185.825 68.72 185.884 68.7408 185.926 68.7824C185.967 68.824 185.988 68.883 185.988 68.9592V73.2128C185.988 73.9894 186.168 74.5614 186.529 74.9288C186.896 75.2963 187.392 75.48 188.016 75.48C188.633 75.48 189.122 75.2963 189.482 74.9288C189.85 74.5614 190.034 73.9894 190.034 73.2128V68.9592C190.034 68.883 190.054 68.824 190.096 68.7824C190.145 68.7408 190.204 68.72 190.273 68.72H190.46C190.529 68.72 190.585 68.7408 190.626 68.7824C190.668 68.824 190.689 68.883 190.689 68.9592V73.1816C190.689 73.8542 190.581 74.4054 190.366 74.8352C190.158 75.2651 189.857 75.584 189.462 75.792C189.066 76 188.585 76.104 188.016 76.104Z" fill="white"/>
<path d="M195.364 76.104C195.003 76.104 194.691 76.0555 194.428 75.9584C194.171 75.8614 193.96 75.747 193.793 75.6152C193.627 75.4766 193.502 75.3414 193.419 75.2096C193.343 75.0779 193.301 74.9774 193.294 74.908C193.287 74.8318 193.312 74.7763 193.367 74.7416C193.423 74.7 193.475 74.6792 193.523 74.6792H193.679C193.721 74.6792 193.755 74.6862 193.783 74.7C193.818 74.7139 193.859 74.752 193.908 74.8144C193.998 74.9323 194.102 75.0467 194.22 75.1576C194.338 75.2616 194.487 75.3448 194.667 75.4072C194.854 75.4696 195.087 75.5008 195.364 75.5008C195.78 75.5008 196.123 75.4211 196.393 75.2616C196.664 75.1022 196.799 74.8664 196.799 74.5544C196.799 74.3603 196.744 74.2043 196.633 74.0864C196.529 73.9686 196.348 73.8646 196.092 73.7744C195.835 73.6843 195.489 73.5907 195.052 73.4936C194.615 73.3896 194.279 73.2648 194.043 73.1192C193.814 72.9736 193.658 72.8072 193.575 72.62C193.492 72.4259 193.45 72.2179 193.45 71.996C193.45 71.7534 193.52 71.5176 193.658 71.2888C193.797 71.0531 194.001 70.8624 194.272 70.7168C194.549 70.5643 194.896 70.488 195.312 70.488C195.652 70.488 195.939 70.5331 196.175 70.6232C196.418 70.7134 196.615 70.8243 196.768 70.956C196.92 71.0808 197.031 71.2056 197.101 71.3304C197.177 71.4552 197.219 71.5558 197.225 71.632C197.232 71.7014 197.212 71.7568 197.163 71.7984C197.115 71.84 197.059 71.8608 196.997 71.8608H196.841C196.785 71.8608 196.74 71.8504 196.705 71.8296C196.671 71.8019 196.64 71.7672 196.612 71.7256C196.543 71.6147 196.459 71.5107 196.362 71.4136C196.265 71.3166 196.133 71.2403 195.967 71.1848C195.808 71.1224 195.589 71.0912 195.312 71.0912C194.896 71.0912 194.587 71.1779 194.386 71.3512C194.185 71.5176 194.085 71.7326 194.085 71.996C194.085 72.1486 194.126 72.2838 194.209 72.4016C194.293 72.5126 194.449 72.6166 194.677 72.7136C194.906 72.8038 195.239 72.9008 195.676 73.0048C196.12 73.1019 196.47 73.2232 196.726 73.3688C196.983 73.5075 197.163 73.6739 197.267 73.868C197.378 74.0622 197.433 74.291 197.433 74.5544C197.433 74.8318 197.354 75.0883 197.194 75.324C197.042 75.5598 196.809 75.7504 196.497 75.896C196.192 76.0347 195.815 76.104 195.364 76.104Z" fill="white"/>
<path d="M202.022 76.104C201.349 76.104 200.815 75.8856 200.42 75.4488C200.025 75.0051 199.8 74.4262 199.744 73.712C199.737 73.608 199.734 73.4694 199.734 73.296C199.734 73.1227 199.737 72.984 199.744 72.88C199.779 72.4086 199.89 71.9926 200.077 71.632C200.264 71.2715 200.521 70.9907 200.847 70.7896C201.179 70.5886 201.571 70.488 202.022 70.488C202.507 70.488 202.92 70.5955 203.259 70.8104C203.599 71.0254 203.859 71.3339 204.039 71.736C204.227 72.1382 204.32 72.6166 204.32 73.1712V73.3272C204.32 73.3966 204.296 73.452 204.247 73.4936C204.206 73.5352 204.15 73.556 204.081 73.556H200.379C200.379 73.556 200.379 73.5699 200.379 73.5976C200.379 73.6254 200.379 73.6462 200.379 73.66C200.393 73.972 200.465 74.2702 200.597 74.5544C200.729 74.8318 200.916 75.0606 201.159 75.2408C201.401 75.4142 201.689 75.5008 202.022 75.5008C202.32 75.5008 202.566 75.4558 202.76 75.3656C202.961 75.2755 203.121 75.1784 203.239 75.0744C203.357 74.9635 203.433 74.8803 203.467 74.8248C203.53 74.7347 203.578 74.6827 203.613 74.6688C203.648 74.648 203.703 74.6376 203.779 74.6376H203.946C204.008 74.6376 204.06 74.6584 204.102 74.7C204.15 74.7347 204.171 74.7832 204.164 74.8456C204.157 74.9427 204.102 75.064 203.998 75.2096C203.901 75.3483 203.759 75.487 203.571 75.6256C203.391 75.7643 203.169 75.8787 202.906 75.9688C202.642 76.059 202.348 76.104 202.022 76.104ZM200.379 72.9736H203.686V72.932C203.686 72.5854 203.62 72.2734 203.488 71.996C203.356 71.7187 203.166 71.5003 202.916 71.3408C202.667 71.1744 202.369 71.0912 202.022 71.0912C201.675 71.0912 201.377 71.1744 201.127 71.3408C200.885 71.5003 200.698 71.7187 200.566 71.996C200.441 72.2734 200.379 72.5854 200.379 72.932V72.9736Z" fill="white"/>
<path d="M207.169 76C207.099 76 207.044 75.9792 207.002 75.9376C206.961 75.896 206.94 75.8406 206.94 75.7712V70.8312C206.94 70.7619 206.961 70.7064 207.002 70.6648C207.044 70.6163 207.099 70.592 207.169 70.592H207.335C207.405 70.592 207.46 70.6163 207.502 70.6648C207.55 70.7064 207.574 70.7619 207.574 70.8312V71.3096C207.699 71.067 207.879 70.8867 208.115 70.7688C208.351 70.651 208.642 70.592 208.989 70.592H209.374C209.443 70.592 209.498 70.6128 209.54 70.6544C209.582 70.696 209.602 70.7515 209.602 70.8208V70.9664C209.602 71.0358 209.582 71.0912 209.54 71.1328C209.498 71.1744 209.443 71.1952 209.374 71.1952H208.926C208.51 71.1952 208.181 71.3166 207.938 71.5592C207.696 71.8019 207.574 72.1312 207.574 72.5472V75.7712C207.574 75.8406 207.55 75.896 207.502 75.9376C207.46 75.9792 207.405 76 207.335 76H207.169Z" fill="white"/>
<path d="M215.843 76C215.774 76 215.718 75.9792 215.677 75.9376C215.635 75.896 215.614 75.8406 215.614 75.7712V68.9592C215.614 68.883 215.635 68.824 215.677 68.7824C215.718 68.7408 215.774 68.72 215.843 68.72H216.061C216.131 68.72 216.183 68.7374 216.217 68.772C216.252 68.8067 216.273 68.831 216.28 68.8448L220.117 74.7104V68.9592C220.117 68.883 220.138 68.824 220.18 68.7824C220.221 68.7408 220.277 68.72 220.346 68.72H220.533C220.61 68.72 220.669 68.7408 220.71 68.7824C220.752 68.824 220.773 68.883 220.773 68.9592V75.7608C220.773 75.8302 220.752 75.8891 220.71 75.9376C220.669 75.9792 220.613 76 220.544 76H220.315C220.246 76 220.194 75.9827 220.159 75.948C220.131 75.9134 220.11 75.8891 220.097 75.8752L216.269 70.0304V75.7712C216.269 75.8406 216.249 75.896 216.207 75.9376C216.165 75.9792 216.106 76 216.03 76H215.843Z" fill="white"/>
<path d="M225.844 76.104C225.171 76.104 224.637 75.8856 224.242 75.4488C223.847 75.0051 223.621 74.4262 223.566 73.712C223.559 73.608 223.556 73.4694 223.556 73.296C223.556 73.1227 223.559 72.984 223.566 72.88C223.601 72.4086 223.712 71.9926 223.899 71.632C224.086 71.2715 224.342 70.9907 224.668 70.7896C225.001 70.5886 225.393 70.488 225.844 70.488C226.329 70.488 226.741 70.5955 227.081 70.8104C227.421 71.0254 227.681 71.3339 227.861 71.736C228.048 72.1382 228.142 72.6166 228.142 73.1712V73.3272C228.142 73.3966 228.118 73.452 228.069 73.4936C228.028 73.5352 227.972 73.556 227.903 73.556H224.2C224.2 73.556 224.2 73.5699 224.2 73.5976C224.2 73.6254 224.2 73.6462 224.2 73.66C224.214 73.972 224.287 74.2702 224.419 74.5544C224.55 74.8318 224.738 75.0606 224.98 75.2408C225.223 75.4142 225.511 75.5008 225.844 75.5008C226.142 75.5008 226.388 75.4558 226.582 75.3656C226.783 75.2755 226.942 75.1784 227.06 75.0744C227.178 74.9635 227.254 74.8803 227.289 74.8248C227.352 74.7347 227.4 74.6827 227.435 74.6688C227.469 74.648 227.525 74.6376 227.601 74.6376H227.768C227.83 74.6376 227.882 74.6584 227.924 74.7C227.972 74.7347 227.993 74.7832 227.986 74.8456C227.979 74.9427 227.924 75.064 227.82 75.2096C227.722 75.3483 227.58 75.487 227.393 75.6256C227.213 75.7643 226.991 75.8787 226.728 75.9688C226.464 76.059 226.169 76.104 225.844 76.104ZM224.2 72.9736H227.508V72.932C227.508 72.5854 227.442 72.2734 227.31 71.996C227.178 71.7187 226.988 71.5003 226.738 71.3408C226.488 71.1744 226.19 71.0912 225.844 71.0912C225.497 71.0912 225.199 71.1744 224.949 71.3408C224.706 71.5003 224.519 71.7187 224.388 71.996C224.263 72.2734 224.2 72.5854 224.2 72.932V72.9736Z" fill="white"/>
<path d="M232.541 76C232.181 76 231.896 75.9238 231.688 75.7712C231.48 75.6187 231.335 75.4107 231.251 75.1472C231.168 74.8838 231.127 74.5891 231.127 74.2632V71.1952H230.315C230.246 71.1952 230.191 71.1744 230.149 71.1328C230.107 71.0912 230.087 71.0358 230.087 70.9664V70.8208C230.087 70.7515 230.107 70.696 230.149 70.6544C230.191 70.6128 230.246 70.592 230.315 70.592H231.127V68.8448C231.127 68.7755 231.147 68.72 231.189 68.6784C231.231 68.6368 231.286 68.616 231.355 68.616H231.532C231.602 68.616 231.657 68.6368 231.699 68.6784C231.74 68.72 231.761 68.7755 231.761 68.8448V70.592H233.051C233.12 70.592 233.175 70.6128 233.217 70.6544C233.259 70.696 233.279 70.7515 233.279 70.8208V70.9664C233.279 71.0358 233.259 71.0912 233.217 71.1328C233.175 71.1744 233.12 71.1952 233.051 71.1952H231.761V74.2216C231.761 74.5891 231.82 74.8768 231.938 75.0848C232.063 75.2928 232.281 75.3968 232.593 75.3968H233.155C233.224 75.3968 233.279 75.4176 233.321 75.4592C233.363 75.5008 233.383 75.5563 233.383 75.6256V75.7712C233.383 75.8406 233.363 75.896 233.321 75.9376C233.279 75.9792 233.224 76 233.155 76H232.541Z" fill="white"/>
<path d="M237.111 76C237.02 76 236.951 75.9792 236.903 75.9376C236.854 75.896 236.812 75.8302 236.778 75.74L235.311 70.9144C235.297 70.8728 235.291 70.8347 235.291 70.8C235.291 70.7446 235.311 70.696 235.353 70.6544C235.395 70.6128 235.443 70.592 235.499 70.592H235.696C235.765 70.592 235.817 70.6128 235.852 70.6544C235.894 70.6891 235.918 70.7203 235.925 70.748L237.204 75.0744L238.567 70.8C238.58 70.7584 238.608 70.7134 238.65 70.6648C238.691 70.6163 238.757 70.592 238.847 70.592H239.055C239.145 70.592 239.211 70.6163 239.253 70.6648C239.301 70.7134 239.329 70.7584 239.336 70.8L240.699 75.0744L241.978 70.748C241.985 70.7203 242.005 70.6891 242.04 70.6544C242.082 70.6128 242.137 70.592 242.207 70.592H242.404C242.46 70.592 242.508 70.6128 242.55 70.6544C242.591 70.696 242.612 70.7446 242.612 70.8C242.612 70.8347 242.605 70.8728 242.591 70.9144L241.125 75.74C241.097 75.8302 241.059 75.896 241.011 75.9376C240.962 75.9792 240.889 76 240.792 76H240.615C240.525 76 240.449 75.9792 240.387 75.9376C240.331 75.896 240.289 75.8302 240.262 75.74L238.951 71.6424L237.641 75.74C237.613 75.8302 237.572 75.896 237.516 75.9376C237.461 75.9792 237.384 76 237.287 76H237.111Z" fill="white"/>
<path d="M247.057 76.104C246.558 76.104 246.139 76 245.799 75.792C245.466 75.584 245.21 75.2998 245.029 74.9392C244.856 74.5787 244.763 74.1766 244.749 73.7328C244.742 73.6288 244.738 73.4832 244.738 73.296C244.738 73.1088 244.742 72.9632 244.749 72.8592C244.763 72.4086 244.856 72.0064 245.029 71.6528C245.21 71.2923 245.466 71.008 245.799 70.8C246.139 70.592 246.558 70.488 247.057 70.488C247.557 70.488 247.973 70.592 248.305 70.8C248.645 71.008 248.902 71.2923 249.075 71.6528C249.255 72.0064 249.352 72.4086 249.366 72.8592C249.373 72.9632 249.377 73.1088 249.377 73.296C249.377 73.4832 249.373 73.6288 249.366 73.7328C249.352 74.1766 249.255 74.5787 249.075 74.9392C248.902 75.2998 248.645 75.584 248.305 75.792C247.973 76 247.557 76.104 247.057 76.104ZM247.057 75.5008C247.543 75.5008 247.938 75.3448 248.243 75.0328C248.548 74.7208 248.711 74.2702 248.732 73.6808C248.739 73.5768 248.742 73.4486 248.742 73.296C248.742 73.1435 248.739 73.0152 248.732 72.9112C248.711 72.315 248.548 71.8643 248.243 71.5592C247.938 71.2472 247.543 71.0912 247.057 71.0912C246.572 71.0912 246.177 71.2472 245.872 71.5592C245.567 71.8643 245.404 72.315 245.383 72.9112C245.376 73.0152 245.373 73.1435 245.373 73.296C245.373 73.4486 245.376 73.5768 245.383 73.6808C245.404 74.2702 245.567 74.7208 245.872 75.0328C246.177 75.3448 246.572 75.5008 247.057 75.5008Z" fill="white"/>
<path d="M252.274 76C252.205 76 252.15 75.9792 252.108 75.9376C252.066 75.896 252.046 75.8406 252.046 75.7712V70.8312C252.046 70.7619 252.066 70.7064 252.108 70.6648C252.15 70.6163 252.205 70.592 252.274 70.592H252.441C252.51 70.592 252.566 70.6163 252.607 70.6648C252.656 70.7064 252.68 70.7619 252.68 70.8312V71.3096C252.805 71.067 252.985 70.8867 253.221 70.7688C253.456 70.651 253.748 70.592 254.094 70.592H254.479C254.548 70.592 254.604 70.6128 254.646 70.6544C254.687 70.696 254.708 70.7515 254.708 70.8208V70.9664C254.708 71.0358 254.687 71.0912 254.646 71.1328C254.604 71.1744 254.548 71.1952 254.479 71.1952H254.032C253.616 71.1952 253.287 71.3166 253.044 71.5592C252.801 71.8019 252.68 72.1312 252.68 72.5472V75.7712C252.68 75.8406 252.656 75.896 252.607 75.9376C252.566 75.9792 252.51 76 252.441 76H252.274Z" fill="white"/>
<path d="M257.148 76C257.079 76 257.024 75.9792 256.982 75.9376C256.94 75.896 256.92 75.8406 256.92 75.7712V68.8448C256.92 68.7755 256.94 68.72 256.982 68.6784C257.024 68.6368 257.079 68.616 257.148 68.616H257.325C257.394 68.616 257.45 68.6368 257.492 68.6784C257.533 68.72 257.554 68.7755 257.554 68.8448V72.5264L259.873 70.7688C259.97 70.6926 260.04 70.644 260.081 70.6232C260.13 70.6024 260.206 70.592 260.31 70.592H260.508C260.57 70.592 260.618 70.6128 260.653 70.6544C260.695 70.6891 260.716 70.7376 260.716 70.8C260.716 70.8278 260.705 70.8624 260.684 70.904C260.67 70.9387 260.636 70.9734 260.58 71.008L257.949 73.0048L260.84 75.584C260.93 75.6672 260.976 75.7366 260.976 75.792C260.976 75.8544 260.955 75.9064 260.913 75.948C260.878 75.9827 260.83 76 260.768 76H260.601C260.497 76 260.421 75.9931 260.372 75.9792C260.331 75.9584 260.261 75.9064 260.164 75.8232L257.554 73.504V75.7712C257.554 75.8406 257.533 75.896 257.492 75.9376C257.45 75.9792 257.394 76 257.325 76H257.148Z" fill="white"/>
<path d="M102.525 58.8222C102.269 58.8222 102.052 58.7341 101.874 58.5578C101.695 58.3815 101.606 58.1674 101.606 57.9156V40.0844C101.606 39.8326 101.695 39.6185 101.874 39.4422C102.052 39.2659 102.269 39.1778 102.525 39.1778H105.664C105.919 39.1778 106.136 39.2659 106.315 39.4422C106.494 39.6185 106.583 39.8326 106.583 40.0844V41.6333C107.247 40.8274 108.089 40.16 109.11 39.6311C110.157 39.077 111.446 38.8 112.977 38.8C114.534 38.8 115.887 39.1526 117.036 39.8578C118.184 40.5378 119.065 41.5074 119.678 42.7667C120.316 44.0259 120.635 45.537 120.635 47.3V57.9156C120.635 58.1674 120.545 58.3815 120.367 58.5578C120.188 58.7341 119.971 58.8222 119.716 58.8222H116.347C116.091 58.8222 115.874 58.7341 115.696 58.5578C115.517 58.3815 115.428 58.1674 115.428 57.9156V47.5267C115.428 46.0659 115.058 44.92 114.317 44.0889C113.603 43.2578 112.556 42.8422 111.178 42.8422C109.85 42.8422 108.791 43.2578 108 44.0889C107.209 44.92 106.813 46.0659 106.813 47.5267V57.9156C106.813 58.1674 106.724 58.3815 106.545 58.5578C106.366 58.7341 106.149 58.8222 105.894 58.8222H102.525Z" fill="white"/>
<path d="M135.675 59.2C132.841 59.2 130.595 58.3941 128.936 56.7822C127.277 55.1704 126.384 52.8785 126.256 49.9067C126.23 49.6548 126.218 49.34 126.218 48.9622C126.218 48.5593 126.23 48.2444 126.256 48.0178C126.358 46.1289 126.792 44.4919 127.558 43.1067C128.349 41.7215 129.434 40.6637 130.812 39.9333C132.191 39.1778 133.811 38.8 135.675 38.8C137.742 38.8 139.478 39.2281 140.882 40.0844C142.286 40.9156 143.345 42.0867 144.06 43.5978C144.775 45.0837 145.132 46.8089 145.132 48.7733V49.5667C145.132 49.8185 145.043 50.0326 144.864 50.2089C144.685 50.3852 144.456 50.4733 144.175 50.4733H131.463C131.463 50.4733 131.463 50.5111 131.463 50.5867C131.463 50.6622 131.463 50.7252 131.463 50.7756C131.489 51.657 131.655 52.4756 131.961 53.2311C132.293 53.9615 132.765 54.5533 133.378 55.0067C134.016 55.46 134.769 55.6867 135.637 55.6867C136.351 55.6867 136.951 55.5859 137.436 55.3844C137.921 55.1578 138.317 54.9059 138.623 54.6289C138.929 54.3519 139.146 54.1252 139.274 53.9489C139.504 53.6467 139.682 53.4704 139.81 53.42C139.963 53.3444 140.18 53.3067 140.461 53.3067H143.754C144.009 53.3067 144.213 53.3822 144.366 53.5333C144.545 53.6844 144.621 53.8733 144.596 54.1C144.57 54.503 144.353 54.9941 143.945 55.5733C143.562 56.1526 143.001 56.7193 142.26 57.2733C141.52 57.8274 140.588 58.2933 139.465 58.6711C138.368 59.0237 137.104 59.2 135.675 59.2ZM131.463 47.3H139.925V47.1867C139.925 46.2044 139.759 45.3481 139.427 44.6178C139.095 43.8874 138.61 43.3081 137.972 42.88C137.334 42.4519 136.568 42.2378 135.675 42.2378C134.781 42.2378 134.016 42.4519 133.378 42.88C132.739 43.3081 132.254 43.8874 131.923 44.6178C131.616 45.3481 131.463 46.2044 131.463 47.1867V47.3Z" fill="white"/>
<path d="M159.719 58.8222C158.187 58.8222 156.898 58.5578 155.852 58.0289C154.805 57.5 154.027 56.7193 153.516 55.6867C153.006 54.6289 152.751 53.3193 152.751 51.7578V43.1822H149.726C149.471 43.1822 149.254 43.0941 149.075 42.9178C148.896 42.7415 148.807 42.5274 148.807 42.2756V40.0844C148.807 39.8326 148.896 39.6185 149.075 39.4422C149.254 39.2659 149.471 39.1778 149.726 39.1778H152.751V36.0152C152.751 35.7634 152.827 35.5493 152.98 35.373C153.159 35.1967 153.389 35.1086 153.67 35.1086H156.771C157.026 35.1086 157.243 35.1967 157.422 35.373C157.6 35.5493 157.69 35.7634 157.69 36.0152V39.1778H162.476C162.731 39.1778 162.948 39.2659 163.127 39.4422C163.305 39.6185 163.395 39.8326 163.395 40.0844V42.2756C163.395 42.5274 163.305 42.7415 163.127 42.9178C162.948 43.0941 162.731 43.1822 162.476 43.1822H157.69V51.38C157.69 52.4126 157.868 53.2185 158.226 53.7978C158.609 54.377 159.26 54.6667 160.178 54.6667H162.82C163.076 54.6667 163.293 54.7548 163.471 54.9311C163.65 55.1074 163.739 55.3215 163.739 55.5733V57.9156C163.739 58.1674 163.65 58.3815 163.471 58.5578C163.293 58.7341 163.076 58.8222 162.82 58.8222H159.719Z" fill="white"/>
<path d="M174.173 58.8222C173.815 58.8222 173.547 58.7341 173.369 58.5578C173.19 58.3815 173.037 58.1548 172.909 57.8778L167.434 40.3489C167.408 40.223 167.396 40.1096 167.396 40.0089C167.396 39.7822 167.472 39.5933 167.625 39.4422C167.804 39.2659 167.996 39.1778 168.2 39.1778H171.033C171.339 39.1778 171.582 39.2659 171.761 39.4422C171.939 39.5933 172.041 39.7444 172.067 39.8956L175.819 52.4L179.801 40.0089C179.852 39.8326 179.967 39.6563 180.146 39.48C180.324 39.2785 180.592 39.1778 180.95 39.1778H182.864C183.221 39.1778 183.489 39.2785 183.668 39.48C183.847 39.6563 183.962 39.8326 184.013 40.0089L187.995 52.4L191.747 39.8956C191.772 39.7444 191.862 39.5933 192.015 39.4422C192.194 39.2659 192.436 39.1778 192.742 39.1778H195.576C195.805 39.1778 195.997 39.2659 196.15 39.4422C196.329 39.5933 196.418 39.7822 196.418 40.0089C196.418 40.1096 196.392 40.223 196.341 40.3489L190.866 57.8778C190.79 58.1548 190.649 58.3815 190.445 58.5578C190.266 58.7341 189.998 58.8222 189.641 58.8222H187.152C186.795 58.8222 186.514 58.7341 186.31 58.5578C186.106 58.3815 185.965 58.1548 185.889 57.8778L181.907 45.94L177.925 57.8778C177.823 58.1548 177.67 58.3815 177.465 58.5578C177.287 58.7341 177.006 58.8222 176.623 58.8222H174.173Z" fill="white"/>
<path d="M209.989 59.2C207.947 59.2 206.224 58.8474 204.82 58.1422C203.442 57.437 202.383 56.4422 201.642 55.1578C200.928 53.8733 200.519 52.3748 200.417 50.6622C200.392 50.2089 200.379 49.6548 200.379 49C200.379 48.3452 200.392 47.7911 200.417 47.3378C200.519 45.6 200.941 44.1015 201.681 42.8422C202.447 41.5578 203.519 40.563 204.897 39.8578C206.301 39.1526 207.998 38.8 209.989 38.8C211.98 38.8 213.665 39.1526 215.043 39.8578C216.447 40.563 217.519 41.5578 218.259 42.8422C219.025 44.1015 219.459 45.6 219.561 47.3378C219.587 47.7911 219.6 48.3452 219.6 49C219.6 49.6548 219.587 50.2089 219.561 50.6622C219.459 52.3748 219.038 53.8733 218.298 55.1578C217.583 56.4422 216.524 57.437 215.12 58.1422C213.741 58.8474 212.031 59.2 209.989 59.2ZM209.989 55.46C211.342 55.46 212.389 55.0444 213.129 54.2133C213.869 53.357 214.278 52.1104 214.354 50.4733C214.38 50.0956 214.392 49.6044 214.392 49C214.392 48.3956 214.38 47.9044 214.354 47.5267C214.278 45.9148 213.869 44.6807 213.129 43.8244C212.389 42.9681 211.342 42.54 209.989 42.54C208.636 42.54 207.59 42.9681 206.85 43.8244C206.109 44.6807 205.701 45.9148 205.624 47.5267C205.599 47.9044 205.586 48.3956 205.586 49C205.586 49.6044 205.599 50.0956 205.624 50.4733C205.701 52.1104 206.109 53.357 206.85 54.2133C207.59 55.0444 208.636 55.46 209.989 55.46Z" fill="white"/>
<path d="M226.361 58.8222C226.105 58.8222 225.888 58.7341 225.71 58.5578C225.531 58.3815 225.442 58.1674 225.442 57.9156V40.1222C225.442 39.8452 225.531 39.6185 225.71 39.4422C225.888 39.2659 226.105 39.1778 226.361 39.1778H229.462C229.717 39.1778 229.934 39.2659 230.113 39.4422C230.317 39.6185 230.419 39.8452 230.419 40.1222V41.6711C231.006 40.8652 231.759 40.2481 232.678 39.82C233.623 39.3919 234.707 39.1778 235.933 39.1778H237.502C237.783 39.1778 238 39.2659 238.153 39.4422C238.332 39.6185 238.421 39.8326 238.421 40.0844V42.8044C238.421 43.0563 238.332 43.2704 238.153 43.4467C238 43.623 237.783 43.7111 237.502 43.7111H234.516C233.291 43.7111 232.334 44.0511 231.644 44.7311C230.981 45.4111 230.649 46.343 230.649 47.5267V57.9156C230.649 58.1674 230.56 58.3815 230.381 58.5578C230.202 58.7341 229.972 58.8222 229.692 58.8222H226.361Z" fill="white"/>
<path d="M243.965 58.8222C243.709 58.8222 243.492 58.7341 243.314 58.5578C243.135 58.3815 243.046 58.1674 243.046 57.9156V32.9067C243.046 32.6548 243.135 32.4407 243.314 32.2644C243.492 32.0881 243.709 32 243.965 32H247.066C247.347 32 247.564 32.0881 247.717 32.2644C247.896 32.4407 247.985 32.6548 247.985 32.9067V45.8267L254.417 39.82C254.647 39.6185 254.851 39.4674 255.03 39.3667C255.209 39.2407 255.477 39.1778 255.834 39.1778H259.395C259.65 39.1778 259.854 39.2533 260.007 39.4044C260.161 39.5556 260.237 39.757 260.237 40.0089C260.237 40.1096 260.212 40.223 260.161 40.3489C260.109 40.4748 260.007 40.5881 259.854 40.6889L251.967 47.98L260.811 57.3489C261.067 57.6007 261.194 57.8148 261.194 57.9911C261.194 58.243 261.105 58.4444 260.926 58.5956C260.773 58.7467 260.582 58.8222 260.352 58.8222H256.715C256.332 58.8222 256.051 58.7719 255.872 58.6711C255.719 58.5452 255.528 58.3815 255.298 58.18L247.985 50.5867V57.9156C247.985 58.1674 247.896 58.3815 247.717 58.5578C247.564 58.7341 247.347 58.8222 247.066 58.8222H243.965Z" fill="white"/>
<path d="M109.721 27.6128C108.054 27.6128 106.606 27.2459 105.376 26.5121C104.174 25.7512 103.245 24.6913 102.589 23.3325C101.934 21.9465 101.606 20.316 101.606 18.4408V6.98602C101.606 6.71426 101.701 6.48326 101.893 6.29303C102.084 6.1028 102.316 6.00768 102.589 6.00768H106.196C106.497 6.00768 106.729 6.1028 106.893 6.29303C107.084 6.48326 107.18 6.71426 107.18 6.98602V18.1962C107.18 21.5661 108.669 23.251 111.647 23.251C113.068 23.251 114.188 22.8026 115.008 21.9058C115.855 21.009 116.278 19.7724 116.278 18.1962V6.98602C116.278 6.71426 116.374 6.48326 116.565 6.29303C116.757 6.1028 116.989 6.00768 117.262 6.00768H120.869C121.142 6.00768 121.374 6.1028 121.565 6.29303C121.757 6.48326 121.852 6.71426 121.852 6.98602V26.2268C121.852 26.4986 121.757 26.7295 121.565 26.9198C121.374 27.11 121.142 27.2051 120.869 27.2051H117.549C117.248 27.2051 117.002 27.11 116.811 26.9198C116.647 26.7295 116.565 26.4986 116.565 26.2268V24.5555C115.828 25.5066 114.912 26.254 113.819 26.7975C112.726 27.341 111.36 27.6128 109.721 27.6128Z" fill="white"/>
<path d="M135.34 27.6128C133.701 27.6128 132.294 27.4225 131.119 27.0421C129.971 26.6616 129.029 26.186 128.291 25.6153C127.553 25.0446 127.007 24.4739 126.651 23.9032C126.296 23.3325 126.105 22.8569 126.078 22.4765C126.05 22.1775 126.132 21.9465 126.324 21.7835C126.542 21.5932 126.774 21.4981 127.02 21.4981H130.258C130.367 21.4981 130.463 21.5117 130.545 21.5389C130.627 21.5661 130.736 21.6476 130.873 21.7835C131.228 22.0824 131.597 22.3949 131.98 22.7211C132.389 23.0472 132.868 23.3325 133.414 23.5771C133.961 23.7945 134.644 23.9032 135.463 23.9032C136.529 23.9032 137.417 23.6994 138.127 23.2918C138.865 22.8569 139.234 22.2455 139.234 21.4574C139.234 20.8867 139.07 20.4247 138.742 20.0714C138.442 19.7181 137.868 19.4056 137.021 19.1338C136.174 18.8349 134.971 18.5223 133.414 18.1962C131.884 17.8429 130.613 17.3945 129.602 16.851C128.591 16.3075 127.84 15.6281 127.348 14.8128C126.856 13.9975 126.611 13.0463 126.611 11.9593C126.611 10.8994 126.925 9.89388 127.553 8.94271C128.209 7.96437 129.165 7.16267 130.422 6.53762C131.706 5.91256 133.291 5.60004 135.176 5.60004C136.652 5.60004 137.936 5.79027 139.029 6.17074C140.122 6.52403 141.024 6.97244 141.734 7.51596C142.472 8.05948 143.032 8.6166 143.414 9.1873C143.797 9.73082 144.002 10.2064 144.029 10.614C144.057 10.913 143.975 11.1576 143.783 11.3478C143.592 11.5109 143.373 11.5924 143.128 11.5924H140.095C139.958 11.5924 139.835 11.5652 139.726 11.5109C139.616 11.4565 139.507 11.3886 139.398 11.307C139.097 11.0353 138.769 10.7499 138.414 10.451C138.059 10.1521 137.622 9.89388 137.103 9.67647C136.611 9.43188 135.955 9.30959 135.135 9.30959C134.097 9.30959 133.305 9.54059 132.758 10.0026C132.212 10.4374 131.939 10.9945 131.939 11.6739C131.939 12.1359 132.062 12.5436 132.307 12.8969C132.581 13.223 133.113 13.5355 133.906 13.8344C134.698 14.1334 135.9 14.4459 137.513 14.772C139.343 15.0981 140.791 15.5873 141.857 16.2395C142.95 16.8646 143.715 17.5983 144.152 18.4408C144.617 19.2561 144.849 20.1665 144.849 21.172C144.849 22.3949 144.48 23.4956 143.742 24.4739C143.032 25.4523 141.966 26.2268 140.545 26.7975C139.152 27.341 137.417 27.6128 135.34 27.6128Z" fill="white"/>
<path d="M173.318 27.2051C173.044 27.2051 172.812 27.11 172.621 26.9198C172.43 26.7295 172.334 26.4986 172.334 26.2268V7.02679C172.334 6.72785 172.43 6.48326 172.621 6.29303C172.812 6.1028 173.044 6.00768 173.318 6.00768H176.637C176.911 6.00768 177.143 6.1028 177.334 6.29303C177.553 6.48326 177.662 6.72785 177.662 7.02679V8.69813C178.29 7.82849 179.097 7.16267 180.08 6.70067C181.091 6.23868 182.252 6.00768 183.564 6.00768H185.244C185.545 6.00768 185.777 6.1028 185.941 6.29303C186.132 6.48326 186.228 6.71426 186.228 6.98602V9.92106C186.228 10.1928 186.132 10.4238 185.941 10.614C185.777 10.8043 185.545 10.8994 185.244 10.8994H182.047C180.736 10.8994 179.711 11.2663 178.974 12C178.263 12.7338 177.908 13.7393 177.908 15.0166V26.2268C177.908 26.4986 177.812 26.7295 177.621 26.9198C177.43 27.11 177.184 27.2051 176.883 27.2051H173.318Z" fill="white"/>
<path d="M157.755 28C156.239 28 154.937 27.8166 153.851 27.4497C152.765 27.0828 151.874 26.6141 151.177 26.0434C150.48 25.4727 149.958 24.851 149.609 24.1784C149.261 23.4854 149.077 22.823 149.056 22.1911C149.056 22.0077 149.118 21.8548 149.241 21.7325C149.363 21.6102 149.517 21.5491 149.702 21.5491H153.083C153.308 21.5491 153.493 21.6 153.636 21.7019C153.78 21.7835 153.913 21.9363 154.036 22.1605C154.2 22.6293 154.466 23.0064 154.835 23.2918C155.204 23.5771 155.634 23.7809 156.126 23.9032C156.638 24.0051 157.181 24.0561 157.755 24.0561C158.903 24.0561 159.804 23.7911 160.46 23.2612C161.116 22.7312 161.444 21.9873 161.444 21.0293C161.444 20.051 161.136 19.3478 160.522 18.9198C159.907 18.4918 159.036 18.2777 157.909 18.2777H154.62C154.415 18.2777 154.241 18.2064 154.097 18.0637C153.954 17.9211 153.882 17.7478 153.882 17.544V16.0459C153.882 15.8013 153.923 15.5975 154.005 15.4344C154.108 15.2714 154.21 15.1491 154.312 15.0676L159.6 10.237H150.931C150.706 10.237 150.521 10.1656 150.378 10.023C150.234 9.88029 150.163 9.70704 150.163 9.50322V7.05736C150.163 6.83316 150.234 6.64972 150.378 6.50705C150.521 6.36437 150.706 6.29303 150.931 6.29303H164.579C164.805 6.29303 164.989 6.36437 165.133 6.50705C165.276 6.64972 165.348 6.83316 165.348 7.05736V9.25863C165.348 9.48284 165.307 9.67647 165.225 9.83953C165.143 9.9822 165.04 10.0943 164.917 10.1758L159.907 15.0981L160.214 15.1287C161.423 15.251 162.499 15.5465 163.442 16.0153C164.385 16.4841 165.122 17.1567 165.655 18.0332C166.208 18.8892 166.485 19.9797 166.485 21.3045C166.485 22.6905 166.106 23.8828 165.348 24.8816C164.589 25.8803 163.555 26.6548 162.243 27.2051C160.932 27.7351 159.436 28 157.755 28Z" fill="white"/>
</svg>
