<svg width="160" height="62" viewBox="0 0 160 62" fill="none" xmlns="http://www.w3.org/2000/svg">
<path d="M10 0C4.47715 0 0 4.47715 0 10V52C0 57.5228 4.47715 62 10 62H160V58H10C6.68629 58 4 55.3137 4 52V10C4 6.68629 6.68629 4 10 4H150C153.314 4 156 6.68629 156 10V29H160V10C160 4.47715 155.523 0 150 0H10Z" fill="white"/>
<path d="M66.678 48.56C64.118 48.56 61.9207 48.2613 60.086 47.664C58.294 47.0667 56.822 46.32 55.67 45.424C54.518 44.528 53.6647 43.632 53.11 42.736C52.5553 41.84 52.2567 41.0933 52.214 40.496C52.1713 40.0267 52.2993 39.664 52.598 39.408C52.9393 39.1093 53.302 38.96 53.686 38.96H58.742C58.9127 38.96 59.062 38.9813 59.19 39.024C59.318 39.0667 59.4887 39.1947 59.702 39.408C60.2567 39.8773 60.8327 40.368 61.43 40.88C62.07 41.392 62.8167 41.84 63.67 42.224C64.5233 42.5653 65.59 42.736 66.87 42.736C68.534 42.736 69.9207 42.416 71.03 41.776C72.182 41.0933 72.758 40.1333 72.758 38.896C72.758 38 72.502 37.2747 71.99 36.72C71.5207 36.1653 70.6247 35.6747 69.302 35.248C67.9793 34.7787 66.102 34.288 63.67 33.776C61.2807 33.2213 59.2967 32.5173 57.718 31.664C56.1393 30.8107 54.966 29.744 54.198 28.464C53.43 27.184 53.046 25.6907 53.046 23.984C53.046 22.32 53.5367 20.7413 54.518 19.248C55.542 17.712 57.0353 16.4533 58.998 15.472C61.0033 14.4907 63.478 14 66.422 14C68.726 14 70.7313 14.2987 72.438 14.896C74.1447 15.4507 75.5527 16.1547 76.662 17.008C77.814 17.8613 78.6887 18.736 79.286 19.632C79.8833 20.4853 80.2033 21.232 80.246 21.872C80.2887 22.3413 80.1607 22.7253 79.862 23.024C79.5633 23.28 79.222 23.408 78.838 23.408H74.102C73.8887 23.408 73.6967 23.3653 73.526 23.28C73.3553 23.1947 73.1847 23.088 73.014 22.96C72.5447 22.5333 72.0327 22.0853 71.478 21.616C70.9233 21.1467 70.2407 20.7413 69.43 20.4C68.662 20.016 67.638 19.824 66.358 19.824C64.7367 19.824 63.4993 20.1867 62.646 20.912C61.7927 21.5947 61.366 22.4693 61.366 23.536C61.366 24.2613 61.558 24.9013 61.942 25.456C62.3687 25.968 63.2007 26.4587 64.438 26.928C65.6753 27.3973 67.5527 27.888 70.07 28.4C72.9287 28.912 75.19 29.68 76.854 30.704C78.5607 31.6853 79.7553 32.8373 80.438 34.16C81.1633 35.44 81.526 36.8693 81.526 38.448C81.526 40.368 80.95 42.096 79.798 43.632C78.6887 45.168 77.0247 46.384 74.806 47.28C72.63 48.1333 69.9207 48.56 66.678 48.56Z" fill="white"/>
<path d="M26.672 48.56C24.0693 48.56 21.808 47.984 19.888 46.832C18.0107 45.6373 16.56 43.9733 15.536 41.84C14.512 39.664 14 37.104 14 34.16V16.176C14 15.7493 14.1493 15.3867 14.448 15.088C14.7467 14.7893 15.1093 14.64 15.536 14.64H21.168C21.6373 14.64 22 14.7893 22.256 15.088C22.5547 15.3867 22.704 15.7493 22.704 16.176V33.776C22.704 39.0667 25.0293 41.712 29.68 41.712C31.8987 41.712 33.648 41.008 34.928 39.6C36.2507 38.192 36.912 36.2507 36.912 33.776V16.176C36.912 15.7493 37.0613 15.3867 37.36 15.088C37.6587 14.7893 38.0213 14.64 38.448 14.64H44.08C44.5067 14.64 44.8693 14.7893 45.168 15.088C45.4667 15.3867 45.616 15.7493 45.616 16.176V46.384C45.616 46.8107 45.4667 47.1733 45.168 47.472C44.8693 47.7707 44.5067 47.92 44.08 47.92H38.896C38.4267 47.92 38.0427 47.7707 37.744 47.472C37.488 47.1733 37.36 46.8107 37.36 46.384V43.76C36.208 45.2533 34.7787 46.4267 33.072 47.28C31.3653 48.1333 29.232 48.56 26.672 48.56Z" fill="white"/>
<path d="M124.893 47.472C125.192 47.7707 125.554 47.92 125.981 47.92H131.549C132.018 47.92 132.402 47.7707 132.701 47.472C133 47.1733 133.149 46.8107 133.149 46.384V28.784C133.149 26.7787 133.704 25.2 134.813 24.048C135.965 22.896 137.565 22.32 139.613 22.32H144.605C145.074 22.32 145.437 22.1707 145.693 21.872C145.992 21.5733 146.141 21.2107 146.141 20.784V16.176C146.141 15.7493 145.992 15.3867 145.693 15.088C145.437 14.7893 145.074 14.64 144.605 14.64H141.981C139.933 14.64 138.12 15.0027 136.541 15.728C135.005 16.4533 133.746 17.4987 132.765 18.864V16.24C132.765 15.7707 132.594 15.3867 132.253 15.088C131.954 14.7893 131.592 14.64 131.165 14.64H125.981C125.554 14.64 125.192 14.7893 124.893 15.088C124.594 15.3867 124.445 15.7707 124.445 16.24V46.384C124.445 46.8107 124.594 47.1733 124.893 47.472Z" fill="white"/>
<path d="M151.536 47.92C151.109 47.92 150.747 47.7707 150.448 47.472C150.149 47.1733 150 46.8107 150 46.384V40.048C150 39.5787 150.149 39.1947 150.448 38.896C150.747 38.5973 151.109 38.448 151.536 38.448H157.936C158.363 38.448 158.725 38.5973 159.024 38.896C159.323 39.1947 159.472 39.5787 159.472 40.048V46.384C159.472 46.8107 159.323 47.1733 159.024 47.472C158.725 47.7707 158.363 47.92 157.936 47.92H151.536Z" fill="white"/>
<path d="M95.5837 48.304C97.2797 48.88 99.3117 49.168 101.68 49.168C104.304 49.168 106.64 48.752 108.688 47.92C110.736 47.056 112.352 45.84 113.536 44.272C114.72 42.704 115.312 40.832 115.312 38.656C115.312 36.576 114.88 34.864 114.016 33.52C113.184 32.144 112.032 31.088 110.56 30.352C109.088 29.616 107.408 29.152 105.52 28.96L105.04 28.912L112.864 21.184C113.056 21.056 113.216 20.88 113.344 20.656C113.472 20.4 113.536 20.096 113.536 19.744V16.288C113.536 15.936 113.424 15.648 113.2 15.424C112.976 15.2 112.688 15.088 112.336 15.088H91.0237C90.6717 15.088 90.3837 15.2 90.1597 15.424C89.9357 15.648 89.8237 15.936 89.8237 16.288V20.128C89.8237 20.448 89.9357 20.72 90.1597 20.944C90.3837 21.168 90.6717 21.28 91.0237 21.28H104.56L96.3037 28.864C96.1437 28.992 95.9837 29.184 95.8237 29.44C95.6957 29.696 95.6317 30.016 95.6317 30.4V32.752C95.6317 33.072 95.7437 33.344 95.9677 33.568C96.1917 33.792 96.4637 33.904 96.7837 33.904H101.92C103.68 33.904 105.04 34.24 106 34.912C106.96 35.584 107.44 36.688 107.44 38.224C107.44 39.728 106.928 40.896 105.904 41.728C104.88 42.56 103.472 42.976 101.68 42.976C100.784 42.976 99.9357 42.896 99.1357 42.736C98.3677 42.544 97.6957 42.224 97.1197 41.776C96.5437 41.328 96.1277 40.736 95.8717 40C95.6797 39.648 95.4717 39.408 95.2477 39.28C95.0237 39.12 94.7357 39.04 94.3837 39.04H89.1037C88.8157 39.04 88.5757 39.136 88.3837 39.328C88.1917 39.52 88.0957 39.76 88.0957 40.048C88.1277 41.04 88.4157 42.08 88.9597 43.168C89.5037 44.224 90.3197 45.2 91.4077 46.096C92.4957 46.992 93.8877 47.728 95.5837 48.304Z" fill="white"/>
</svg>
