<svg width="146" height="40" viewBox="0 0 146 40" fill="none" xmlns="http://www.w3.org/2000/svg">
<path fill-rule="evenodd" clip-rule="evenodd" d="M67.6199 16.8013C68.3213 17.0284 69.1614 17.142 70.1401 17.142C71.3799 17.142 72.4157 16.9797 73.2477 16.6552C74.0959 16.3145 74.7321 15.8521 75.1563 15.268C75.5967 14.6839 75.8169 14.0268 75.8169 13.2967C75.8169 12.6964 75.6783 12.1529 75.4009 11.6662C75.1399 11.1632 74.6832 10.7251 74.0307 10.352C73.3945 9.96256 72.5299 9.67052 71.437 9.47582C70.4746 9.28113 69.7568 9.09454 69.2837 8.91607C68.8107 8.7376 68.4926 8.55102 68.3295 8.35632C68.1826 8.1454 68.1092 7.90203 68.1092 7.62621C68.1092 7.22059 68.2724 6.88799 68.5986 6.62839C68.9249 6.35258 69.3979 6.21467 70.0178 6.21467C70.5072 6.21467 70.8987 6.28768 71.1923 6.4337C71.5022 6.5635 71.7632 6.71763 71.9753 6.8961C72.1874 7.07457 72.3831 7.24493 72.5626 7.40718C72.6278 7.45585 72.6931 7.49641 72.7583 7.52886C72.8236 7.56131 72.897 7.57754 72.9785 7.57754H74.7892C74.936 7.57754 75.0665 7.52886 75.1807 7.43151C75.2949 7.31794 75.3438 7.17192 75.3275 6.99345C75.3112 6.75008 75.1889 6.46615 74.9605 6.14165C74.7321 5.80094 74.3977 5.46833 73.9573 5.14384C73.5332 4.81935 72.9948 4.55164 72.3423 4.34072C71.6898 4.11357 70.9231 4 70.0423 4C68.9167 4 67.9706 4.18658 67.2039 4.55975C66.4535 4.93292 65.8826 5.41155 65.4911 5.99563C65.1159 6.5635 64.9283 7.16381 64.9283 7.79657C64.9283 8.44556 65.0751 9.01342 65.3687 9.50016C65.6623 9.9869 66.1109 10.3925 66.7145 10.717C67.3181 11.0415 68.0766 11.3092 68.9901 11.5201C69.9199 11.7148 70.6377 11.9014 71.1434 12.0799C71.6491 12.2421 71.9916 12.4287 72.1711 12.6396C72.3668 12.8506 72.4647 13.1264 72.4647 13.4671C72.4647 13.9376 72.2445 14.3027 71.804 14.5623C71.3799 14.8056 70.8497 14.9273 70.2136 14.9273C69.7242 14.9273 69.3164 14.8624 68.9901 14.7326C68.6639 14.5866 68.3784 14.4162 68.1337 14.2215C67.9053 14.0268 67.6851 13.8403 67.473 13.6618C67.3915 13.5807 67.3262 13.532 67.2773 13.5158C67.2284 13.4995 67.1713 13.4914 67.106 13.4914H65.173C65.0262 13.4914 64.8875 13.5482 64.757 13.6618C64.6428 13.7591 64.5939 13.897 64.6102 14.0755C64.6265 14.3027 64.7407 14.5866 64.9528 14.9273C65.1648 15.268 65.4911 15.6087 65.9315 15.9495C66.3719 16.2902 66.9347 16.5741 67.6199 16.8013ZM52.2511 16.4849C52.9852 16.9229 53.8498 17.142 54.8448 17.142C55.8236 17.142 56.6392 16.9797 57.2917 16.6552C57.9442 16.3307 58.4907 15.8846 58.9311 15.3167V16.3145C58.9311 16.4768 58.9801 16.6147 59.0779 16.7282C59.1921 16.8418 59.3389 16.8986 59.5184 16.8986H61.5004C61.6635 16.8986 61.8021 16.8418 61.9163 16.7282C62.0305 16.6147 62.0876 16.4768 62.0876 16.3145V4.82746C62.0876 4.66521 62.0305 4.5273 61.9163 4.41373C61.8021 4.30016 61.6635 4.24337 61.5004 4.24337H59.3471C59.184 4.24337 59.0453 4.30016 58.9311 4.41373C58.8169 4.5273 58.7598 4.66521 58.7598 4.82746V11.5201C58.7598 12.4612 58.507 13.1994 58.0013 13.7348C57.5119 14.2702 56.8431 14.5379 55.9949 14.5379C54.2168 14.5379 53.3278 13.532 53.3278 11.5201V4.82746C53.3278 4.66521 53.2707 4.5273 53.1565 4.41373C53.0586 4.30016 52.9199 4.24337 52.7405 4.24337H50.5873C50.4241 4.24337 50.2855 4.30016 50.1713 4.41373C50.0571 4.5273 50 4.66521 50 4.82746V11.6662C50 12.7857 50.1958 13.7591 50.5873 14.5866C50.9788 15.3978 51.5334 16.0306 52.2511 16.4849ZM92.8132 16.8986C92.6501 16.8986 92.5114 16.8418 92.3972 16.7282C92.283 16.6147 92.2259 16.4768 92.2259 16.3145V4.85179C92.2259 4.67332 92.283 4.5273 92.3972 4.41373C92.5114 4.30016 92.6501 4.24337 92.8132 4.24337H94.7952C94.9583 4.24337 95.097 4.30016 95.2111 4.41373C95.3416 4.5273 95.4069 4.67332 95.4069 4.85179V5.84961C95.7821 5.33042 96.2633 4.93292 96.8506 4.6571C97.4541 4.38128 98.1474 4.24337 98.9304 4.24337H99.9336C100.113 4.24337 100.252 4.30016 100.35 4.41373C100.464 4.5273 100.521 4.66521 100.521 4.82746V6.57972C100.521 6.74197 100.464 6.87988 100.35 6.99345C100.252 7.10702 100.113 7.16381 99.9336 7.16381H98.0251C97.2421 7.16381 96.6303 7.38284 96.1899 7.82091C95.7658 8.25897 95.5537 8.85929 95.5537 9.62184V16.3145C95.5537 16.4768 95.4966 16.6147 95.3824 16.7282C95.2682 16.8418 95.1214 16.8986 94.942 16.8986H92.8132ZM81.1915 17.0446C81.84 17.2637 82.6168 17.3732 83.5222 17.3732C84.5254 17.3732 85.4185 17.215 86.2015 16.8986C86.9845 16.5701 87.6024 16.1077 88.055 15.5114C88.5077 14.9151 88.7341 14.2033 88.7341 13.3758C88.7341 12.5849 88.5689 11.9339 88.2386 11.4228C87.9205 10.8995 87.48 10.498 86.9172 10.2181C86.3545 9.93822 85.7122 9.76178 84.9903 9.68877L84.8068 9.67052L87.7981 6.73183C87.8715 6.68315 87.9327 6.61623 87.9816 6.53105C88.0306 6.4337 88.055 6.3181 88.055 6.18424V4.87005C88.055 4.73619 88.0122 4.62668 87.9266 4.5415C87.8409 4.45632 87.7308 4.41373 87.5963 4.41373H79.4481C79.3135 4.41373 79.2034 4.45632 79.1178 4.5415C79.0322 4.62668 78.9893 4.73619 78.9893 4.87005V6.33027C78.9893 6.45195 79.0322 6.55538 79.1178 6.64056C79.2034 6.72574 79.3135 6.76833 79.4481 6.76833H84.6233L81.4668 9.65227C81.4056 9.70094 81.3445 9.77395 81.2833 9.8713C81.2344 9.96865 81.2099 10.0903 81.2099 10.2364V11.1307C81.2099 11.2524 81.2527 11.3559 81.3383 11.441C81.424 11.5262 81.528 11.5688 81.6503 11.5688H83.6139C84.2868 11.5688 84.8068 11.6966 85.1738 11.9521C85.5409 12.2077 85.7244 12.6275 85.7244 13.2116C85.7244 13.7835 85.5286 14.2276 85.1371 14.544C84.7456 14.8604 84.2073 15.0186 83.5222 15.0186C83.1796 15.0186 82.8554 14.9882 82.5496 14.9273C82.2559 14.8543 81.999 14.7326 81.7788 14.5623C81.5586 14.3919 81.3995 14.1668 81.3016 13.8869C81.2282 13.753 81.1487 13.6618 81.0631 13.6131C80.9774 13.5523 80.8673 13.5218 80.7327 13.5218H78.7141C78.604 13.5218 78.5122 13.5584 78.4388 13.6314C78.3654 13.7044 78.3287 13.7956 78.3287 13.9052C78.3409 14.2824 78.451 14.6779 78.659 15.0916C78.867 15.4931 79.179 15.8643 79.5949 16.205C80.0109 16.5457 80.5431 16.8256 81.1915 17.0446ZM134.602 35.6166C134.709 35.7218 134.838 35.7744 134.991 35.7744H136.842C137.01 35.7744 137.139 35.7218 137.231 35.6166C137.337 35.5113 137.391 35.3835 137.391 35.2332V30.8577L141.757 35.391C141.894 35.5113 142.008 35.6091 142.1 35.6842C142.206 35.7444 142.374 35.7744 142.603 35.7744H144.774C144.911 35.7744 145.026 35.7293 145.117 35.6391C145.224 35.5489 145.277 35.4286 145.277 35.2783C145.277 35.173 145.201 35.0452 145.048 34.8948L139.768 29.3015L144.477 24.9485C144.568 24.8884 144.629 24.8207 144.66 24.7456C144.69 24.6704 144.706 24.6027 144.706 24.5426C144.706 24.3922 144.66 24.2719 144.568 24.1817C144.477 24.0915 144.355 24.0464 144.203 24.0464H142.077C141.864 24.0464 141.703 24.084 141.597 24.1592C141.49 24.2193 141.368 24.3095 141.231 24.4298L137.391 28.0159V20.3024C137.391 20.1521 137.337 20.0243 137.231 19.919C137.139 19.8138 137.01 19.7611 136.842 19.7611H134.991C134.838 19.7611 134.709 19.8138 134.602 19.919C134.495 20.0243 134.442 20.1521 134.442 20.3024V35.2332C134.442 35.3835 134.495 35.5113 134.602 35.6166ZM82.3859 35.3008C83.0107 35.6166 83.7803 35.7744 84.6946 35.7744H86.5462C86.6985 35.7744 86.8281 35.7218 86.9348 35.6166C87.0414 35.5113 87.0948 35.3835 87.0948 35.2332V33.8348C87.0948 33.6844 87.0414 33.5566 86.9348 33.4514C86.8281 33.3461 86.6985 33.2935 86.5462 33.2935H84.9689C84.4203 33.2935 84.0317 33.1206 83.8031 32.7748C83.5898 32.4289 83.4831 31.9478 83.4831 31.3313V26.4371H86.3404C86.4928 26.4371 86.6224 26.3845 86.729 26.2792C86.8357 26.174 86.889 26.0462 86.889 25.8958V24.5877C86.889 24.4373 86.8357 24.3095 86.729 24.2043C86.6224 24.099 86.4928 24.0464 86.3404 24.0464H83.4831V22.1583C83.4831 22.0079 83.4298 21.8801 83.3231 21.7749C83.2164 21.6696 83.0869 21.617 82.9345 21.617H81.083C80.9153 21.617 80.7782 21.6696 80.6715 21.7749C80.5801 21.8801 80.5344 22.0079 80.5344 22.1583V24.0464H78.7285C78.5761 24.0464 78.4466 24.099 78.3399 24.2043C78.2333 24.3095 78.1799 24.4373 78.1799 24.5877V25.8958C78.1799 26.0462 78.2333 26.174 78.3399 26.2792C78.4466 26.3845 78.5761 26.4371 78.7285 26.4371H80.5344V31.5569C80.5344 32.4891 80.6867 33.271 80.9915 33.9025C81.2963 34.5189 81.7611 34.9851 82.3859 35.3008ZM50.5486 35.7744C50.3962 35.7744 50.2667 35.7218 50.16 35.6166C50.0533 35.5113 50 35.3835 50 35.2332V24.5877C50 24.4373 50.0533 24.3095 50.16 24.2043C50.2667 24.099 50.3962 24.0464 50.5486 24.0464H52.423C52.5754 24.0464 52.7049 24.099 52.8116 24.2043C52.9183 24.3095 52.9716 24.4373 52.9716 24.5877V25.5124C53.3678 25.0312 53.8707 24.6328 54.4803 24.317C55.1051 23.9862 55.8746 23.8208 56.789 23.8208C57.7186 23.8208 58.5262 24.0314 59.212 24.4524C59.8978 24.8583 60.4235 25.4372 60.7892 26.189C61.1702 26.9408 61.3607 27.843 61.3607 28.8955V35.2332C61.3607 35.3835 61.3074 35.5113 61.2007 35.6166C61.094 35.7218 60.9645 35.7744 60.8121 35.7744H58.8005C58.6482 35.7744 58.5186 35.7218 58.4119 35.6166C58.3053 35.5113 58.2519 35.3835 58.2519 35.2332V29.0308C58.2519 28.1587 58.031 27.4746 57.589 26.9784C57.1623 26.4822 56.5375 26.2341 55.7146 26.2341C54.9222 26.2341 54.2898 26.4822 53.8174 26.9784C53.345 27.4746 53.1088 28.1587 53.1088 29.0308V35.2332C53.1088 35.3835 53.0554 35.5113 52.9488 35.6166C52.8421 35.7218 52.7125 35.7744 52.5602 35.7744H50.5486ZM70.3398 36C68.6483 36 67.3072 35.5188 66.3167 34.5565C65.3262 33.5942 64.7928 32.226 64.7166 30.4517C64.7014 30.3014 64.6937 30.1134 64.6937 29.8879C64.6937 29.6473 64.7014 29.4593 64.7166 29.324C64.7776 28.1963 65.0366 27.219 65.4938 26.392C65.9662 25.565 66.6139 24.9335 67.4368 24.4975C68.2597 24.0464 69.2274 23.8208 70.3398 23.8208C71.5742 23.8208 72.6104 24.0765 73.4486 24.5877C74.2867 25.0839 74.9191 25.783 75.3458 26.6852C75.7725 27.5723 75.9859 28.6023 75.9859 29.7751V30.2487C75.9859 30.3991 75.9325 30.5269 75.8259 30.6321C75.7192 30.7374 75.582 30.79 75.4144 30.79H67.8254V30.8577V30.9705C67.8406 31.4967 67.9397 31.9854 68.1225 32.4365C68.3206 32.8725 68.6026 33.2259 68.9683 33.4965C69.3493 33.7671 69.7988 33.9025 70.317 33.9025C70.7436 33.9025 71.1018 33.8423 71.3913 33.722C71.6808 33.5867 71.917 33.4364 72.0999 33.271C72.2828 33.1056 72.4123 32.9702 72.4885 32.865C72.6257 32.6846 72.7323 32.5793 72.8085 32.5492C72.9 32.5041 73.0295 32.4816 73.1971 32.4816H75.163C75.3154 32.4816 75.4373 32.5267 75.5287 32.6169C75.6354 32.7071 75.6811 32.8199 75.6659 32.9552C75.6506 33.1958 75.5211 33.489 75.2773 33.8348C75.0487 34.1806 74.7134 34.5189 74.2715 34.8497C73.8295 35.1805 73.2733 35.4587 72.6028 35.6842C71.9475 35.8947 71.1932 36 70.3398 36ZM67.8254 28.8955H72.8771V28.8278C72.8771 28.2414 72.7781 27.7302 72.5799 27.2942C72.3818 26.8581 72.0923 26.5123 71.7113 26.2567C71.3304 26.0011 70.8732 25.8733 70.3398 25.8733C69.8064 25.8733 69.3493 26.0011 68.9683 26.2567C68.5873 26.5123 68.2978 26.8581 68.0997 27.2942C67.9168 27.7302 67.8254 28.2414 67.8254 28.8278V28.8955ZM93.3237 35.7744C93.1104 35.7744 92.9503 35.7218 92.8437 35.6166C92.737 35.5113 92.6456 35.376 92.5694 35.2106L89.3006 24.7456C89.2854 24.6704 89.2777 24.6027 89.2777 24.5426C89.2777 24.4073 89.3235 24.2945 89.4149 24.2043C89.5216 24.099 89.6359 24.0464 89.7578 24.0464H91.4493C91.6322 24.0464 91.7769 24.099 91.8836 24.2043C91.9903 24.2945 92.0512 24.3847 92.0665 24.4749L94.3066 31.9403L96.6839 24.5426C96.7144 24.4373 96.783 24.3321 96.8896 24.2268C96.9963 24.1065 97.1563 24.0464 97.3697 24.0464H98.5126C98.7259 24.0464 98.886 24.1065 98.9926 24.2268C99.0993 24.3321 99.1679 24.4373 99.1983 24.5426L101.576 31.9403L103.816 24.4749C103.831 24.3847 103.884 24.2945 103.976 24.2043C104.082 24.099 104.227 24.0464 104.41 24.0464H106.102C106.239 24.0464 106.353 24.099 106.445 24.2043C106.551 24.2945 106.605 24.4073 106.605 24.5426C106.605 24.6027 106.589 24.6704 106.559 24.7456L103.29 35.2106C103.244 35.376 103.16 35.5113 103.039 35.6166C102.932 35.7218 102.772 35.7744 102.559 35.7744H101.073C100.859 35.7744 100.692 35.7218 100.57 35.6166C100.448 35.5113 100.364 35.376 100.318 35.2106L97.9411 28.0835L95.5638 35.2106C95.5029 35.376 95.4115 35.5113 95.2895 35.6166C95.1829 35.7218 95.0152 35.7744 94.7866 35.7744H93.3237ZM111.621 35.3685C112.459 35.7895 113.488 36 114.707 36C115.926 36 116.947 35.7895 117.77 35.3685C118.608 34.9475 119.24 34.3535 119.667 33.5867C120.109 32.8199 120.36 31.9252 120.421 30.9028C120.437 30.6321 120.444 30.3014 120.444 29.9104C120.444 29.5195 120.437 29.1887 120.421 28.918C120.36 27.8806 120.101 26.9859 119.644 26.2341C119.202 25.4673 118.562 24.8734 117.724 24.4524C116.901 24.0314 115.895 23.8208 114.707 23.8208C113.518 23.8208 112.505 24.0314 111.667 24.4524C110.844 24.8734 110.204 25.4673 109.746 26.2341C109.305 26.9859 109.053 27.8806 108.992 28.918C108.977 29.1887 108.969 29.5195 108.969 29.9104C108.969 30.3014 108.977 30.6321 108.992 30.9028C109.053 31.9252 109.297 32.8199 109.724 33.5867C110.166 34.3535 110.798 34.9475 111.621 35.3685ZM116.581 33.0229C116.139 33.5191 115.514 33.7671 114.707 33.7671C113.899 33.7671 113.274 33.5191 112.832 33.0229C112.39 32.5116 112.147 31.7674 112.101 30.79C112.086 30.5645 112.078 30.2713 112.078 29.9104C112.078 29.5496 112.086 29.2564 112.101 29.0308C112.147 28.0685 112.39 27.3317 112.832 26.8205C113.274 26.3093 113.899 26.0537 114.707 26.0537C115.514 26.0537 116.139 26.3093 116.581 26.8205C117.023 27.3317 117.267 28.0685 117.313 29.0308C117.328 29.2564 117.336 29.5496 117.336 29.9104C117.336 30.2713 117.328 30.5645 117.313 30.79C117.267 31.7674 117.023 32.5116 116.581 33.0229ZM124.481 35.7744C124.328 35.7744 124.199 35.7218 124.092 35.6166C123.986 35.5113 123.932 35.3835 123.932 35.2332V24.6102C123.932 24.4448 123.986 24.3095 124.092 24.2043C124.199 24.099 124.328 24.0464 124.481 24.0464H126.332C126.485 24.0464 126.614 24.099 126.721 24.2043C126.843 24.3095 126.904 24.4448 126.904 24.6102V25.5349C127.254 25.0538 127.704 24.6854 128.252 24.4298C128.816 24.1742 129.464 24.0464 130.195 24.0464H131.133C131.3 24.0464 131.43 24.099 131.521 24.2043C131.628 24.3095 131.681 24.4373 131.681 24.5877V26.2116C131.681 26.3619 131.628 26.4897 131.521 26.595C131.43 26.7002 131.3 26.7529 131.133 26.7529H129.35C128.618 26.7529 128.047 26.9558 127.635 27.3618C127.239 27.7678 127.041 28.3241 127.041 29.0308V35.2332C127.041 35.3835 126.988 35.5113 126.881 35.6166C126.774 35.7218 126.637 35.7744 126.469 35.7744H124.481Z" fill="white"/>
<path fill-rule="evenodd" clip-rule="evenodd" d="M23.8386 31.9194L23.8386 38.3841C23.8386 38.3841 25.3516 36.5942 27.475 36.5662C29.5984 36.5942 31.1114 38.3841 31.1114 38.3841L31.1114 31.9194C31.1114 31.9194 29.5984 33.3114 27.475 33.3333C25.3516 33.3114 23.8386 31.9194 23.8386 31.9194Z" fill="#939FB2"/>
<path fill-rule="evenodd" clip-rule="evenodd" d="M19.3939 10.1009L25.0505 4.44434C25.0505 4.44434 25.0318 7.87868 27.141 9.98786C28.1239 10.9708 29.5794 12.4441 30.8535 13.7373C32.4697 15.3534 33.1315 15.3534 33.1315 15.3534C33.1315 15.3534 33.5354 14.7254 33.5354 12.5756C33.5354 10.4257 31.7172 8.88878 31.7172 8.88878H38.1818C38.1818 8.88878 36.7677 10.4257 36.7677 12.5756C36.7677 14.7254 38.1818 16.1615 38.1818 16.1615L29.8992 19.7979C29.8992 19.7979 30.3362 17.7777 28.081 15.5224C26.2491 13.719 26.1994 13.682 24.6465 12.1024C22.3787 9.79555 19.3939 10.1009 19.3939 10.1009Z" fill="#939FB2"/>
<path fill-rule="evenodd" clip-rule="evenodd" d="M10.1016 35.5557L4.44507 29.8991C4.44507 29.8991 7.87941 29.9178 9.98859 27.8086C10.9715 26.8257 12.4448 25.3702 13.738 24.0961C15.3542 22.4799 15.3542 21.8181 15.3542 21.8181C15.3542 21.8181 14.7261 21.4142 12.5763 21.4142C10.4265 21.4142 8.88951 23.2324 8.88951 23.2324L8.88951 16.7678C8.88951 16.7678 10.4265 18.1819 12.5763 18.1819C14.7261 18.1819 16.1622 16.7678 16.1622 16.7678L19.7986 25.0504C19.7986 25.0504 17.7784 24.6134 15.5232 26.8686C13.7197 28.7005 13.6827 28.7502 12.1031 30.3031C9.79628 32.5709 10.1016 35.5557 10.1016 35.5557Z" fill="#939FB2"/>
<circle cx="5.05051" cy="5.05051" r="5.05051" fill="white"/>
<circle cx="5.05051" cy="20.0002" r="5.05051" fill="white"/>
<circle cx="5.05051" cy="34.9494" r="5.05051" fill="white"/>
<circle cx="20" cy="5.05051" r="5.05051" fill="white"/>
<circle cx="20" cy="20.0002" r="5.05051" fill="white"/>
<circle cx="20" cy="34.9494" r="5.05051" fill="white"/>
<circle cx="34.9496" cy="5.05051" r="5.05051" fill="white"/>
<circle cx="34.9496" cy="20.0002" r="5.05051" fill="white"/>
<circle cx="34.9496" cy="34.9494" r="5.05051" fill="white"/>
</svg>
