<svg width="22" height="21" viewBox="0 0 22 21" fill="none" xmlns="http://www.w3.org/2000/svg">
<path d="M10.3258 20.5C10.0761 20.5 9.86388 20.4251 9.68909 20.2753C9.53928 20.1005 9.46437 19.8883 9.46437 19.6386V11.8483H1.78647C1.53678 11.8483 1.32455 11.7734 1.14977 11.6236C0.999955 11.4488 0.925049 11.2366 0.925049 10.9869V9.78839C0.925049 9.5387 0.999955 9.33895 1.14977 9.18914C1.32455 9.01436 1.53678 8.92697 1.78647 8.92697H9.46437V1.36142C9.46437 1.11174 9.53928 0.911986 9.68909 0.762173C9.86388 0.587391 10.0761 0.5 10.3258 0.5H11.6367C11.8863 0.5 12.0861 0.587391 12.2359 0.762173C12.4107 0.911986 12.4981 1.11174 12.4981 1.36142V8.92697H20.2134C20.4631 8.92697 20.6629 9.01436 20.8127 9.18914C20.9875 9.33895 21.0749 9.5387 21.0749 9.78839V10.9869C21.0749 11.2366 20.9875 11.4488 20.8127 11.6236C20.6629 11.7734 20.4631 11.8483 20.2134 11.8483H12.4981V19.6386C12.4981 19.8883 12.4107 20.1005 12.2359 20.2753C12.0861 20.4251 11.8863 20.5 11.6367 20.5H10.3258Z" fill="white"/>
</svg>
