<svg width="24" height="24" viewBox="0 0 24 24" fill="none" xmlns="http://www.w3.org/2000/svg">
<path fill-rule="evenodd" clip-rule="evenodd" d="M4.77952 2.66667C3.24443 2.66667 2 3.93356 2 5.49635V19.0788C2 20.6416 3.24443 21.9085 4.77952 21.9085H18.5659C20.101 21.9085 21.3454 20.6416 21.3454 19.0788V14.325H20.2336V19.0788C20.2336 20.0165 19.487 20.7766 18.5659 20.7766H4.77952C3.85846 20.7766 3.11181 20.0165 3.11181 19.0788V5.49635C3.11181 4.55868 3.85846 3.79854 4.77952 3.79854H19.9001V2.66667H4.77952ZM20.8874 12.3781C20.4723 12.3781 20.1135 12.3268 19.8111 12.2242C19.5087 12.1216 19.2567 11.9888 19.0551 11.8258C18.8594 11.6568 18.7112 11.4757 18.6104 11.2825C18.5096 11.0833 18.4562 10.8871 18.4503 10.6939C18.4503 10.6396 18.4681 10.5973 18.5036 10.5671C18.5452 10.5309 18.5926 10.5128 18.646 10.5128H19.4465C19.5058 10.5128 19.5562 10.5249 19.5977 10.549C19.6392 10.5732 19.6747 10.6215 19.7044 10.6939C19.7578 10.8569 19.8437 10.9867 19.9623 11.0833C20.0869 11.1799 20.2292 11.2493 20.3893 11.2915C20.5494 11.3278 20.7184 11.3459 20.8963 11.3459C21.252 11.3459 21.5337 11.2614 21.7412 11.0923C21.9547 10.9173 22.0614 10.6698 22.0614 10.3498C22.0614 10.0299 21.9636 9.80048 21.7679 9.66164C21.5722 9.51676 21.2995 9.44432 20.9496 9.44432H20.0335C19.9683 9.44432 19.9149 9.42621 19.8734 9.38999C19.8319 9.34774 19.8111 9.29341 19.8111 9.227V8.84669C19.8111 8.78633 19.823 8.73502 19.8467 8.69276C19.8764 8.64447 19.906 8.60523 19.9357 8.57504L21.5278 6.99042H18.9839C18.9187 6.99042 18.8654 6.96929 18.8238 6.92704C18.7883 6.88478 18.7705 6.83347 18.7705 6.7731V6.17548C18.7705 6.10907 18.7883 6.05474 18.8238 6.01249C18.8654 5.97023 18.9187 5.9491 18.9839 5.9491H22.7997C22.8649 5.9491 22.9183 5.97023 22.9598 6.01249C23.0013 6.05474 23.022 6.10907 23.022 6.17548V6.71877C23.022 6.7731 23.0102 6.8214 22.9865 6.86365C22.9627 6.90591 22.9361 6.94213 22.9064 6.97231L21.3677 8.5841L21.4744 8.59315C21.8361 8.62334 22.1563 8.70785 22.435 8.84669C22.7196 8.9795 22.939 9.17569 23.0932 9.43527C23.2533 9.69484 23.3333 10.0208 23.3333 10.4132C23.3333 10.8237 23.2266 11.1768 23.0131 11.4726C22.8056 11.7624 22.518 11.9858 22.1504 12.1427C21.7827 12.2997 21.3617 12.3781 20.8874 12.3781ZM8.94294 17.5333C9.6902 17.8444 10.6157 18 11.7193 18C12.7195 18 13.5932 17.8611 14.3405 17.5833C15.0992 17.2944 15.6913 16.8833 16.1166 16.35C16.5535 15.8167 16.7719 15.1778 16.7719 14.4333C16.7719 13.7667 16.6225 13.2167 16.3236 12.7833C16.0247 12.3389 15.5591 11.9778 14.9268 11.7C14.2945 11.4222 13.4725 11.1833 12.4608 10.9833C11.8055 10.8167 11.2767 10.6667 10.8743 10.5333C10.4834 10.3889 10.2018 10.2278 10.0293 10.05C9.86839 9.86111 9.78792 9.63333 9.78792 9.36667C9.78792 8.95556 9.94887 8.65 10.2708 8.45C10.6042 8.25 11.0525 8.15 11.6158 8.15C12.1562 8.15 12.593 8.26111 12.9264 8.48333C13.2713 8.69444 13.4782 8.94444 13.5472 9.23333C13.6047 9.34444 13.6794 9.42222 13.7714 9.46667C13.8634 9.51111 13.9668 9.53333 14.0818 9.53333H16.0132C16.1166 9.53333 16.2029 9.5 16.2718 9.43333C16.3408 9.35556 16.3753 9.27222 16.3753 9.18333C16.3638 8.83889 16.2546 8.48333 16.0477 8.11667C15.8407 7.75 15.5361 7.40556 15.1337 7.08333C14.7428 6.76111 14.2485 6.5 13.6507 6.3C13.0644 6.1 12.3861 6 11.6158 6C10.6616 6 9.83965 6.15 9.14987 6.45C8.46009 6.73889 7.92551 7.14444 7.54613 7.66667C7.16676 8.17778 6.97707 8.76667 6.97707 9.43333C6.97707 10.1 7.12652 10.6611 7.42542 11.1167C7.73582 11.5611 8.18993 11.9278 8.78774 12.2167C9.39704 12.4944 10.1328 12.7222 10.995 12.9C11.7078 13.0667 12.2769 13.2222 12.7022 13.3667C13.1391 13.5111 13.4552 13.6722 13.6507 13.85C13.8576 14.0278 13.9611 14.2611 13.9611 14.55C13.9611 14.95 13.7714 15.2667 13.392 15.5C13.0241 15.7333 12.4666 15.85 11.7193 15.85C11.2594 15.85 10.8743 15.7944 10.5639 15.6833C10.2535 15.5611 10.0063 15.4111 9.82241 15.2333C9.64996 15.0556 9.5235 14.8722 9.44303 14.6833C9.37405 14.5944 9.29932 14.5222 9.21885 14.4667C9.13838 14.4 9.02341 14.3667 8.87396 14.3667H7.0288C6.92533 14.3667 6.83911 14.4056 6.77013 14.4833C6.70116 14.55 6.66667 14.6278 6.66667 14.7167C6.68966 15.2833 6.89084 15.8167 7.27022 16.3167C7.6496 16.8167 8.20717 17.2222 8.94294 17.5333Z" fill="#718096"/>
</svg>
