<svg width="61" height="61" viewBox="0 0 61 61" fill="none" xmlns="http://www.w3.org/2000/svg">
<path fill-rule="evenodd" clip-rule="evenodd" d="M12.0237 7.1665C8.18603 7.1665 5.07495 10.3337 5.07495 14.2407V48.1969C5.07495 52.1038 8.18603 55.2711 12.0237 55.2711H46.4897C50.3274 55.2711 53.4385 52.1038 53.4385 48.1969V36.3122H50.659V48.1969C50.659 50.5411 48.7923 52.4414 46.4897 52.4414H12.0237C9.72111 52.4414 7.85447 50.5411 7.85447 48.1969V14.2407C7.85447 11.8965 9.72111 9.99618 12.0237 9.99618H49.8251V7.1665H12.0237ZM52.2934 31.4452C51.2557 31.4452 50.3588 31.3169 49.6028 31.0603C48.8468 30.8038 48.2167 30.4718 47.7127 30.0643C47.2235 29.6417 46.8529 29.189 46.6009 28.706C46.3489 28.208 46.2155 27.7175 46.2007 27.2346C46.2007 27.0988 46.2451 26.9931 46.3341 26.9177C46.4378 26.8271 46.5564 26.7819 46.6898 26.7819H48.6911C48.8393 26.7819 48.9653 26.812 49.0691 26.8724C49.1729 26.9328 49.2618 27.0535 49.3359 27.2346C49.4694 27.6421 49.6843 27.9665 49.9808 28.208C50.2921 28.4495 50.6479 28.623 51.0481 28.7287C51.4484 28.8192 51.8709 28.8645 52.3156 28.8645C53.205 28.8645 53.9092 28.6532 54.428 28.2306C54.9617 27.793 55.2285 27.1742 55.2285 26.3744C55.2285 25.5745 54.9839 25.001 54.4947 24.6539C54.0055 24.2917 53.3236 24.1106 52.449 24.1106H50.1587C49.9956 24.1106 49.8622 24.0654 49.7584 23.9748C49.6547 23.8692 49.6028 23.7333 49.6028 23.5673V22.6166C49.6028 22.4656 49.6324 22.3374 49.6917 22.2317C49.7658 22.111 49.84 22.0129 49.9141 21.9374L53.8943 17.9759H47.5348C47.3718 17.9759 47.2383 17.9231 47.1346 17.8174C47.0456 17.7118 47.0011 17.5835 47.0011 17.4326V15.9385C47.0011 15.7725 47.0456 15.6367 47.1346 15.531C47.2383 15.4254 47.3718 15.3726 47.5348 15.3726H57.0741C57.2372 15.3726 57.3706 15.4254 57.4744 15.531C57.5781 15.6367 57.63 15.7725 57.63 15.9385V17.2968C57.63 17.4326 57.6004 17.5533 57.5411 17.659C57.4818 17.7646 57.4151 17.8551 57.341 17.9306L53.4941 21.9601L53.7609 21.9827C54.6652 22.0582 55.4657 22.2695 56.1624 22.6166C56.874 22.9486 57.4225 23.4391 57.8079 24.088C58.2082 24.7369 58.4083 25.5519 58.4083 26.5328C58.4083 27.5591 58.1414 28.4419 57.6078 29.1814C57.0889 29.9058 56.37 30.4642 55.4509 30.8566C54.5318 31.249 53.4793 31.4452 52.2934 31.4452ZM22.4326 44.3332C24.3008 45.111 26.6144 45.4999 29.3735 45.4999C31.874 45.4999 34.0583 45.1527 35.9264 44.4582C37.8233 43.736 39.3035 42.7082 40.3669 41.3749C41.459 40.0415 42.0051 38.4443 42.0051 36.5832C42.0051 34.9165 41.6315 33.5415 40.8842 32.4582C40.137 31.3471 38.9729 30.4443 37.3922 29.7499C35.8115 29.0554 33.7565 28.4582 31.2273 27.9582C29.5891 27.5415 28.267 27.1665 27.2611 26.8332C26.2839 26.4721 25.5797 26.0693 25.1486 25.6249C24.7463 25.1527 24.5451 24.5832 24.5451 23.9165C24.5451 22.8888 24.9474 22.1249 25.7522 21.6249C26.5857 21.1249 27.7066 20.8749 29.1149 20.8749C30.4657 20.8749 31.5578 21.1527 32.3913 21.7082C33.2535 22.236 33.7709 22.861 33.9433 23.5832C34.087 23.861 34.2738 24.0554 34.5038 24.1665C34.7337 24.2777 34.9923 24.3332 35.2798 24.3332H40.1082C40.3669 24.3332 40.5824 24.2499 40.7549 24.0832C40.9273 23.8888 41.0135 23.6804 41.0135 23.4582C40.9848 22.5971 40.7118 21.7082 40.1944 20.7915C39.6771 19.8749 38.9155 19.0138 37.9095 18.2082C36.9324 17.4027 35.6965 16.7499 34.202 16.2499C32.7362 15.7499 31.0405 15.4999 29.1149 15.4999C26.7294 15.4999 24.6744 15.8749 22.95 16.6249C21.2255 17.3471 19.8891 18.361 18.9406 19.6665C17.9922 20.9443 17.5179 22.4165 17.5179 24.0832C17.5179 25.7499 17.8916 27.1527 18.6388 28.2915C19.4148 29.4027 20.5501 30.3193 22.0446 31.0415C23.5679 31.736 25.4073 32.3054 27.5629 32.7499C29.3448 33.1665 30.7675 33.5554 31.8309 33.9165C32.923 34.2777 33.7134 34.6804 34.202 35.1249C34.7193 35.5693 34.978 36.1527 34.978 36.8749C34.978 37.8749 34.5038 38.6665 33.5553 39.2499C32.6356 39.8332 31.2417 40.1249 29.3735 40.1249C28.2239 40.1249 27.2611 39.986 26.4851 39.7082C25.7091 39.4027 25.0911 39.0277 24.6313 38.5832C24.2002 38.1388 23.884 37.6804 23.6828 37.2082C23.5104 36.986 23.3236 36.8054 23.1224 36.6665C22.9212 36.4999 22.6338 36.4165 22.2602 36.4165H17.6473C17.3886 36.4165 17.1731 36.5138 17.0006 36.7082C16.8282 36.8749 16.7419 37.0693 16.7419 37.2915C16.7994 38.7082 17.3024 40.0415 18.2508 41.2915C19.1993 42.5415 20.5932 43.5554 22.4326 44.3332Z" fill="white"/>
</svg>
