<svg width="61" height="61" viewBox="0 0 61 61" fill="none" xmlns="http://www.w3.org/2000/svg">
<path d="M5.92505 14.2407C5.92505 10.3337 9.03613 7.1665 12.8738 7.1665H50.6752V9.99618H12.8738C10.5712 9.99618 8.70456 11.8965 8.70456 14.2407V48.1969C8.70456 50.5411 10.5712 52.4414 12.8738 52.4414H47.3398C49.6424 52.4414 51.5091 50.5411 51.5091 48.1969V36.3122H54.2886V48.1969C54.2886 52.1038 51.1775 55.2711 47.3398 55.2711H12.8738C9.03613 55.2711 5.92505 52.1038 5.92505 48.1969V14.2407Z" fill="white"/>
<path d="M23.436 15.9385V34.0485C23.436 37.7992 26.4226 40.8397 30.1068 40.8397C33.791 40.8397 36.7777 37.7992 36.7777 34.0485V15.9385H43.4485V34.0485C43.4485 41.5499 37.4752 47.6309 30.1068 47.6309C22.7384 47.6309 16.7652 41.5499 16.7652 34.0485V15.9385H23.436Z" fill="white"/>
<path d="M50.4529 31.0603C51.2089 31.3169 52.1058 31.4452 53.1435 31.4452C54.3294 31.4452 55.3819 31.249 56.301 30.8566C57.2201 30.4642 57.939 29.9058 58.4579 29.1814C58.9915 28.4419 59.2584 27.5591 59.2584 26.5328C59.2584 25.5519 59.0583 24.7369 58.658 24.088C58.2726 23.4391 57.7241 22.9486 57.0125 22.6166C56.3158 22.2695 55.5153 22.0582 54.611 21.9827L54.3442 21.9601L58.1911 17.9306C58.2652 17.8551 58.3319 17.7646 58.3912 17.659C58.4505 17.5533 58.4801 17.4326 58.4801 17.2968V15.9385C58.4801 15.7725 58.4282 15.6367 58.3245 15.531C58.2207 15.4254 58.0873 15.3726 57.9242 15.3726H48.3849C48.2219 15.3726 48.0884 15.4254 47.9847 15.531C47.8957 15.6367 47.8512 15.7725 47.8512 15.9385V17.4326C47.8512 17.5835 47.8957 17.7118 47.9847 17.8174C48.0884 17.9231 48.2219 17.9759 48.3849 17.9759H54.7444L50.7642 21.9374C50.6901 22.0129 50.6159 22.111 50.5418 22.2317C50.4825 22.3374 50.4529 22.4656 50.4529 22.6166V23.5673C50.4529 23.7333 50.5048 23.8692 50.6085 23.9748C50.7123 24.0654 50.8457 24.1106 51.0088 24.1106H53.2991C54.1737 24.1106 54.8556 24.2917 55.3448 24.6539C55.834 25.001 56.0786 25.5745 56.0786 26.3744C56.0786 27.1742 55.8118 27.793 55.2781 28.2306C54.7593 28.6532 54.0551 28.8645 53.1657 28.8645C52.721 28.8645 52.2985 28.8192 51.8982 28.7287C51.498 28.623 51.1422 28.4495 50.8309 28.208C50.5344 27.9665 50.3195 27.6421 50.186 27.2346C50.1119 27.0535 50.023 26.9328 49.9192 26.8724C49.8154 26.812 49.6894 26.7819 49.5412 26.7819H47.5399C47.4065 26.7819 47.2879 26.8271 47.1842 26.9177C47.0952 26.9931 47.0508 27.0988 47.0508 27.2346C47.0656 27.7175 47.199 28.208 47.451 28.706C47.703 29.189 48.0736 29.6417 48.5628 30.0643C49.0668 30.4718 49.6968 30.8038 50.4529 31.0603Z" fill="white"/>
</svg>
