<svg width="25" height="24" viewBox="0 0 25 24" fill="none" xmlns="http://www.w3.org/2000/svg">
<path d="M2.5 5.49635C2.5 3.93356 3.74443 2.66667 5.27952 2.66667H20.4001V3.79854H5.27952C4.35846 3.79854 3.61181 4.55868 3.61181 5.49635V19.0788C3.61181 20.0165 4.35846 20.7766 5.27952 20.7766H19.0659C19.987 20.7766 20.7336 20.0165 20.7336 19.0788V14.325H21.8454V19.0788C21.8454 20.6416 20.601 21.9085 19.0659 21.9085H5.27952C3.74443 21.9085 2.5 20.6416 2.5 19.0788V5.49635Z" fill="#718096"/>
<path d="M9.50438 6.17548V13.4195C9.50438 14.9197 10.699 16.136 12.1727 16.136C13.6464 16.136 14.841 14.9197 14.841 13.4195V6.17548H17.5094V13.4195C17.5094 16.42 15.1201 18.8524 12.1727 18.8524C9.22535 18.8524 6.83604 16.42 6.83604 13.4195V6.17548H9.50438Z" fill="#718096"/>
<path d="M20.3111 12.2242C20.6135 12.3268 20.9723 12.3781 21.3874 12.3781C21.8617 12.3781 22.2827 12.2997 22.6504 12.1427C23.018 11.9858 23.3056 11.7624 23.5131 11.4726C23.7266 11.1768 23.8333 10.8237 23.8333 10.4132C23.8333 10.0208 23.7533 9.69484 23.5932 9.43527C23.439 9.17569 23.2196 8.9795 22.935 8.84669C22.6563 8.70785 22.3361 8.62334 21.9744 8.59315L21.8677 8.5841L23.4064 6.97231C23.4361 6.94213 23.4627 6.90591 23.4865 6.86365C23.5102 6.8214 23.522 6.7731 23.522 6.71877V6.17548C23.522 6.10907 23.5013 6.05474 23.4598 6.01249C23.4183 5.97023 23.3649 5.9491 23.2997 5.9491H19.4839C19.4187 5.9491 19.3654 5.97023 19.3238 6.01249C19.2883 6.05474 19.2705 6.10907 19.2705 6.17548V6.7731C19.2705 6.83347 19.2883 6.88478 19.3238 6.92704C19.3654 6.96929 19.4187 6.99042 19.4839 6.99042H22.0278L20.4357 8.57504C20.406 8.60523 20.3764 8.64447 20.3467 8.69276C20.323 8.73502 20.3111 8.78633 20.3111 8.84669V9.227C20.3111 9.29341 20.3319 9.34774 20.3734 9.38999C20.4149 9.42621 20.4683 9.44432 20.5335 9.44432H21.4496C21.7995 9.44432 22.0722 9.51676 22.2679 9.66164C22.4636 9.80048 22.5614 10.0299 22.5614 10.3498C22.5614 10.6698 22.4547 10.9173 22.2412 11.0923C22.0337 11.2614 21.752 11.3459 21.3963 11.3459C21.2184 11.3459 21.0494 11.3278 20.8893 11.2915C20.7292 11.2493 20.5869 11.1799 20.4623 11.0833C20.3437 10.9867 20.2578 10.8569 20.2044 10.6939C20.1747 10.6215 20.1392 10.5732 20.0977 10.549C20.0562 10.5249 20.0058 10.5128 19.9465 10.5128H19.146C19.0926 10.5128 19.0452 10.5309 19.0036 10.5671C18.9681 10.5973 18.9503 10.6396 18.9503 10.6939C18.9562 10.8871 19.0096 11.0833 19.1104 11.2825C19.2112 11.4757 19.3594 11.6568 19.5551 11.8258C19.7567 11.9888 20.0087 12.1216 20.3111 12.2242Z" fill="#718096"/>
</svg>
