<svg width="397" height="85" viewBox="0 0 397 85" fill="none" xmlns="http://www.w3.org/2000/svg">
<path d="M0.94089 82.852C0.74562 83.0473 0.745628 83.3638 0.94089 83.5591C1.13615 83.7544 1.45273 83.7544 1.648 83.5591L0.94089 82.852ZM395.706 83.7056C395.982 83.7056 396.206 83.4817 396.206 83.2056L396.206 78.7056C396.206 78.4294 395.982 78.2056 395.706 78.2056C395.429 78.2056 395.206 78.4294 395.206 78.7056L395.206 82.7056L391.206 82.7056C390.929 82.7056 390.706 82.9294 390.706 83.2056C390.706 83.4817 390.929 83.7056 391.206 83.7056L395.706 83.7056ZM4.54373 80.7045C4.74176 80.5121 4.7463 80.1955 4.55384 79.9975C4.3614 79.7994 4.04484 79.7949 3.84682 79.9874L4.54373 80.7045ZM11.2468 73.049C11.042 73.2342 11.0261 73.5504 11.2113 73.7552C11.3966 73.96 11.7128 73.9759 11.9176 73.7906L11.2468 73.049ZM18.0144 68.4338C18.2244 68.2546 18.2494 67.939 18.0702 67.7289C17.8909 67.5189 17.5753 67.4939 17.3652 67.6732L18.0144 68.4338ZM25.2079 61.2222C24.9915 61.3937 24.9551 61.7082 25.1267 61.9246C25.2982 62.141 25.6127 62.1774 25.8291 62.0058L25.2079 61.2222ZM32.2445 57.0708C32.4658 56.9056 32.5113 56.5923 32.3462 56.371C32.181 56.1497 31.8677 56.1042 31.6464 56.2694L32.2445 57.0708ZM39.9026 50.3386C39.6754 50.4956 39.6185 50.807 39.7755 51.0342C39.9325 51.2614 40.2439 51.3183 40.4711 51.1613L39.9026 50.3386ZM47.1948 46.6587C47.4265 46.5084 47.4924 46.1988 47.3422 45.9671C47.1919 45.7355 46.8822 45.6695 46.6506 45.8198L47.1948 46.6587ZM55.2721 40.4485C55.0351 40.5902 54.9578 40.8972 55.0995 41.1342C55.2412 41.3712 55.5482 41.4485 55.7852 41.3068L55.2721 40.4485ZM62.8017 37.2502C63.0428 37.1155 63.129 36.8109 62.9943 36.5699C62.8597 36.3288 62.555 36.2425 62.314 36.3772L62.8017 37.2502ZM71.269 31.5869C71.0232 31.7126 70.9258 32.0139 71.0516 32.2597C71.1774 32.5056 71.4786 32.6029 71.7244 32.4771L71.269 31.5869ZM78.9869 28.895C79.2363 28.7765 79.3425 28.4782 79.224 28.2288C79.1054 27.9794 78.8072 27.8732 78.5578 27.9917L78.9869 28.895ZM87.8148 23.7994C87.5612 23.9087 87.4442 24.2029 87.5535 24.4565C87.6628 24.7101 87.957 24.8271 88.2106 24.7178L87.8148 23.7994ZM95.6904 21.6231C95.9471 21.5213 96.0726 21.2306 95.9708 20.9739C95.869 20.7173 95.5784 20.5917 95.3217 20.6936L95.6904 21.6231ZM104.831 17.1208C104.571 17.2132 104.435 17.499 104.527 17.7593C104.62 18.0195 104.906 18.1556 105.166 18.0632L104.831 17.1208ZM112.84 15.4647C113.103 15.3799 113.247 15.0982 113.162 14.8354C113.078 14.5726 112.796 14.4282 112.533 14.5129L112.84 15.4647ZM122.256 11.5727C121.99 11.6478 121.836 11.9241 121.911 12.1898C121.986 12.4556 122.262 12.6101 122.528 12.535L122.256 11.5727ZM130.352 10.4464C130.619 10.3791 130.782 10.1074 130.715 9.83957C130.647 9.57177 130.375 9.40925 130.108 9.47659L130.352 10.4464ZM140.005 7.17856C139.735 7.23611 139.563 7.50171 139.621 7.77178C139.678 8.04186 139.944 8.21415 140.214 8.15659L140.005 7.17856ZM148.157 6.58404C148.429 6.53435 148.609 6.27387 148.559 6.00223C148.509 5.7306 148.249 5.55068 147.977 5.60037L148.157 6.58404ZM158.001 3.9539C157.728 3.99371 157.538 4.2475 157.578 4.52076C157.618 4.79402 157.872 4.98326 158.145 4.94345L158.001 3.9539ZM166.177 3.89184C166.451 3.85996 166.648 3.61176 166.616 3.33746C166.584 3.06317 166.336 2.86665 166.062 2.89852L166.177 3.89184ZM176.172 1.90848C175.897 1.93042 175.691 2.17135 175.713 2.44662C175.735 2.72189 175.976 2.92726 176.252 2.90532L176.172 1.90848ZM184.333 2.37882C184.608 2.36485 184.821 2.12997 184.807 1.85417C184.793 1.57838 184.558 1.36614 184.282 1.3801L184.333 2.37882ZM194.436 1.04971C194.16 1.0537 193.94 1.28077 193.944 1.55688C193.948 1.83299 194.175 2.0536 194.451 2.0496L194.436 1.04971ZM202.549 2.0496C202.825 2.0536 203.052 1.833 203.056 1.55688C203.06 1.28077 202.84 1.0537 202.564 1.04971L202.549 2.0496ZM212.718 1.3801C212.442 1.36614 212.207 1.57838 212.193 1.85417C212.179 2.12997 212.392 2.36485 212.667 2.37882L212.718 1.3801ZM220.748 2.90532C221.024 2.92726 221.265 2.72189 221.287 2.44662C221.309 2.17135 221.103 1.93042 220.828 1.90848L220.748 2.90532ZM230.938 2.89852C230.664 2.86665 230.416 3.06317 230.384 3.33746C230.352 3.61176 230.549 3.85996 230.823 3.89184L230.938 2.89852ZM238.855 4.94345C239.128 4.98326 239.382 4.79402 239.422 4.52077C239.462 4.24751 239.272 3.99371 238.999 3.9539L238.855 4.94345ZM249.023 5.60037C248.751 5.55068 248.491 5.7306 248.441 6.00224C248.391 6.27387 248.571 6.53436 248.843 6.58405L249.023 5.60037ZM256.786 8.15659C257.056 8.21415 257.322 8.04186 257.379 7.77178C257.437 7.50171 257.265 7.23611 256.995 7.17856L256.786 8.15659ZM266.892 9.47657C266.624 9.40925 266.353 9.57176 266.285 9.83957C266.218 10.1074 266.381 10.3791 266.648 10.4464L266.892 9.47657ZM274.472 12.535C274.738 12.6101 275.014 12.4555 275.089 12.1898C275.164 11.9241 275.01 11.6478 274.744 11.5727L274.472 12.535ZM284.467 14.5129C284.204 14.4282 283.922 14.5725 283.838 14.8354C283.753 15.0982 283.897 15.3799 284.16 15.4647L284.467 14.5129ZM291.834 18.0632C292.094 18.1555 292.38 18.0195 292.473 17.7593C292.565 17.499 292.429 17.2132 292.169 17.1208L291.834 18.0632ZM301.678 20.6935C301.422 20.5917 301.131 20.7172 301.029 20.9739C300.927 21.2306 301.053 21.5212 301.31 21.6231L301.678 20.6935ZM308.789 24.7177C309.043 24.827 309.337 24.7101 309.446 24.4565C309.556 24.2029 309.439 23.9087 309.185 23.7994L308.789 24.7177ZM318.442 27.9917C318.193 27.8732 317.894 27.9793 317.776 28.2287C317.657 28.4782 317.764 28.7764 318.013 28.8949L318.442 27.9917ZM325.275 32.4771C325.521 32.6029 325.823 32.5055 325.948 32.2597C326.074 32.0138 325.977 31.7126 325.731 31.5868L325.275 32.4771ZM334.686 36.3772C334.445 36.2425 334.14 36.3287 334.006 36.5698C333.871 36.8109 333.957 37.1155 334.198 37.2502L334.686 36.3772ZM341.215 41.3067C341.452 41.4484 341.759 41.3712 341.9 41.1342C342.042 40.8971 341.965 40.5901 341.728 40.4484L341.215 41.3067ZM350.349 45.8197C350.118 45.6694 349.808 45.7354 349.658 45.967C349.507 46.1987 349.573 46.5084 349.805 46.6586L350.349 45.8197ZM356.529 51.1612C356.756 51.3182 357.067 51.2613 357.224 51.0341C357.381 50.807 357.324 50.4955 357.097 50.3386L356.529 51.1612ZM365.353 56.2693C365.132 56.1041 364.819 56.1496 364.654 56.3709C364.489 56.5922 364.534 56.9055 364.755 57.0707L365.353 56.2693ZM371.171 62.0058C371.387 62.1773 371.702 62.1409 371.873 61.9245C372.045 61.7081 372.008 61.3936 371.792 61.2221L371.171 62.0058ZM379.635 67.6731C379.425 67.4938 379.109 67.5188 378.93 67.7289C378.751 67.9389 378.775 68.2545 378.986 68.4338L379.635 67.6731ZM385.082 73.7905C385.287 73.9758 385.603 73.9599 385.789 73.7551C385.974 73.5503 385.958 73.2342 385.753 73.0489L385.082 73.7905ZM393.153 79.9873C392.955 79.7948 392.638 79.7993 392.446 79.9974C392.254 80.1954 392.258 80.512 392.456 80.7044L393.153 79.9873ZM1.648 83.5591C2.60801 82.5991 3.57328 81.6476 4.54373 80.7045L3.84682 79.9874C2.87295 80.9337 1.90427 81.8886 0.94089 82.852L1.648 83.5591ZM11.9176 73.7906C13.9299 71.9704 15.9624 70.1848 18.0144 68.4338L17.3652 67.6732C15.306 69.4304 13.2662 71.2223 11.2468 73.049L11.9176 73.7906ZM25.8291 62.0058C27.949 60.3255 30.0878 58.6805 32.2445 57.0708L31.6464 56.2694C29.4819 57.8849 27.3355 59.5358 25.2079 61.2222L25.8291 62.0058ZM40.4711 51.1613C42.6952 49.6244 44.9367 48.1235 47.1948 46.6587L46.6506 45.8198C44.3843 47.2899 42.1347 48.7962 39.9026 50.3386L40.4711 51.1613ZM55.7852 41.3068C58.1085 39.9178 60.4476 38.5656 62.8017 37.2502L62.314 36.3772C59.9513 37.6974 57.6037 39.0544 55.2721 40.4485L55.7852 41.3068ZM71.7244 32.4771C74.1314 31.2457 76.5525 30.0517 78.9869 28.895L78.5578 27.9917C76.1145 29.1526 73.6846 30.351 71.269 31.5869L71.7244 32.4771ZM88.2106 24.7178C90.6918 23.6484 93.1853 22.6169 95.6904 21.6231L95.3217 20.6936C92.8075 21.6909 90.305 22.7262 87.8148 23.7994L88.2106 24.7178ZM105.166 18.0632C107.714 17.1588 110.272 16.2926 112.84 15.4647L112.533 14.5129C109.956 15.3438 107.388 16.2131 104.831 17.1208L105.166 18.0632ZM122.528 12.535C125.127 11.8003 127.736 11.1041 130.352 10.4464L130.108 9.47659C127.482 10.1366 124.865 10.8353 122.256 11.5727L122.528 12.535ZM140.214 8.15659C142.855 7.59368 145.503 7.0695 148.157 6.58404L147.977 5.60037C145.314 6.08756 142.656 6.61362 140.005 7.17856L140.214 8.15659ZM158.145 4.94345C160.818 4.554 163.496 4.20346 166.177 3.89184L166.062 2.89852C163.371 3.21126 160.684 3.56306 158.001 3.9539L158.145 4.94345ZM176.252 2.90532C178.943 2.69084 181.637 2.51534 184.333 2.37882L184.282 1.3801C181.577 1.5171 178.873 1.69323 176.172 1.90848L176.252 2.90532ZM194.451 2.0496C197.15 2.01058 199.85 2.01058 202.549 2.0496L202.564 1.04971C199.855 1.01054 197.145 1.01055 194.436 1.04971L194.451 2.0496ZM212.667 2.37882C215.363 2.51534 218.057 2.69084 220.748 2.90532L220.828 1.90848C218.127 1.69323 215.423 1.51711 212.718 1.3801L212.667 2.37882ZM230.823 3.89184C233.504 4.20346 236.182 4.554 238.855 4.94345L238.999 3.9539C236.316 3.56306 233.629 3.21127 230.938 2.89852L230.823 3.89184ZM248.843 6.58405C251.497 7.0695 254.145 7.59368 256.786 8.15659L256.995 7.17856C254.344 6.61363 251.686 6.08756 249.023 5.60037L248.843 6.58405ZM266.648 10.4464C269.264 11.1041 271.872 11.8003 274.472 12.535L274.744 11.5727C272.135 10.8353 269.518 10.1366 266.892 9.47657L266.648 10.4464ZM284.16 15.4647C286.728 16.2926 289.286 17.1588 291.834 18.0632L292.169 17.1208C289.612 16.2131 287.044 15.3438 284.467 14.5129L284.16 15.4647ZM301.31 21.6231C303.815 22.6168 306.308 23.6484 308.789 24.7177L309.185 23.7994C306.695 22.7262 304.192 21.6909 301.678 20.6935L301.31 21.6231ZM318.013 28.8949C320.447 30.0517 322.869 31.2457 325.275 32.4771L325.731 31.5868C323.315 30.351 320.885 29.1526 318.442 27.9917L318.013 28.8949ZM334.198 37.2502C336.552 38.5655 338.891 39.9177 341.215 41.3067L341.728 40.4484C339.396 39.0544 337.049 37.6973 334.686 36.3772L334.198 37.2502ZM349.805 46.6586C352.063 48.1234 354.305 49.6243 356.529 51.1612L357.097 50.3386C354.865 48.7961 352.616 47.2898 350.349 45.8197L349.805 46.6586ZM364.755 57.0707C366.912 58.6804 369.051 60.3254 371.171 62.0058L371.792 61.2221C369.664 59.5357 367.518 57.8848 365.353 56.2693L364.755 57.0707ZM378.986 68.4338C381.037 70.1847 383.07 71.9703 385.082 73.7905L385.753 73.0489C383.734 71.2222 381.694 69.4303 379.635 67.6731L378.986 68.4338ZM392.456 80.7044C393.427 81.6475 394.392 82.5991 395.352 83.5591L396.059 82.852C395.096 81.8886 394.127 80.9337 393.153 79.9873L392.456 80.7044ZM0.587337 82.4984C0.196818 82.889 0.196812 83.5221 0.587337 83.9127C0.977861 84.3032 1.61103 84.3032 2.00155 83.9127L0.587337 82.4984ZM395.706 84.2055C396.258 84.2056 396.706 83.7578 396.706 83.2055L396.706 74.2056C396.706 73.6533 396.258 73.2056 395.706 73.2056C395.153 73.2056 394.706 73.6533 394.706 74.2056L394.706 82.2056L386.706 82.2056C386.153 82.2056 385.706 82.6533 385.706 83.2056C385.706 83.7578 386.153 84.2055 386.706 84.2056L395.706 84.2055ZM4.89218 81.0631C5.28824 80.6782 5.29732 80.0451 4.91243 79.649C4.52753 79.253 3.89444 79.2439 3.49835 79.6288L4.89218 81.0631ZM10.9113 72.6782C10.5018 73.0487 10.4701 73.681 10.8405 74.0906C11.211 74.5002 11.8434 74.5319 12.253 74.1614L10.9113 72.6782ZM18.3389 68.8142C18.759 68.4557 18.809 67.8245 18.4505 67.4044C18.092 66.9843 17.4608 66.9343 17.0407 67.2928L18.3389 68.8142ZM24.8973 60.8303C24.4645 61.1734 24.3918 61.8024 24.7348 62.2352C25.0779 62.668 25.7069 62.7407 26.1397 62.3977L24.8973 60.8303ZM32.5436 57.4715C32.9862 57.1411 33.0772 56.5146 32.7469 56.072C32.4165 55.6294 31.7899 55.5384 31.3474 55.8687L32.5436 57.4715ZM39.6184 49.9273C39.164 50.2413 39.0502 50.8641 39.3642 51.3185C39.6781 51.7728 40.301 51.8866 40.7554 51.5727L39.6184 49.9273ZM47.4669 47.0782C47.9302 46.7776 48.0622 46.1583 47.7616 45.695C47.4611 45.2317 46.8418 45.0997 46.3785 45.4003L47.4669 47.0782ZM55.0155 40.0193C54.5415 40.3028 54.387 40.9168 54.6704 41.3908C54.9538 41.8648 55.5678 42.0193 56.0418 41.7359L55.0155 40.0193ZM63.0456 37.6867C63.5278 37.4173 63.7002 36.8081 63.4308 36.326C63.1615 35.8438 62.5522 35.6714 62.0701 35.9408L63.0456 37.6867ZM71.0413 31.1417C70.5496 31.3933 70.3549 31.9958 70.6065 32.4875C70.858 32.9791 71.4605 33.1738 71.9522 32.9222L71.0413 31.1417ZM79.2015 29.3466C79.7003 29.1096 79.9126 28.513 79.6756 28.0142C79.4385 27.5154 78.842 27.3031 78.3432 27.5401L79.2015 29.3466ZM87.6169 23.3403C87.1097 23.5588 86.8758 24.1472 87.0944 24.6544C87.3129 25.1616 87.9013 25.3955 88.4085 25.1769L87.6169 23.3403ZM95.8748 22.0879C96.3882 21.8842 96.6392 21.3029 96.4356 20.7896C96.2319 20.2762 95.6507 20.0251 95.1373 20.2288L95.8748 22.0879ZM104.664 16.6496C104.144 16.8344 103.871 17.4061 104.056 17.9265C104.241 18.447 104.813 18.7191 105.333 18.5344L104.664 16.6496ZM112.993 15.9406C113.519 15.7711 113.808 15.2076 113.638 14.6819C113.469 14.1563 112.905 13.8676 112.38 14.0371L112.993 15.9406ZM122.12 11.0915C121.588 11.2417 121.279 11.7943 121.43 12.3258C121.58 12.8573 122.132 13.1663 122.664 13.0161L122.12 11.0915ZM130.473 10.9313C131.009 10.7966 131.334 10.2533 131.199 9.71765C131.065 9.18204 130.521 8.85701 129.986 8.99168L130.473 10.9313ZM139.901 6.68953C139.361 6.80465 139.016 7.33584 139.132 7.876C139.247 8.41615 139.778 8.76072 140.318 8.64561L139.901 6.68953ZM148.247 7.07588C148.79 6.9765 149.15 6.45553 149.051 5.91226C148.951 5.36899 148.43 5.00915 147.887 5.10853L148.247 7.07588ZM157.929 3.45912C157.382 3.53875 157.004 4.04633 157.084 4.59285C157.163 5.13937 157.671 5.51785 158.217 5.43822L157.929 3.45912ZM166.235 4.3885C166.783 4.32474 167.176 3.82833 167.113 3.27973C167.049 2.73115 166.552 2.33811 166.004 2.40187L166.235 4.3885ZM176.132 1.41006C175.582 1.45393 175.171 1.9358 175.215 2.48634C175.259 3.03688 175.741 3.44761 176.291 3.40374L176.132 1.41006ZM184.358 2.87819C184.909 2.85025 185.334 2.38046 185.306 1.82889C185.278 1.27731 184.808 0.852812 184.257 0.880746L184.358 2.87819ZM194.429 0.549759C193.877 0.557738 193.436 1.01188 193.444 1.5641C193.452 2.11634 193.906 2.55753 194.458 2.54955L194.429 0.549759ZM202.542 2.54955C203.094 2.55754 203.548 2.11633 203.556 1.56411C203.564 1.01188 203.123 0.557743 202.571 0.549759L202.542 2.54955ZM212.743 0.880746C212.192 0.852812 211.722 1.27731 211.694 1.82889C211.666 2.38046 212.091 2.85025 212.642 2.87819L212.743 0.880746ZM220.709 3.40374C221.259 3.44761 221.741 3.03688 221.785 2.48634C221.829 1.93581 221.418 1.45394 220.868 1.41006L220.709 3.40374ZM230.996 2.40187C230.448 2.33811 229.951 2.73115 229.887 3.27974C229.824 3.82833 230.217 4.32474 230.765 4.3885L230.996 2.40187ZM238.783 5.43823C239.329 5.51786 239.837 5.13937 239.916 4.59285C239.996 4.04634 239.618 3.53875 239.071 3.45913L238.783 5.43823ZM249.113 5.10853C248.57 5.00915 248.049 5.36899 247.949 5.91227C247.85 6.45553 248.21 6.9765 248.753 7.07588L249.113 5.10853ZM256.682 8.64561C257.222 8.76072 257.753 8.41615 257.868 7.876C257.984 7.33584 257.639 6.80465 257.099 6.68953L256.682 8.64561ZM267.014 8.99167C266.479 8.85701 265.935 9.18204 265.801 9.71765C265.666 10.2533 265.991 10.7966 266.527 10.9313L267.014 8.99167ZM274.336 13.0161C274.868 13.1663 275.42 12.8573 275.57 12.3258C275.721 11.7943 275.411 11.2417 274.88 11.0915L274.336 13.0161ZM284.62 14.037C284.095 13.8676 283.531 14.1563 283.362 14.6819C283.192 15.2076 283.481 15.7711 284.007 15.9405L284.62 14.037ZM291.667 18.5344C292.187 18.7191 292.759 18.447 292.944 17.9265C293.128 17.406 292.856 16.8344 292.336 16.6496L291.667 18.5344ZM301.863 20.2288C301.349 20.0251 300.768 20.2762 300.564 20.7895C300.361 21.3029 300.612 21.8842 301.125 22.0878L301.863 20.2288ZM308.591 25.1769C309.099 25.3955 309.687 25.1615 309.906 24.6544C310.124 24.1472 309.89 23.5588 309.383 23.3402L308.591 25.1769ZM318.657 27.5401C318.158 27.3031 317.561 27.5153 317.324 28.0142C317.087 28.513 317.3 29.1095 317.798 29.3466L318.657 27.5401ZM325.048 32.9222C325.539 33.1738 326.142 32.9791 326.393 32.4874C326.645 31.9957 326.45 31.3932 325.959 31.1417L325.048 32.9222ZM334.93 35.9407C334.448 35.6713 333.838 35.8438 333.569 36.3259C333.3 36.808 333.472 37.4173 333.954 37.6867L334.93 35.9407ZM340.958 41.7359C341.432 42.0193 342.046 41.8648 342.33 41.3907C342.613 40.9167 342.458 40.3027 341.984 40.0193L340.958 41.7359ZM350.621 45.4002C350.158 45.0996 349.539 45.2316 349.238 45.6949C348.938 46.1583 349.07 46.7775 349.533 47.0781L350.621 45.4002ZM356.245 51.5726C356.699 51.8866 357.322 51.7727 357.636 51.3184C357.95 50.864 357.836 50.2412 357.382 49.9272L356.245 51.5726ZM365.653 55.8686C365.21 55.5383 364.583 55.6293 364.253 56.0719C363.923 56.5145 364.014 57.1411 364.456 57.4714L365.653 55.8686ZM370.86 62.3976C371.293 62.7407 371.922 62.6679 372.265 62.2351C372.608 61.8023 372.535 61.1733 372.103 60.8302L370.86 62.3976ZM379.959 67.2927C379.539 66.9342 378.908 66.9842 378.549 67.4043C378.191 67.8244 378.241 68.4556 378.661 68.8141L379.959 67.2927ZM384.747 74.1614C385.157 74.5318 385.789 74.5001 386.159 74.0905C386.53 73.681 386.498 73.0486 386.089 72.6781L384.747 74.1614ZM393.502 79.6287C393.105 79.2438 392.472 79.2528 392.087 79.6489C391.703 80.045 391.712 80.6781 392.108 81.063L393.502 79.6287ZM2.00155 83.9127C2.95988 82.9543 3.92345 82.0045 4.89218 81.0631L3.49835 79.6288C2.52278 80.5768 1.5524 81.5334 0.587337 82.4984L2.00155 83.9127ZM12.253 74.1614C14.2618 72.3444 16.2907 70.562 18.3389 68.8142L17.0407 67.2928C14.9778 69.0532 12.9344 70.8483 10.9113 72.6782L12.253 74.1614ZM26.1397 62.3977C28.2558 60.7204 30.3907 59.0783 32.5436 57.4715L31.3474 55.8687C29.1789 57.4871 27.0287 59.141 24.8973 60.8303L26.1397 62.3977ZM40.7554 51.5727C42.9755 50.0385 45.2129 48.5403 47.4669 47.0782L46.3785 45.4003C44.1082 46.873 41.8545 48.382 39.6184 49.9273L40.7554 51.5727ZM56.0418 41.7359C58.3609 40.3494 60.6957 38.9997 63.0456 37.6867L62.0701 35.9408C59.7032 37.2633 57.3513 38.6228 55.0155 40.0193L56.0418 41.7359ZM71.9522 32.9222C74.3548 31.6931 76.7715 30.5012 79.2015 29.3466L78.3432 27.5401C75.8955 28.7031 73.4613 29.9037 71.0413 31.1417L71.9522 32.9222ZM88.4085 25.1769C90.8852 24.1095 93.3742 23.0798 95.8748 22.0879L95.1373 20.2288C92.6186 21.228 90.1115 22.2651 87.6169 23.3403L88.4085 25.1769ZM105.333 18.5344C107.876 17.6316 110.43 16.767 112.993 15.9406L112.38 14.0371C109.798 14.8695 107.226 15.7403 104.664 16.6496L105.333 18.5344ZM122.664 13.0161C125.259 12.2828 127.862 11.5878 130.473 10.9313L129.986 8.99168C127.356 9.65291 124.734 10.3529 122.12 11.0915L122.664 13.0161ZM140.318 8.64561C142.955 8.08371 145.598 7.56046 148.247 7.07588L147.887 5.10853C145.219 5.59659 142.557 6.1236 139.901 6.68953L140.318 8.64561ZM158.217 5.43822C160.885 5.04947 163.558 4.69956 166.235 4.3885L166.004 2.40187C163.308 2.71516 160.616 3.06758 157.929 3.45912L158.217 5.43822ZM176.291 3.40374C178.978 3.18964 181.667 3.01445 184.358 2.87819L184.257 0.880746C181.547 1.01798 178.838 1.19443 176.132 1.41006L176.291 3.40374ZM194.458 2.54955C197.153 2.51059 199.848 2.5106 202.542 2.54955L202.571 0.549759C199.857 0.510534 197.143 0.510528 194.429 0.549759L194.458 2.54955ZM212.642 2.87819C215.333 3.01445 218.022 3.18964 220.709 3.40374L220.868 1.41006C218.162 1.19443 215.453 1.01798 212.743 0.880746L212.642 2.87819ZM230.765 4.3885C233.442 4.69957 236.115 5.04947 238.783 5.43823L239.071 3.45913C236.384 3.06758 233.692 2.71516 230.996 2.40187L230.765 4.3885ZM248.753 7.07588C251.402 7.56047 254.045 8.08371 256.682 8.64561L257.099 6.68953C254.443 6.1236 251.781 5.59659 249.113 5.10853L248.753 7.07588ZM266.527 10.9313C269.138 11.5878 271.741 12.2828 274.336 13.0161L274.88 11.0915C272.266 10.3529 269.644 9.6529 267.014 8.99167L266.527 10.9313ZM284.007 15.9405C286.57 16.767 289.124 17.6316 291.667 18.5344L292.336 16.6496C289.774 15.7403 287.202 14.8694 284.62 14.037L284.007 15.9405ZM301.125 22.0878C303.626 23.0798 306.115 24.1095 308.591 25.1769L309.383 23.3402C306.888 22.2651 304.381 21.2279 301.863 20.2288L301.125 22.0878ZM317.798 29.3466C320.228 30.5012 322.645 31.6931 325.048 32.9222L325.959 31.1417C323.539 29.9036 321.104 28.7031 318.657 27.5401L317.798 29.3466ZM333.954 37.6867C336.304 38.9996 338.639 40.3494 340.958 41.7359L341.984 40.0193C339.649 38.6227 337.297 37.2632 334.93 35.9407L333.954 37.6867ZM349.533 47.0781C351.787 48.5403 354.024 50.0384 356.245 51.5726L357.382 49.9272C355.145 48.382 352.892 46.873 350.621 45.4002L349.533 47.0781ZM364.456 57.4714C366.609 59.0782 368.744 60.7203 370.86 62.3976L372.103 60.8302C369.971 59.1409 367.821 57.487 365.653 55.8686L364.456 57.4714ZM378.661 68.8141C380.709 70.5619 382.738 72.3444 384.747 74.1614L386.089 72.6781C384.065 70.8482 382.022 69.0531 379.959 67.2927L378.661 68.8141ZM392.108 81.063C393.076 82.0044 394.04 82.9543 394.998 83.9127L396.413 82.4984C395.448 81.5333 394.477 80.5767 393.502 79.6287L392.108 81.063Z" fill="#718096"/>
</svg>
