<svg width="397" height="84" viewBox="0 0 397 84" fill="none" xmlns="http://www.w3.org/2000/svg">
<path d="M0.794448 1.20558C0.794434 0.929425 1.01829 0.705567 1.29445 0.705581L5.79445 0.705578C6.07058 0.705571 6.29444 0.929433 6.29444 1.20557C6.29445 1.48172 6.07059 1.70558 5.79444 1.70557L1.79443 1.70557L1.79444 5.70557C1.79445 5.98172 1.57059 6.20558 1.29444 6.20557C1.0183 6.20558 0.794438 5.98171 0.794445 5.70558L0.794448 1.20558ZM395.352 0.852023C395.547 0.656753 395.864 0.656761 396.059 0.852023C396.254 1.04728 396.254 1.36386 396.059 1.55913L395.352 0.852023ZM4.54373 3.70662C4.74176 3.89905 4.7463 4.21561 4.55384 4.41364C4.3614 4.61168 4.04484 4.61621 3.84682 4.42378L4.54373 3.70662ZM11.2468 11.3621C11.042 11.1769 11.0261 10.8607 11.2113 10.6559C11.3966 10.4511 11.7128 10.4353 11.9176 10.6205L11.2468 11.3621ZM18.0144 15.9773C18.2244 16.1565 18.2494 16.4721 18.0702 16.6822C17.8909 16.8922 17.5753 16.9172 17.3652 16.738L18.0144 15.9773ZM25.2079 23.189C24.9915 23.0174 24.9551 22.703 25.1267 22.4865C25.2982 22.2701 25.6127 22.2338 25.8291 22.4053L25.2079 23.189ZM32.2445 27.3403C32.4658 27.5055 32.5113 27.8188 32.3462 28.0401C32.181 28.2614 31.8677 28.3069 31.6464 28.1417L32.2445 27.3403ZM39.9026 34.0725C39.6754 33.9155 39.6185 33.6041 39.7755 33.3769C39.9325 33.1497 40.2439 33.0928 40.4711 33.2498L39.9026 34.0725ZM47.1948 37.7524C47.4265 37.9027 47.4924 38.2123 47.3422 38.444C47.1919 38.6757 46.8822 38.7417 46.6506 38.5914L47.1948 37.7524ZM55.2721 43.9626C55.0351 43.8209 54.9578 43.5139 55.0995 43.2769C55.2412 43.0399 55.5482 42.9626 55.7852 43.1044L55.2721 43.9626ZM62.8017 47.1609C63.0428 47.2956 63.129 47.6002 62.9943 47.8413C62.8597 48.0824 62.555 48.1686 62.314 48.0339L62.8017 47.1609ZM71.269 52.8243C71.0232 52.6985 70.9258 52.3973 71.0516 52.1514C71.1774 51.9056 71.4786 51.8082 71.7244 51.934L71.269 52.8243ZM78.9869 55.5162C79.2363 55.6347 79.3425 55.9329 79.224 56.1824C79.1054 56.4318 78.8072 56.5379 78.5578 56.4194L78.9869 55.5162ZM87.8148 60.6117C87.5612 60.5024 87.4442 60.2082 87.5535 59.9546C87.6628 59.701 87.957 59.5841 88.2106 59.6934L87.8148 60.6117ZM95.6904 62.7881C95.9471 62.8899 96.0726 63.1805 95.9708 63.4372C95.869 63.6939 95.5784 63.8194 95.3217 63.7176L95.6904 62.7881ZM104.831 67.2903C104.571 67.1979 104.435 66.9121 104.527 66.6519C104.62 66.3916 104.906 66.2556 105.166 66.3479L104.831 67.2903ZM112.84 68.9464C113.103 69.0312 113.247 69.3129 113.162 69.5758C113.078 69.8386 112.796 69.9829 112.533 69.8982L112.84 68.9464ZM122.256 72.8384C121.99 72.7633 121.836 72.487 121.911 72.2213C121.986 71.9556 122.262 71.801 122.528 71.8761L122.256 72.8384ZM130.352 73.9647C130.619 74.0321 130.782 74.3038 130.715 74.5716C130.647 74.8394 130.375 75.0019 130.108 74.9345L130.352 73.9647ZM140.005 77.2326C139.735 77.175 139.563 76.9094 139.621 76.6393C139.678 76.3693 139.944 76.197 140.214 76.2545L140.005 77.2326ZM148.157 77.8271C148.429 77.8768 148.609 78.1373 148.559 78.4089C148.509 78.6805 148.249 78.8605 147.977 78.8108L148.157 77.8271ZM158.001 80.4572C157.728 80.4174 157.538 80.1636 157.578 79.8904C157.618 79.6171 157.872 79.4279 158.145 79.4677L158.001 80.4572ZM166.177 80.5193C166.451 80.5512 166.648 80.7994 166.616 81.0737C166.584 81.348 166.336 81.5445 166.062 81.5126L166.177 80.5193ZM176.172 82.5027C175.897 82.4807 175.691 82.2398 175.713 81.9645C175.735 81.6892 175.976 81.4839 176.252 81.5058L176.172 82.5027ZM184.333 82.0323C184.608 82.0463 184.821 82.2812 184.807 82.557C184.793 82.8327 184.558 83.045 184.282 83.031L184.333 82.0323ZM194.436 83.3614C194.16 83.3574 193.94 83.1304 193.944 82.8543C193.948 82.5781 194.175 82.3575 194.451 82.3615L194.436 83.3614ZM202.549 82.3615C202.825 82.3575 203.052 82.5781 203.056 82.8543C203.06 83.1304 202.84 83.3574 202.564 83.3614L202.549 82.3615ZM212.718 83.031C212.442 83.045 212.207 82.8327 212.193 82.557C212.179 82.2812 212.392 82.0463 212.667 82.0323L212.718 83.031ZM220.748 81.5058C221.024 81.4839 221.265 81.6892 221.287 81.9645C221.309 82.2398 221.103 82.4807 220.828 82.5027L220.748 81.5058ZM230.938 81.5126C230.664 81.5445 230.416 81.348 230.384 81.0737C230.352 80.7994 230.549 80.5512 230.823 80.5193L230.938 81.5126ZM238.855 79.4677C239.128 79.4279 239.382 79.6171 239.422 79.8904C239.462 80.1636 239.272 80.4174 238.999 80.4572L238.855 79.4677ZM249.023 78.8108C248.751 78.8605 248.491 78.6805 248.441 78.4089C248.391 78.1373 248.571 77.8768 248.843 77.8271L249.023 78.8108ZM256.786 76.2545C257.056 76.197 257.322 76.3693 257.379 76.6393C257.437 76.9094 257.265 77.175 256.995 77.2326L256.786 76.2545ZM266.892 74.9346C266.624 75.0019 266.353 74.8394 266.285 74.5716C266.218 74.3038 266.381 74.0321 266.648 73.9647L266.892 74.9346ZM274.472 71.8762C274.738 71.801 275.014 71.9556 275.089 72.2213C275.164 72.4871 275.01 72.7634 274.744 72.8385L274.472 71.8762ZM284.467 69.8982C284.204 69.983 283.922 69.8386 283.838 69.5758C283.753 69.3129 283.897 69.0312 284.16 68.9465L284.467 69.8982ZM291.834 66.348C292.094 66.2556 292.38 66.3917 292.473 66.6519C292.565 66.9121 292.429 67.198 292.169 67.2903L291.834 66.348ZM301.678 63.7176C301.422 63.8194 301.131 63.6939 301.029 63.4372C300.927 63.1805 301.053 62.8899 301.31 62.7881L301.678 63.7176ZM308.789 59.6934C309.043 59.5841 309.337 59.7011 309.446 59.9547C309.556 60.2083 309.439 60.5024 309.185 60.6117L308.789 59.6934ZM318.442 56.4194C318.193 56.5379 317.894 56.4318 317.776 56.1824C317.657 55.933 317.764 55.6347 318.013 55.5162L318.442 56.4194ZM325.275 51.934C325.521 51.8083 325.823 51.9056 325.948 52.1514C326.074 52.3973 325.977 52.6985 325.731 52.8243L325.275 51.934ZM334.686 48.0339C334.445 48.1686 334.14 48.0824 334.006 47.8413C333.871 47.6003 333.957 47.2957 334.198 47.161L334.686 48.0339ZM341.215 43.1044C341.452 42.9627 341.759 43.04 341.9 43.277C342.042 43.514 341.965 43.821 341.728 43.9627L341.215 43.1044ZM350.349 38.5914C350.118 38.7417 349.808 38.6757 349.658 38.4441C349.507 38.2124 349.573 37.9028 349.805 37.7525L350.349 38.5914ZM356.529 33.2499C356.756 33.0929 357.067 33.1498 357.224 33.377C357.381 33.6042 357.324 33.9156 357.097 34.0726L356.529 33.2499ZM365.353 28.1418C365.132 28.307 364.819 28.2615 364.654 28.0402C364.489 27.8189 364.534 27.5056 364.755 27.3404L365.353 28.1418ZM371.171 22.4054C371.387 22.2338 371.702 22.2702 371.873 22.4866C372.045 22.703 372.008 23.0175 371.792 23.189L371.171 22.4054ZM379.635 16.7381C379.425 16.9173 379.109 16.8923 378.93 16.6823C378.751 16.4722 378.775 16.1566 378.986 15.9774L379.635 16.7381ZM385.082 10.6206C385.287 10.4353 385.603 10.4512 385.789 10.656C385.974 10.8608 385.958 11.177 385.753 11.3622L385.082 10.6206ZM393.153 4.42388C392.955 4.61634 392.638 4.61179 392.446 4.41377C392.254 4.21572 392.258 3.89918 392.456 3.70673L393.153 4.42388ZM1.648 0.852023C2.60801 1.81204 3.57328 2.76356 4.54373 3.70662L3.84682 4.42378C2.87295 3.4774 1.90427 2.52251 0.94089 1.55913L1.648 0.852023ZM11.9176 10.6205C13.9299 12.4407 15.9624 14.2263 18.0144 15.9773L17.3652 16.738C15.306 14.9808 13.2662 13.1888 11.2468 11.3621L11.9176 10.6205ZM25.8291 22.4053C27.949 24.0856 30.0878 25.7306 32.2445 27.3403L31.6464 28.1417C29.4819 26.5262 27.3355 24.8753 25.2079 23.189L25.8291 22.4053ZM40.4711 33.2498C42.6952 34.7867 44.9367 36.2876 47.1948 37.7524L46.6506 38.5914C44.3843 37.1213 42.1347 35.615 39.9026 34.0725L40.4711 33.2498ZM55.7852 43.1044C58.1085 44.4934 60.4476 45.8456 62.8017 47.1609L62.314 48.0339C59.9513 46.7138 57.6037 45.3567 55.2721 43.9626L55.7852 43.1044ZM71.7244 51.934C74.1314 53.1654 76.5525 54.3594 78.9869 55.5162L78.5578 56.4194C76.1145 55.2585 73.6846 54.0601 71.269 52.8243L71.7244 51.934ZM88.2106 59.6934C90.6918 60.7627 93.1853 61.7943 95.6904 62.7881L95.3217 63.7176C92.8075 62.7202 90.305 61.6849 87.8148 60.6117L88.2106 59.6934ZM105.166 66.3479C107.714 67.2523 110.272 68.1185 112.84 68.9464L112.533 69.8982C109.956 69.0673 107.388 68.198 104.831 67.2903L105.166 66.3479ZM122.528 71.8761C125.127 72.6108 127.736 73.307 130.352 73.9647L130.108 74.9345C127.482 74.2745 124.865 73.5758 122.256 72.8384L122.528 71.8761ZM140.214 76.2545C142.855 76.8174 145.503 77.3416 148.157 77.8271L147.977 78.8108C145.314 78.3236 142.656 77.7975 140.005 77.2326L140.214 76.2545ZM158.145 79.4677C160.818 79.8571 163.496 80.2077 166.177 80.5193L166.062 81.5126C163.371 81.1999 160.684 80.8481 158.001 80.4572L158.145 79.4677ZM176.252 81.5058C178.943 81.7203 181.637 81.8958 184.333 82.0323L184.282 83.031C181.577 82.894 178.873 82.7179 176.172 82.5027L176.252 81.5058ZM194.451 82.3615C197.15 82.4005 199.85 82.4006 202.549 82.3615L202.564 83.3614C199.855 83.4006 197.145 83.4006 194.436 83.3614L194.451 82.3615ZM212.667 82.0323C215.363 81.8958 218.057 81.7203 220.748 81.5058L220.828 82.5027C218.127 82.7179 215.423 82.894 212.718 83.031L212.667 82.0323ZM230.823 80.5193C233.504 80.2077 236.182 79.8571 238.855 79.4677L238.999 80.4572C236.316 80.8481 233.629 81.1999 230.938 81.5126L230.823 80.5193ZM248.843 77.8271C251.497 77.3416 254.145 76.8175 256.786 76.2545L256.995 77.2326C254.344 77.7975 251.686 78.3236 249.023 78.8108L248.843 77.8271ZM266.648 73.9647C269.264 73.307 271.872 72.6108 274.472 71.8762L274.744 72.8385C272.135 73.5758 269.518 74.2745 266.892 74.9346L266.648 73.9647ZM284.16 68.9465C286.728 68.1185 289.286 67.2524 291.834 66.348L292.169 67.2903C289.612 68.198 287.044 69.0673 284.467 69.8982L284.16 68.9465ZM301.31 62.7881C303.815 61.7943 306.308 60.7627 308.789 59.6934L309.185 60.6117C306.695 61.6849 304.192 62.7202 301.678 63.7176L301.31 62.7881ZM318.013 55.5162C320.447 54.3595 322.869 53.1654 325.275 51.934L325.731 52.8243C323.315 54.0602 320.885 55.2585 318.442 56.4194L318.013 55.5162ZM334.198 47.161C336.552 45.8456 338.891 44.4934 341.215 43.1044L341.728 43.9627C339.396 45.3567 337.049 46.7138 334.686 48.0339L334.198 47.161ZM349.805 37.7525C352.063 36.2877 354.305 34.7868 356.529 33.2499L357.097 34.0726C354.865 35.615 352.616 37.1213 350.349 38.5914L349.805 37.7525ZM364.755 27.3404C366.912 25.7307 369.051 24.0857 371.171 22.4054L371.792 23.189C369.664 24.8754 367.518 26.5263 365.353 28.1418L364.755 27.3404ZM378.986 15.9774C381.037 14.2264 383.07 12.4408 385.082 10.6206L385.753 11.3622C383.734 13.1889 381.694 14.9809 379.635 16.7381L378.986 15.9774ZM392.456 3.70673C393.427 2.76363 394.392 1.81208 395.352 0.852023L396.059 1.55913C395.096 2.52255 394.127 3.47746 393.153 4.42388L392.456 3.70673ZM0.294454 1.20559C0.294447 0.653295 0.742162 0.20558 1.29445 0.205586L10.2944 0.20558C10.8467 0.205587 11.2944 0.65329 11.2944 1.20558C11.2944 1.75785 10.8467 2.20557 10.2944 2.20558L2.29444 2.20558L2.29445 10.2056C2.29443 10.7579 1.84672 11.2056 1.29445 11.2056C0.742157 11.2056 0.294454 10.7579 0.294448 10.2056L0.294454 1.20559ZM394.998 0.498469C395.389 0.107951 396.022 0.107945 396.413 0.498469C396.803 0.888994 396.803 1.52216 396.413 1.91268L394.998 0.498469ZM4.89218 3.34803C5.28824 3.73292 5.29732 4.36603 4.91243 4.76211C4.52753 5.15818 3.89444 5.16725 3.49835 4.78234L4.89218 3.34803ZM10.9113 11.7329C10.5018 11.3625 10.4701 10.7301 10.8405 10.3205C11.211 9.91092 11.8434 9.87921 12.253 10.2497L10.9113 11.7329ZM18.3389 15.5969C18.759 15.9554 18.809 16.5866 18.4505 17.0068C18.092 17.4269 17.4608 17.4768 17.0407 17.1183L18.3389 15.5969ZM24.8973 23.5808C24.4645 23.2377 24.3918 22.6088 24.7348 22.176C25.0779 21.7432 25.7069 21.6704 26.1397 22.0135L24.8973 23.5808ZM32.5436 26.9396C32.9862 27.27 33.0772 27.8966 32.7469 28.3392C32.4165 28.7818 31.7899 28.8728 31.3474 28.5424L32.5436 26.9396ZM39.6184 34.4839C39.164 34.1699 39.0502 33.547 39.3642 33.0927C39.6781 32.6383 40.301 32.5245 40.7554 32.8385L39.6184 34.4839ZM47.4669 37.333C47.9302 37.6335 48.0622 38.2528 47.7616 38.7161C47.4611 39.1795 46.8418 39.3114 46.3785 39.0108L47.4669 37.333ZM55.0155 44.3918C54.5415 44.1084 54.387 43.4944 54.6704 43.0203C54.9538 42.5463 55.5678 42.3918 56.0418 42.6752L55.0155 44.3918ZM63.0456 46.7244C63.5278 46.9938 63.7002 47.603 63.4308 48.0852C63.1615 48.5673 62.5522 48.7398 62.0701 48.4704L63.0456 46.7244ZM71.0413 53.2694C70.5496 53.0179 70.3549 52.4154 70.6065 51.9237C70.858 51.432 71.4605 51.2373 71.9522 51.4889L71.0413 53.2694ZM79.2015 55.0645C79.7003 55.3016 79.9126 55.8981 79.6756 56.3969C79.4385 56.8958 78.842 57.108 78.3432 56.871L79.2015 55.0645ZM87.6169 61.0709C87.1097 60.8523 86.8758 60.2639 87.0944 59.7567C87.3129 59.2496 87.9013 59.0156 88.4085 59.2342L87.6169 61.0709ZM95.8748 62.3233C96.3882 62.5269 96.6392 63.1082 96.4356 63.6216C96.2319 64.1349 95.6507 64.386 95.1373 64.1823L95.8748 62.3233ZM104.664 67.7615C104.144 67.5768 103.871 67.0051 104.056 66.4846C104.241 65.9641 104.813 65.692 105.333 65.8767L104.664 67.7615ZM112.993 68.4706C113.519 68.64 113.808 69.2035 113.638 69.7292C113.469 70.2548 112.905 70.5436 112.38 70.3741L112.993 68.4706ZM122.12 73.3196C121.588 73.1694 121.279 72.6168 121.43 72.0853C121.58 71.5539 122.132 71.2448 122.664 71.395L122.12 73.3196ZM130.473 73.4798C131.009 73.6145 131.334 74.1579 131.199 74.6935C131.065 75.2291 130.521 75.5541 129.986 75.4195L130.473 73.4798ZM139.901 77.7216C139.361 77.6065 139.016 77.0753 139.132 76.5351C139.247 75.995 139.778 75.6504 140.318 75.7655L139.901 77.7216ZM148.247 77.3353C148.79 77.4346 149.15 77.9556 149.051 78.4989C148.951 79.0421 148.43 79.402 147.887 79.3026L148.247 77.3353ZM157.929 80.952C157.382 80.8724 157.004 80.3648 157.084 79.8183C157.163 79.2718 157.671 78.8933 158.217 78.9729L157.929 80.952ZM166.235 80.0226C166.783 80.0864 167.176 80.5828 167.113 81.1314C167.049 81.68 166.552 82.073 166.004 82.0093L166.235 80.0226ZM176.132 83.0011C175.582 82.9572 175.171 82.4753 175.215 81.9248C175.259 81.3742 175.741 80.9635 176.291 81.0074L176.132 83.0011ZM184.358 81.5329C184.909 81.5609 185.334 82.0307 185.306 82.5822C185.278 83.1338 184.808 83.5583 184.257 83.5304L184.358 81.5329ZM194.429 83.8614C193.877 83.8534 193.436 83.3993 193.444 82.847C193.452 82.2948 193.906 81.8536 194.458 81.8616L194.429 83.8614ZM202.542 81.8616C203.094 81.8536 203.548 82.2948 203.556 82.847C203.564 83.3993 203.123 83.8534 202.571 83.8614L202.542 81.8616ZM212.743 83.5304C212.192 83.5583 211.722 83.1338 211.694 82.5822C211.666 82.0307 212.091 81.5609 212.642 81.5329L212.743 83.5304ZM220.709 81.0074C221.259 80.9635 221.741 81.3743 221.785 81.9248C221.829 82.4753 221.418 82.9572 220.868 83.0011L220.709 81.0074ZM230.996 82.0093C230.448 82.073 229.951 81.68 229.887 81.1314C229.824 80.5828 230.217 80.0864 230.765 80.0226L230.996 82.0093ZM238.783 78.9729C239.329 78.8933 239.837 79.2718 239.916 79.8183C239.996 80.3648 239.618 80.8724 239.071 80.952L238.783 78.9729ZM249.113 79.3026C248.57 79.402 248.049 79.0421 247.949 78.4989C247.85 77.9556 248.21 77.4346 248.753 77.3352L249.113 79.3026ZM256.682 75.7655C257.222 75.6504 257.753 75.995 257.868 76.5351C257.984 77.0753 257.639 77.6065 257.099 77.7216L256.682 75.7655ZM267.014 75.4195C266.479 75.5541 265.935 75.2291 265.801 74.6935C265.666 74.1579 265.991 73.6145 266.527 73.4798L267.014 75.4195ZM274.336 71.395C274.868 71.2448 275.42 71.5539 275.57 72.0853C275.721 72.6168 275.411 73.1694 274.88 73.3196L274.336 71.395ZM284.62 70.3741C284.095 70.5436 283.531 70.2548 283.362 69.7292C283.192 69.2036 283.481 68.6401 284.007 68.4706L284.62 70.3741ZM291.667 65.8768C292.187 65.692 292.759 65.9642 292.944 66.4846C293.128 67.0051 292.856 67.5768 292.336 67.7615L291.667 65.8768ZM301.863 64.1824C301.349 64.386 300.768 64.1349 300.564 63.6216C300.361 63.1082 300.612 62.527 301.125 62.3233L301.863 64.1824ZM308.591 59.2342C309.099 59.0156 309.687 59.2496 309.906 59.7568C310.124 60.264 309.89 60.8523 309.383 61.0709L308.591 59.2342ZM318.657 56.871C318.158 57.108 317.561 56.8958 317.324 56.397C317.087 55.8981 317.3 55.3016 317.798 55.0646L318.657 56.871ZM325.048 51.4889C325.539 51.2374 326.142 51.432 326.393 51.9237C326.645 52.4154 326.45 53.0179 325.959 53.2694L325.048 51.4889ZM334.93 48.4704C334.448 48.7398 333.838 48.5673 333.569 48.0852C333.3 47.6031 333.472 46.9939 333.954 46.7245L334.93 48.4704ZM340.958 42.6753C341.432 42.3919 342.046 42.5464 342.33 43.0204C342.613 43.4944 342.458 44.1084 341.984 44.3919L340.958 42.6753ZM350.621 39.0109C350.158 39.3115 349.539 39.1795 349.238 38.7162C348.938 38.2529 349.07 37.6336 349.533 37.333L350.621 39.0109ZM356.245 32.8386C356.699 32.5246 357.322 32.6384 357.636 33.0927C357.95 33.5471 357.836 34.17 357.382 34.4839L356.245 32.8386ZM365.653 28.5425C365.21 28.8729 364.583 28.7818 364.253 28.3393C363.923 27.8967 364.014 27.2701 364.456 26.9397L365.653 28.5425ZM370.86 22.0135C371.293 21.6705 371.922 21.7432 372.265 22.176C372.608 22.6089 372.535 23.2378 372.103 23.5809L370.86 22.0135ZM379.959 17.1184C379.539 17.4769 378.908 17.427 378.549 17.0068C378.191 16.5867 378.241 15.9555 378.661 15.597L379.959 17.1184ZM384.747 10.2498C385.157 9.87931 385.789 9.91101 386.159 10.3206C386.53 10.7302 386.498 11.3626 386.089 11.733L384.747 10.2498ZM393.502 4.78245C393.105 5.16736 392.472 5.15829 392.087 4.76221C391.703 4.36614 391.712 3.73305 392.108 3.34814L393.502 4.78245ZM2.00155 0.498469C2.95988 1.4568 3.92345 2.40665 4.89218 3.34803L3.49835 4.78234C2.52278 3.83431 1.5524 2.87775 0.587337 1.91268L2.00155 0.498469ZM12.253 10.2497C14.2618 12.0667 16.2907 13.8491 18.3389 15.5969L17.0407 17.1183C14.9778 15.358 12.9344 13.5629 10.9113 11.7329L12.253 10.2497ZM26.1397 22.0135C28.2558 23.6908 30.3907 25.3328 32.5436 26.9396L31.3474 28.5424C29.1789 26.924 27.0287 25.2702 24.8973 23.5808L26.1397 22.0135ZM40.7554 32.8385C42.9755 34.3726 45.2129 35.8708 47.4669 37.333L46.3785 39.0108C44.1082 37.5381 41.8545 36.0291 39.6184 34.4839L40.7554 32.8385ZM56.0418 42.6752C58.3609 44.0617 60.6957 45.4115 63.0456 46.7244L62.0701 48.4704C59.7032 47.1479 57.3513 45.7883 55.0155 44.3918L56.0418 42.6752ZM71.9522 51.4889C74.3548 52.718 76.7715 53.9099 79.2015 55.0645L78.3432 56.871C75.8955 55.708 73.4613 54.5075 71.0413 53.2694L71.9522 51.4889ZM88.4085 59.2342C90.8852 60.3016 93.3742 61.3313 95.8748 62.3233L95.1373 64.1823C92.6186 63.1832 90.1115 62.146 87.6169 61.0709L88.4085 59.2342ZM105.333 65.8767C107.876 66.7795 110.43 67.6441 112.993 68.4706L112.38 70.3741C109.798 69.5417 107.226 68.6708 104.664 67.7615L105.333 65.8767ZM122.664 71.395C125.259 72.1284 127.862 72.8233 130.473 73.4798L129.986 75.4195C127.356 74.7582 124.734 74.0583 122.12 73.3196L122.664 71.395ZM140.318 75.7655C142.955 76.3274 145.598 76.8507 148.247 77.3353L147.887 79.3026C145.219 78.8145 142.557 78.2875 139.901 77.7216L140.318 75.7655ZM158.217 78.9729C160.885 79.3617 163.558 79.7116 166.235 80.0226L166.004 82.0093C163.308 81.696 160.616 81.3436 157.929 80.952L158.217 78.9729ZM176.291 81.0074C178.978 81.2215 181.667 81.3967 184.358 81.5329L184.257 83.5304C181.547 83.3931 178.838 83.2167 176.132 83.0011L176.291 81.0074ZM194.458 81.8616C197.153 81.9005 199.848 81.9005 202.542 81.8616L202.571 83.8614C199.857 83.9006 197.143 83.9006 194.429 83.8614L194.458 81.8616ZM212.642 81.5329C215.333 81.3967 218.022 81.2215 220.709 81.0074L220.868 83.0011C218.162 83.2167 215.453 83.3931 212.743 83.5304L212.642 81.5329ZM230.765 80.0226C233.442 79.7116 236.115 79.3617 238.783 78.9729L239.071 80.952C236.384 81.3436 233.692 81.696 230.996 82.0093L230.765 80.0226ZM248.753 77.3352C251.402 76.8507 254.045 76.3274 256.682 75.7655L257.099 77.7216C254.443 78.2875 251.781 78.8145 249.113 79.3026L248.753 77.3352ZM266.527 73.4798C269.138 72.8233 271.741 72.1284 274.336 71.395L274.88 73.3196C272.266 74.0583 269.644 74.7582 267.014 75.4195L266.527 73.4798ZM284.007 68.4706C286.57 67.6441 289.124 66.7795 291.667 65.8768L292.336 67.7615C289.774 68.6708 287.202 69.5417 284.62 70.3741L284.007 68.4706ZM301.125 62.3233C303.626 61.3313 306.115 60.3016 308.591 59.2342L309.383 61.0709C306.888 62.146 304.381 63.1832 301.863 64.1824L301.125 62.3233ZM317.798 55.0646C320.228 53.91 322.645 52.7181 325.048 51.4889L325.959 53.2694C323.539 54.5075 321.104 55.708 318.657 56.871L317.798 55.0646ZM333.954 46.7245C336.304 45.4115 338.639 44.0618 340.958 42.6753L341.984 44.3919C339.649 45.7884 337.297 47.1479 334.93 48.4704L333.954 46.7245ZM349.533 37.333C351.787 35.8709 354.024 34.3727 356.245 32.8386L357.382 34.4839C355.145 36.0292 352.892 37.5382 350.621 39.0109L349.533 37.333ZM364.456 26.9397C366.609 25.3329 368.744 23.6908 370.86 22.0135L372.103 23.5809C369.971 25.2702 367.821 26.9241 365.653 28.5425L364.456 26.9397ZM378.661 15.597C380.709 13.8492 382.738 12.0668 384.747 10.2498L386.089 11.733C384.065 13.5629 382.022 15.3581 379.959 17.1184L378.661 15.597ZM392.108 3.34814C393.076 2.40672 394.04 1.45682 394.998 0.498469L396.413 1.91268C395.448 2.87779 394.477 3.83439 393.502 4.78245L392.108 3.34814Z" fill="#718096"/>
</svg>
