<svg width="36" height="36" viewBox="0 0 36 36" fill="none" xmlns="http://www.w3.org/2000/svg">
<path fill-rule="evenodd" clip-rule="evenodd" d="M0 0H4V4H0V0ZM8 8H4V4H8V8ZM12 12H8V8H12V12ZM16 16H12V12H16V16ZM20 20H16V16H20V20ZM24 24H20V20H24V24ZM28 28H24V24H28V28ZM32 32V28H28V32H32ZM32 32V36H36V32H32Z" fill="#333333"/>
<path fill-rule="evenodd" clip-rule="evenodd" d="M0 36H4V32H0V36ZM8 28H4V32H8V28ZM12 24H8V28H12V24ZM16 20H12V24H16V20ZM20 16H16V20H20V16ZM24 12H20V16H24V12ZM28 8H24V12H28V8ZM32 4V8H28V4H32ZM32 4V0H36V4H32Z" fill="#333333"/>
</svg>
