<svg width="20" height="20" viewBox="0 0 20 20" fill="none" xmlns="http://www.w3.org/2000/svg">
<path fill-rule="evenodd" clip-rule="evenodd" d="M10 0C4.47715 0 0 4.47715 0 10C0 15.5228 4.47715 20 10 20C15.5228 20 20 15.5228 20 10C20 4.47715 15.5228 0 10 0ZM7.39731 14H5.3057L3.09161 10.4802V14H1V7H3.09161L5.3057 10.5791V7H7.39731V14ZM13.0531 7V8.74011H10.4339V9.70904H12.3182V11.3602H10.4339V14H8.34227V7H13.0531ZM19.3629 8.74011V7H13.7476V8.74011H15.5V14H17.5916V8.74011H19.3629Z" fill="#333333"/>
</svg>
