<svg width="22" height="22" viewBox="0 0 22 22" fill="none" xmlns="http://www.w3.org/2000/svg">
<path d="M11.7424 8.37756C11.9097 8.37078 12.0208 8.36624 12.0758 8.36387C13.5246 8.30176 14.6265 8.22695 15.3815 8.13948C15.4385 8.13287 15.5081 8.12413 15.5903 8.11323C15.6394 8.10673 15.6891 8.11993 15.7285 8.14994C15.7679 8.17995 15.7938 8.22434 15.8006 8.2734C15.8203 8.41576 15.8352 8.5292 15.8452 8.61372C15.9341 9.36278 15.9784 10.1548 15.9784 10.9902C15.9784 11.761 15.9406 12.4949 15.865 13.1922C15.8598 13.2407 15.8526 13.3028 15.8435 13.3785C15.8405 13.4032 15.8327 13.427 15.8205 13.4485C15.8082 13.4701 15.7918 13.4891 15.7722 13.5043C15.7526 13.5195 15.7302 13.5306 15.7062 13.5371C15.6823 13.5436 15.6573 13.5452 15.6327 13.542C15.5881 13.5361 15.5503 13.5312 15.5194 13.5273C14.4532 13.3928 13.2566 13.3139 11.9287 13.2895C11.882 13.2887 11.8216 13.2877 11.7474 13.2867C11.6981 13.286 11.6511 13.2659 11.6165 13.2308C11.5819 13.1957 11.5625 13.1484 11.5625 13.0992V12.8712V9.01173V8.56489C11.5625 8.51648 11.5812 8.46994 11.6148 8.43502C11.6483 8.40011 11.6941 8.37951 11.7424 8.37756ZM6.16288 13.3809C6.15256 13.2951 6.14448 13.2252 6.13869 13.1712C6.06458 12.4802 6.02755 11.7533 6.02755 10.9902C6.02755 10.1226 6.07543 9.30177 6.17122 8.52723C6.17935 8.46161 6.19091 8.37526 6.20591 8.26815C6.20932 8.24374 6.21752 8.22024 6.23003 8.199C6.24253 8.17776 6.25911 8.1592 6.2788 8.14437C6.29849 8.12954 6.32091 8.11874 6.34478 8.11258C6.36864 8.10643 6.39349 8.10504 6.4179 8.1085C6.49474 8.11947 6.57164 8.13004 6.64859 8.14021C7.65791 8.27202 8.78609 8.35068 10.0338 8.37742C10.0891 8.37859 10.1622 8.37993 10.253 8.3814C10.3022 8.3822 10.3491 8.4023 10.3836 8.43737C10.4182 8.47244 10.4375 8.51967 10.4375 8.56888V13.0995C10.4375 13.1487 10.4181 13.196 10.3835 13.2311C10.349 13.2662 10.302 13.2863 10.2527 13.287C10.1908 13.2879 10.1398 13.2887 10.0999 13.2894C8.78279 13.3135 7.59481 13.3911 6.53511 13.5234C6.48129 13.5302 6.42749 13.5372 6.37372 13.5444C6.34912 13.5476 6.32412 13.546 6.30016 13.5395C6.2762 13.533 6.25376 13.5219 6.23415 13.5067C6.21454 13.4915 6.19814 13.4725 6.1859 13.4509C6.17367 13.4293 6.16584 13.4055 6.16288 13.3809ZM10.4375 1.06647V7.05416C10.4375 7.07904 10.4325 7.10368 10.4229 7.12663C10.4133 7.14958 10.3992 7.17038 10.3815 7.18783C10.3637 7.20528 10.3427 7.21903 10.3196 7.22826C10.2965 7.2375 10.2718 7.24205 10.2469 7.24164L10.2006 7.24084C8.92663 7.21764 7.78801 7.13973 6.78566 7.0085C6.74863 7.00365 6.70311 6.99749 6.64909 6.98999C6.62312 6.98638 6.5982 6.97736 6.57594 6.96353C6.55368 6.94969 6.53456 6.93134 6.51983 6.90966C6.50509 6.88798 6.49507 6.86345 6.4904 6.83765C6.48574 6.81186 6.48653 6.78537 6.49273 6.7599C6.5022 6.72095 6.51043 6.68781 6.51737 6.66046C7.13384 4.23378 8.33251 2.36474 10.1151 1.03391C10.1443 1.01211 10.1799 0.986098 10.2219 0.955911C10.2423 0.941297 10.2663 0.932578 10.2912 0.930712C10.3162 0.928846 10.3412 0.933907 10.3635 0.945336C10.3858 0.956765 10.4045 0.97412 10.4175 0.995491C10.4306 1.01686 10.4375 1.04142 10.4375 1.06647ZM11.5625 1.05571C11.5625 1.03131 11.5692 1.00739 11.5819 0.986568C11.5947 0.965748 11.6129 0.948837 11.6346 0.937696C11.6563 0.926555 11.6806 0.921614 11.705 0.923418C11.7293 0.925221 11.7527 0.933699 11.7725 0.947918C11.8243 0.984959 11.8758 1.02259 11.9268 1.06082C13.6525 2.36195 14.8261 4.17207 15.4492 6.50907C15.4663 6.57318 15.4879 6.65865 15.5141 6.7655C15.5203 6.79101 15.5211 6.81755 15.5165 6.8434C15.5118 6.86924 15.5017 6.89382 15.487 6.91554C15.4722 6.93725 15.453 6.95562 15.4307 6.96946C15.4084 6.98329 15.3834 6.99228 15.3574 6.99585C15.3028 7.00332 15.2569 7.00944 15.2195 7.01427C14.2809 7.13521 13.2238 7.20974 12.0489 7.23671C11.9761 7.23838 11.8775 7.24023 11.753 7.2422C11.7281 7.2426 11.7034 7.23804 11.6803 7.2288C11.6572 7.21956 11.6362 7.20582 11.6185 7.18837C11.6008 7.17092 11.5867 7.15013 11.5771 7.12718C11.5675 7.10424 11.5625 7.07962 11.5625 7.05475V6.79893V1.05568V1.05571ZM6.57317 14.6537C6.68802 14.6388 6.78104 14.6271 6.85231 14.6188C7.81756 14.5056 8.90178 14.4372 10.1042 14.4146C10.1419 14.4139 10.1896 14.4131 10.2472 14.4123C10.272 14.4119 10.2967 14.4165 10.3198 14.4257C10.3429 14.435 10.3639 14.4487 10.3816 14.4662C10.3993 14.4836 10.4134 14.5044 10.423 14.5273C10.4326 14.5503 10.4375 14.5749 10.4375 14.5997V20.8121C10.4375 20.8467 10.4279 20.8807 10.4098 20.9102C10.3917 20.9397 10.3657 20.9637 10.3348 20.9793C10.3039 20.995 10.2693 21.0018 10.2348 20.999C10.2002 20.9962 10.1672 20.9838 10.1392 20.9634C10.0927 20.9294 10.0466 20.8949 10.0009 20.8599C8.24736 19.509 7.07511 17.6218 6.4824 15.1791C6.46449 15.1054 6.44176 15.0056 6.41415 14.8798C6.40858 14.8544 6.40835 14.8281 6.41347 14.8026C6.4186 14.7771 6.42897 14.753 6.44392 14.7317C6.45888 14.7104 6.47809 14.6925 6.50034 14.6791C6.52259 14.6656 6.54739 14.657 6.57317 14.6536V14.6537ZM15.5925 14.8774C15.5741 14.9626 15.5548 15.0477 15.5348 15.1325C14.9514 17.5739 13.7925 19.4635 12.0562 20.8203C12.0046 20.8606 11.9395 20.9095 11.8607 20.9671C11.8328 20.9876 11.7997 20.9999 11.7652 21.0027C11.7307 21.0055 11.6961 20.9987 11.6652 20.983C11.6343 20.9674 11.6083 20.9435 11.5902 20.9139C11.5721 20.8844 11.5625 20.8505 11.5625 20.8158V20.7383V14.8524V14.5995C11.5625 14.5746 11.5674 14.55 11.577 14.5271C11.5866 14.5042 11.6007 14.4834 11.6184 14.4659C11.6361 14.4485 11.6571 14.4347 11.6802 14.4255C11.7033 14.4162 11.728 14.4116 11.7529 14.412C11.879 14.4139 11.979 14.4157 12.0526 14.4173C13.2016 14.4423 14.241 14.5097 15.1702 14.6186C15.2377 14.6265 15.3254 14.6374 15.4334 14.6514C15.4591 14.6547 15.4839 14.6634 15.5062 14.6768C15.5285 14.6902 15.5477 14.7081 15.5626 14.7294C15.5776 14.7506 15.588 14.7748 15.5931 14.8002C15.5983 14.8257 15.5981 14.852 15.5925 14.8774L15.5925 14.8774ZM17.1034 10.9902C17.1034 10.1315 17.0585 9.31199 16.9687 8.53206C16.9555 8.41829 16.9351 8.26164 16.9074 8.06214C16.9009 8.01547 16.9122 7.96808 16.9391 7.92939C16.966 7.89069 17.0064 7.86353 17.0524 7.85331C17.1101 7.84057 17.1676 7.82748 17.2251 7.81403C18.4592 7.52277 19.4465 7.11906 20.1894 6.59914L20.2668 6.54498C20.2893 6.52925 20.315 6.51864 20.342 6.51391C20.369 6.50917 20.3967 6.51043 20.4232 6.51758C20.4497 6.52473 20.4743 6.53761 20.4953 6.5553C20.5162 6.573 20.5331 6.59507 20.5446 6.61998C20.5875 6.71296 20.6216 6.78878 20.6469 6.84744C21.1959 8.12104 21.5 9.52499 21.5 11C21.5 12.342 21.2482 13.6253 20.7893 14.8051C20.7659 14.8647 20.742 14.9241 20.7174 14.9832C20.7068 15.0088 20.6906 15.0318 20.67 15.0504C20.6495 15.0691 20.6251 15.0829 20.5985 15.091C20.5719 15.099 20.5439 15.1011 20.5165 15.097C20.489 15.0929 20.4628 15.0828 20.4398 15.0673L20.3846 15.0304C19.61 14.5116 18.5747 14.1111 17.276 13.825C17.2314 13.8152 17.1729 13.8028 17.1004 13.7877C17.0543 13.7781 17.0136 13.7516 16.9861 13.7134C16.9587 13.6751 16.9467 13.628 16.9524 13.5813C16.9624 13.5013 16.9718 13.4212 16.9807 13.341C17.0625 12.5934 17.1034 11.8097 17.1034 10.9902ZM14.3247 1.03726C16.4631 1.75054 18.2954 3.13304 19.5732 4.93625C19.6284 5.01425 19.702 5.12314 19.7938 5.2629C19.8206 5.30367 19.8304 5.35326 19.8212 5.40117C19.8121 5.44907 19.7846 5.49151 19.7446 5.51947L19.536 5.66549C18.9429 6.08057 18.1328 6.4165 17.1077 6.6703C17.046 6.68556 16.9623 6.7052 16.8565 6.72918C16.8082 6.74012 16.7576 6.73153 16.7156 6.70529C16.6737 6.67905 16.6438 6.63728 16.6325 6.58909C16.6221 6.54464 16.6115 6.50025 16.6007 6.45592C16.0613 4.26146 15.0882 2.45279 13.6823 1.04045C13.6669 1.02504 13.6571 1.005 13.6543 0.983441C13.6516 0.961882 13.656 0.940011 13.6669 0.921227C13.6779 0.902443 13.6947 0.887797 13.7148 0.879566C13.7349 0.871334 13.7572 0.869978 13.7782 0.875707C14.0083 0.938614 14.1904 0.992473 14.3247 1.03726ZM16.9316 14.9025C17.0119 14.9194 17.092 14.9369 17.172 14.9552C18.2627 15.2067 19.1217 15.5433 19.7467 15.9619L19.9706 16.1118C20.0105 16.1385 20.0386 16.1796 20.0492 16.2264C20.0597 16.2733 20.0519 16.3224 20.0273 16.3637C19.9574 16.4807 19.9011 16.5727 19.8584 16.6397C18.5673 18.6635 16.6016 20.2152 14.2783 20.9781C14.1878 21.0078 14.0753 21.0416 13.9407 21.0796C13.9087 21.0886 13.8747 21.0868 13.8438 21.0746C13.8129 21.0623 13.787 21.0402 13.77 21.0117C13.7529 20.9832 13.7457 20.9499 13.7495 20.9169C13.7533 20.8839 13.7679 20.8531 13.7909 20.8292C15.179 19.3915 16.1314 17.555 16.647 15.3305C16.6632 15.2607 16.6839 15.1662 16.7092 15.047C16.7196 14.9983 16.7488 14.9558 16.7905 14.9287C16.8322 14.9016 16.8829 14.8922 16.9316 14.9025H16.9316ZM1.63909 15.0304L1.56491 15.0801C1.54188 15.0955 1.51571 15.1056 1.4883 15.1097C1.46089 15.1138 1.4329 15.1118 1.40637 15.1038C1.37984 15.0958 1.35541 15.082 1.33485 15.0634C1.31428 15.0448 1.2981 15.0219 1.28745 14.9963C1.27761 14.9727 1.26789 14.949 1.2583 14.9252C0.769226 13.7126 0.5 12.3877 0.5 11C0.5 9.52982 0.802156 8.1302 1.34773 6.85989C1.37687 6.79206 1.41692 6.70328 1.46788 6.59352C1.47942 6.56867 1.49626 6.54665 1.51723 6.52901C1.5382 6.51137 1.56278 6.49854 1.58924 6.49142C1.6157 6.4843 1.6434 6.48307 1.67039 6.48782C1.69738 6.49256 1.723 6.50316 1.74545 6.51887L1.86013 6.59912C2.58097 7.10361 3.53202 7.49872 4.71535 7.7878C4.77441 7.80221 4.85434 7.82085 4.95521 7.84365C5.00113 7.85404 5.04147 7.88132 5.0682 7.92008C5.09493 7.95884 5.1061 8.00624 5.09949 8.05286C5.08541 8.15103 5.07208 8.2493 5.05951 8.34768C4.95488 9.18252 4.90255 10.0635 4.90255 10.9902C4.90255 11.8263 4.94516 12.6253 5.03033 13.3867C5.03783 13.4527 5.04569 13.5188 5.05391 13.5848C5.05967 13.6314 5.04766 13.6786 5.02028 13.7169C4.9929 13.7551 4.95214 13.7817 4.90609 13.7913C4.84163 13.8047 4.7892 13.8159 4.7488 13.8248C3.44966 14.1109 2.41395 14.5115 1.63911 15.0304L1.63909 15.0304ZM8.35393 1.01024C6.91733 2.44129 5.92866 4.28261 5.38895 6.52309C5.38501 6.5395 5.38051 6.55848 5.37542 6.58004C5.3641 6.62826 5.33416 6.67003 5.29214 6.69625C5.25012 6.72246 5.19943 6.73099 5.15115 6.71996C5.10637 6.70979 5.06165 6.69935 5.01699 6.68865C3.95621 6.43278 3.12111 6.09067 2.51356 5.66549L2.27035 5.49526C2.23042 5.46731 2.20294 5.42491 2.19374 5.37705C2.18454 5.32918 2.19434 5.27962 2.22106 5.23886C2.25933 5.18023 2.29819 5.12199 2.33764 5.06415C3.63223 3.17854 5.52655 1.73685 7.74545 1.01415C7.87344 0.972434 8.04786 0.921879 8.26866 0.862418C8.28746 0.857352 8.3074 0.858638 8.32539 0.866077C8.34337 0.873515 8.3584 0.886689 8.36812 0.90355C8.37785 0.920411 8.38173 0.940013 8.37916 0.959307C8.3766 0.978602 8.36773 0.996507 8.35393 1.01024ZM2.03579 16.1234L2.27701 15.9619C2.9004 15.5444 3.75643 15.2085 4.84302 14.9571C4.92017 14.9395 4.99747 14.9225 5.07491 14.9061C5.09901 14.901 5.12388 14.9006 5.14811 14.9051C5.17235 14.9096 5.19546 14.9188 5.21613 14.9322C5.2368 14.9456 5.25462 14.963 5.26858 14.9833C5.28254 15.0036 5.29235 15.0265 5.29747 15.0506C5.32091 15.161 5.34015 15.249 5.35524 15.3144C5.86775 17.5363 6.81526 19.3718 8.19681 20.8102L8.20189 20.8155C8.22618 20.8407 8.24146 20.8732 8.24534 20.908C8.24923 20.9428 8.24151 20.9779 8.22338 21.0078C8.20525 21.0377 8.17774 21.0608 8.14511 21.0735C8.11249 21.0862 8.07659 21.0877 8.04301 21.0779C5.54593 20.3464 3.43461 18.712 2.08641 16.5522C2.05002 16.4936 2.01423 16.4345 1.97902 16.3751C1.95446 16.3339 1.94666 16.2848 1.95722 16.2379C1.96778 16.1911 1.9959 16.1501 2.03579 16.1234V16.1234Z" fill="#333333"/>
</svg>
