<svg width="51" height="41" viewBox="0 0 51 41" fill="none" xmlns="http://www.w3.org/2000/svg">
<path d="M51 4.87027C49.1245 5.67086 47.0835 6.24704 44.9813 6.47145C47.1509 5.19172 48.7997 3.17204 49.5781 0.770266C47.5738 1.95296 45.3061 2.82027 42.9464 3.26908C41.0341 1.24941 38.319 0 35.3096 0C29.5176 0 24.8595 4.64586 24.8595 10.347C24.8595 11.1476 24.9576 11.9482 25.1169 12.7185C16.4443 12.2697 8.70941 8.16967 3.56712 1.89231C2.66002 3.43284 2.14517 5.19172 2.14517 7.11435C2.14517 10.7049 3.99002 13.8709 6.80327 15.7328C5.08713 15.6661 3.46905 15.187 2.07776 14.4167V14.5441C2.07776 19.572 5.66939 23.7388 10.4562 24.697C9.57974 24.9215 8.64199 25.0488 7.70424 25.0488C7.02392 25.0488 6.38036 24.9821 5.73068 24.8911C7.05456 28.9911 10.9097 31.9691 15.5004 32.0661C11.9088 34.85 7.41005 36.4876 2.52518 36.4876C1.64872 36.4876 0.839683 36.4572 0 36.3602C4.63358 39.3018 10.1314 41 16.052 41C35.2728 41 45.7903 25.2429 45.7903 11.5661C45.7903 11.1173 45.7903 10.6685 45.7596 10.2197C47.7945 8.74586 49.5781 6.92027 51 4.87027Z" fill="#4C91F0"/>
</svg>
