<svg width="102" height="35" viewBox="0 0 102 35" fill="none" xmlns="http://www.w3.org/2000/svg">
<path fill-rule="evenodd" clip-rule="evenodd" d="M54.9468 -0.000976562H0V27.7892H6.9475V34.1039H101.683V17.684H54.9468V-0.000976562Z" fill="#222222"/>
<path fill-rule="evenodd" clip-rule="evenodd" d="M49.2628 4.4209H42.9471V23.368V23.368V29.6837H61.8942V23.368H49.2628V4.4209ZM11.3684 4.42113H5.05273V23.3683H11.3683V29.6837H17.684V23.368H23.9997V29.6837H30.3154V23.368H36.6311V4.4209H30.3154V23.368H23.9997V4.4209H17.684V23.368H11.3684V4.42113ZM71.9994 23.368H65.6837V29.6837H71.9994V23.368Z" fill="white"/>
<path fill-rule="evenodd" clip-rule="evenodd" d="M83.7283 23.4697H82.1945V25.0035H83.7283V23.4697ZM76.0593 23.4698H74.5255V25.0036H76.0593V23.4698ZM82.1945 25.0044H83.7283V28.0721H82.1945V25.0044ZM86.7963 30.756H83.7287V32.2898H86.7963V30.756ZM92.9314 25.0044H94.4653V26.5382H92.9316V28.0708H91.3978V26.537H92.9314V25.0044ZM89.8637 28.0716H95.9989V29.6055H89.8637V28.0716ZM86.7959 28.0716H85.2625H85.2623H83.7287V29.6055H85.2623H85.2625H86.7959V30.7554H88.3297V23.4697H86.7959V28.0716ZM76.0593 25.0044H77.5931V26.537V26.5382V28.0708H76.0593V26.5382V26.537V25.0044ZM79.127 28.0708V26.5382V26.537V25.0044H77.5932V26.537V26.5382V28.0708H79.127ZM79.1268 23.4697H80.6606V25.0035H79.1268V23.4697ZM76.0592 28.0716H74.5254V29.6055H76.0592V28.0716ZM89.8637 23.4697H95.9989V25.0035H89.8637V23.4697ZM80.6606 28.0716H79.1268V29.6055H80.6606V28.0716Z" fill="#3DD606"/>
</svg>
