<svg width="81" height="80" viewBox="0 0 81 80" fill="none" xmlns="http://www.w3.org/2000/svg">
    <rect width="100" height="100" fill="#14171a" />
    <path
        d="M10.8057 0C5.28166 0 0.805664 4.477 0.805664 10C0.805664 15.521 5.28166 20 10.8057 20C16.3297 20 20.8057 15.521 20.8057 10C20.8057 4.477 16.3297 0 10.8057 0Z"
        fill="white" />
    <path
        d="M70.8057 60C66.4567 60 62.7947 62.793 61.4177 66.667H50.1937C48.8167 62.793 45.1547 60 40.8057 60C35.2817 60 30.8057 64.479 30.8057 70C30.8057 75.521 35.2817 80 40.8057 80C45.1547 80 48.8167 77.207 50.1937 73.333H61.4187C62.7947 77.207 66.4567 80 70.8057 80C76.3297 80 80.8057 75.521 80.8057 70C80.8057 64.479 76.3297 60 70.8057 60Z"
        fill="white" />
    <path
        d="M74.1387 30.611V19.389C78.0157 18.008 80.8057 14.346 80.8057 10C80.8057 4.477 76.3297 0 70.8057 0C65.2817 0 60.8057 4.477 60.8057 10C60.8057 14.346 63.5957 18.008 67.4727 19.389V30.612C67.1467 30.729 66.8277 30.854 66.5187 31.001L49.8067 14.283C50.4277 12.982 50.8057 11.539 50.8057 10C50.8057 4.477 46.3297 0 40.8057 0C35.2817 0 30.8057 4.477 30.8057 10C30.8057 15.521 35.2817 20 40.8057 20C42.3487 20 43.7867 19.623 45.0927 19L61.8047 35.713C61.1837 37.018 60.8057 38.457 60.8057 40C60.8057 45.521 65.2817 50 70.8057 50C76.3297 50 80.8057 45.521 80.8057 40C80.8057 35.65 78.0157 31.988 74.1387 30.611Z"
        fill="white" />
    <path
        d="M40.8057 30C36.4567 30 32.7947 32.793 31.4177 36.666H20.1937C18.8137 32.793 15.1517 30 10.8057 30C5.28166 30 0.805664 34.477 0.805664 40C0.805664 45.523 5.28166 50 10.8057 50C15.1517 50 18.8137 47.211 20.1937 43.334H31.4187C31.5357 43.658 31.6587 43.979 31.8057 44.287L15.0897 60.999C13.7867 60.378 12.3457 60 10.8057 60C5.28166 60 0.805664 64.476 0.805664 70C0.805664 75.524 5.28166 80 10.8057 80C16.3267 80 20.8057 75.524 20.8057 70C20.8057 68.46 20.4277 67.019 19.8067 65.713L36.5187 49C37.8247 49.623 39.2627 50 40.8057 50C46.3267 50 50.8057 45.523 50.8057 40C50.8057 34.477 46.3267 30 40.8057 30Z"
        fill="white" />
</svg>