<svg width="18" height="12" viewBox="0 0 18 12" fill="none" xmlns="http://www.w3.org/2000/svg">
<path fill-rule="evenodd" clip-rule="evenodd" d="M18 2C18 0.895431 17.1046 0 16 0L2 0C0.895431 0 0 0.895431 0 2C0 3.10457 0.895431 4 2 4C3.10457 4 4 4.89543 4 6V6.5C4 7.32843 4.67157 8 5.5 8C6.32843 8 7 8.67157 7 9.5V10C7 11.1046 7.89543 12 9 12C10.1046 12 11 11.1046 11 10V9.5C11 8.67157 11.6716 8 12.5 8C13.3284 8 14 7.32843 14 6.5V6C14 4.89543 14.8954 4 16 4C17.1046 4 18 3.10457 18 2Z" fill="#333333" fill-opacity="0.3"/>
</svg>
