<svg width="19" height="19" viewBox="0 0 19 19" fill="none" xmlns="http://www.w3.org/2000/svg">
<path d="M1.41999 18.5787C1.13948 18.5782 0.872062 18.4599 0.682993 18.2527C0.490439 18.0471 0.394758 17.7692 0.419993 17.4887L0.664993 14.7947L11.983 3.48066L15.52 7.01666L4.20499 18.3297L1.51099 18.5747C1.47999 18.5777 1.44899 18.5787 1.41999 18.5787ZM16.226 6.30966L12.69 2.77366L14.811 0.652662C14.9986 0.464885 15.2531 0.359375 15.5185 0.359375C15.7839 0.359375 16.0384 0.464885 16.226 0.652662L18.347 2.77366C18.5348 2.96123 18.6403 3.21575 18.6403 3.48116C18.6403 3.74657 18.5348 4.00109 18.347 4.18866L16.227 6.30866L16.226 6.30966Z" fill="white" fill-opacity="0.8"/>
</svg>
