<svg width="51" height="43" viewBox="0 0 51 43" fill="none" xmlns="http://www.w3.org/2000/svg">
<path d="M47.3087 21.4619H41.7104C41.7104 10.053 32.4294 0.804688 20.9798 0.804688C9.67202 0.804688 0.478664 9.82654 0.253658 21.04C0.0208808 32.6313 10.9342 42.6967 22.5682 42.6967H24.0316C34.2883 42.6967 48.0354 34.696 50.1833 24.9478C50.5799 23.1509 49.1555 21.4619 47.3087 21.4619ZM12.6604 21.9701C12.6604 23.4958 11.4081 24.7436 9.87702 24.7436C8.3459 24.7436 7.09367 23.4952 7.09367 21.9701V17.4833C7.09367 15.9577 8.3459 14.7098 9.87702 14.7098C11.4081 14.7098 12.6604 15.9577 12.6604 17.4833V21.9701ZM22.3253 21.9701C22.3253 23.4958 21.0732 24.7436 19.5421 24.7436C18.0109 24.7436 16.7587 23.4952 16.7587 21.9701V17.4833C16.7587 15.9577 18.0114 14.7098 19.5421 14.7098C21.0732 14.7098 22.3253 15.9577 22.3253 17.4833V21.9701Z" fill="url(#paint0_linear_1146_2601)"/>
<defs>
<linearGradient id="paint0_linear_1146_2601" x1="25.2499" y1="0.804688" x2="25.2499" y2="42.6967" gradientUnits="userSpaceOnUse">
<stop stop-color="white"/>
<stop offset="1" stop-color="white" stop-opacity="0.82"/>
</linearGradient>
</defs>
</svg>
