<svg width="20" height="16" viewBox="0 0 20 16" fill="none" xmlns="http://www.w3.org/2000/svg">
<path d="M19.7504 1.96016C19.0332 2.26953 18.2527 2.49219 17.4488 2.57891C18.2785 2.08438 18.909 1.30391 19.2066 0.375781C18.4402 0.832812 17.573 1.16797 16.6707 1.34141C15.9395 0.560937 14.9012 0.078125 13.7504 0.078125C11.5355 0.078125 9.7543 1.87344 9.7543 4.07656C9.7543 4.38594 9.7918 4.69531 9.85274 4.99297C6.53633 4.81953 3.57852 3.23516 1.61211 0.809375C1.26523 1.40469 1.06836 2.08437 1.06836 2.82734C1.06836 4.21484 1.77383 5.43828 2.84961 6.15781C2.19336 6.13203 1.57461 5.94688 1.04258 5.64922V5.69844C1.04258 7.64141 2.41602 9.25156 4.24649 9.62188C3.91133 9.70859 3.55274 9.75781 3.19414 9.75781C2.93398 9.75781 2.68789 9.73203 2.43945 9.69688C2.9457 11.2813 4.41992 12.432 6.17539 12.4695C4.80195 13.5453 3.08164 14.1781 1.21367 14.1781C0.878516 14.1781 0.569141 14.1664 0.248047 14.1289C2.01992 15.2656 4.12227 15.9219 6.38633 15.9219C13.7363 15.9219 17.7582 9.83281 17.7582 4.54766C17.7582 4.37422 17.7582 4.20078 17.7465 4.02734C18.5246 3.45781 19.2066 2.75234 19.7504 1.96016Z" fill="#333333"/>
</svg>
