<svg width="25" height="24" viewBox="0 0 25 24" fill="none" xmlns="http://www.w3.org/2000/svg">
<path d="M22.2499 5.96016C21.5327 6.26953 20.7522 6.49219 19.9483 6.57891C20.778 6.08438 21.4085 5.30391 21.7062 4.37578C20.9397 4.83281 20.0726 5.16797 19.1702 5.34141C18.439 4.56094 17.4007 4.07812 16.2499 4.07812C14.0351 4.07812 12.2538 5.87344 12.2538 8.07656C12.2538 8.38594 12.2913 8.69531 12.3522 8.99297C9.03584 8.81953 6.07803 7.23516 4.11162 4.80937C3.76475 5.40469 3.56787 6.08437 3.56787 6.82734C3.56787 8.21484 4.27334 9.43828 5.34912 10.1578C4.69287 10.132 4.07412 9.94688 3.54209 9.64922V9.69844C3.54209 11.6414 4.91553 13.2516 6.746 13.6219C6.41084 13.7086 6.05225 13.7578 5.69365 13.7578C5.4335 13.7578 5.1874 13.732 4.93897 13.6969C5.44521 15.2813 6.91943 16.432 8.6749 16.4695C7.30147 17.5453 5.58115 18.1781 3.71318 18.1781C3.37803 18.1781 3.06865 18.1664 2.74756 18.1289C4.51943 19.2656 6.62178 19.9219 8.88584 19.9219C16.2358 19.9219 20.2577 13.8328 20.2577 8.54766C20.2577 8.37422 20.2577 8.20078 20.246 8.02734C21.0241 7.45781 21.7062 6.75234 22.2499 5.96016Z" fill="white"/>
</svg>
