<svg width="18" height="14" viewBox="0 0 18 14" fill="none" xmlns="http://www.w3.org/2000/svg">
<path d="M17.125 1.9668C16.5273 2.22461 15.877 2.41016 15.207 2.48242C15.8984 2.07031 16.4238 1.41992 16.6719 0.646484C16.0332 1.02734 15.3105 1.30664 14.5586 1.45117C13.9492 0.800781 13.084 0.398438 12.125 0.398438C10.2793 0.398438 8.79492 1.89453 8.79492 3.73047C8.79492 3.98828 8.82617 4.24609 8.87696 4.49414C6.11328 4.34961 3.64844 3.0293 2.00977 1.00781C1.7207 1.50391 1.55664 2.07031 1.55664 2.68945C1.55664 3.8457 2.14453 4.86523 3.04102 5.46484C2.49414 5.44336 1.97852 5.28906 1.53516 5.04102V5.08203C1.53516 6.70117 2.67969 8.04297 4.20508 8.35156C3.92578 8.42383 3.62695 8.46484 3.32813 8.46484C3.11133 8.46484 2.90625 8.44336 2.69922 8.41406C3.12109 9.73438 4.34961 10.6934 5.8125 10.7246C4.66797 11.6211 3.23438 12.1484 1.67773 12.1484C1.39844 12.1484 1.14063 12.1387 0.873047 12.1074C2.34961 13.0547 4.10156 13.6016 5.98828 13.6016C12.1133 13.6016 15.4648 8.52734 15.4648 4.12305C15.4648 3.97852 15.4648 3.83398 15.4551 3.68945C16.1035 3.21484 16.6719 2.62695 17.125 1.9668Z" fill="#4C91F0"/>
</svg>
