<svg width="12" height="18" viewBox="0 0 12 18" fill="none" xmlns="http://www.w3.org/2000/svg">
<mask id="path-1-inside-1_1821_11708" fill="white">
<path fill-rule="evenodd" clip-rule="evenodd" d="M10 -8.74228e-08C11.1046 -3.91405e-08 12 0.89543 12 2L12 16C12 17.1046 11.1046 18 10 18C8.89543 18 8 17.1046 8 16C8 14.8954 7.10457 14 6 14L5.5 14C4.67157 14 4 13.3284 4 12.5C4 11.6716 3.32843 11 2.5 11L2 11C0.895431 11 3.4512e-07 10.1046 3.93402e-07 9C4.41685e-07 7.89543 0.895431 7 2 7L2.5 7C3.32843 7 4 6.32843 4 5.5C4 4.67157 4.67157 4 5.5 4L6 4C7.10457 4 8 3.10457 8 2C8 0.895431 8.89543 -1.35705e-07 10 -8.74228e-08Z"/>
</mask>
<path fill-rule="evenodd" clip-rule="evenodd" d="M10 -8.74228e-08C11.1046 -3.91405e-08 12 0.89543 12 2L12 16C12 17.1046 11.1046 18 10 18C8.89543 18 8 17.1046 8 16C8 14.8954 7.10457 14 6 14L5.5 14C4.67157 14 4 13.3284 4 12.5C4 11.6716 3.32843 11 2.5 11L2 11C0.895431 11 3.4512e-07 10.1046 3.93402e-07 9C4.41685e-07 7.89543 0.895431 7 2 7L2.5 7C3.32843 7 4 6.32843 4 5.5C4 4.67157 4.67157 4 5.5 4L6 4C7.10457 4 8 3.10457 8 2C8 0.895431 8.89543 -1.35705e-07 10 -8.74228e-08Z" fill="#333333"/>
<path d="M2.5 7L2.5 5L2.5 7ZM2 7L2 5L2 7ZM10 16L10 2L14 2L14 16L10 16ZM6 16L5.5 16L5.5 12L6 12L6 16ZM2.5 13L2 13L2 9L2.5 9L2.5 13ZM2 5L2.5 5L2.5 9L2 9L2 5ZM5.5 2L6 2L6 6L5.5 6L5.5 2ZM6 2C6 -0.209139 7.79086 -2 10 -2L10 2L6 2ZM6 2L6 2L10 2C10 4.20914 8.20914 6 6 6L6 2ZM2 5.5C2 3.567 3.567 2 5.5 2L5.5 6C5.77614 6 6 5.77614 6 5.5L2 5.5ZM2.5 5C2.22386 5 2 5.22386 2 5.5L6 5.5C6 7.433 4.433 9 2.5 9L2.5 5ZM-2 9C-2 6.79086 -0.209138 5 2 5L2 9L-2 9ZM2 13C-0.209139 13 -2 11.2091 -2 9L2 9L2 13ZM2 12.5C2 12.7761 2.22386 13 2.5 13L2.5 9C4.433 9 6 10.567 6 12.5L2 12.5ZM5.5 16C3.567 16 2 14.433 2 12.5L6 12.5C6 12.2239 5.77614 12 5.5 12L5.5 16ZM6 16L6 16L6 12C8.20914 12 10 13.7909 10 16L6 16ZM10 20C7.79086 20 6 18.2091 6 16L10 16L10 16L10 20ZM10 2L10 2L10 -2C12.2091 -2 14 -0.209141 14 2L10 2ZM14 16C14 18.2091 12.2091 20 10 20L10 16L10 16L14 16Z" fill="#333333" mask="url(#path-1-inside-1_1821_11708)"/>
</svg>
