<svg width="16" height="24" viewBox="0 0 16 24" fill="none" xmlns="http://www.w3.org/2000/svg">
<mask id="path-1-inside-1_1043_2490" fill="white">
<path fill-rule="evenodd" clip-rule="evenodd" d="M-1.04907e-06 0L0 24L4 24L4 21L8 21L8 17L12 17L12 14L16 14L16 10L12 10L12 7L8 7L8 3L4 3L4 -1.74846e-07L-1.04907e-06 0Z"/>
</mask>
<path fill-rule="evenodd" clip-rule="evenodd" d="M-1.04907e-06 0L0 24L4 24L4 21L8 21L8 17L12 17L12 14L16 14L16 10L12 10L12 7L8 7L8 3L4 3L4 -1.74846e-07L-1.04907e-06 0Z" fill="#333333"/>
<path d="M0 24L-4 24L-4 28L1.74846e-07 28L0 24ZM-1.04907e-06 0L-1.22392e-06 -4L-4 -4L-4 1.74846e-07L-1.04907e-06 0ZM4 24L4 28L8 28L8 24L4 24ZM4 21L4 17L-1.57755e-06 17L-1.31134e-07 21L4 21ZM8 21L8 25L12 25L12 21L8 21ZM8 17L8 13L4 13L4 17L8 17ZM12 17L12 21L16 21L16 17L12 17ZM12 14L12 10L8 10L8 14L12 14ZM16 14L16 18L20 18L20 14L16 14ZM16 10L20 10L20 6L16 6L16 10ZM12 10L8 10L8 14L12 14L12 10ZM12 7L16 7L16 3L12 3L12 7ZM8 7L4 7L4 11L8 11L8 7ZM8 3L12 3L12 -1L8 -1L8 3ZM4 3L-9.17939e-07 3L-2.01466e-06 7L4 7L4 3ZM4 -1.74846e-07L8 1.55766e-06L8 -4L4 -4L4 -1.74846e-07ZM4 24L4 -1.74846e-07L-4 1.74846e-07L-4 24L4 24ZM4 20L-1.74846e-07 20L1.74846e-07 28L4 28L4 20ZM-1.31134e-07 21L9.53675e-07 24L8 24L8 21L-1.31134e-07 21ZM4 25L8 25L8 17L4 17L4 25ZM12 21L12 17L4 17L4 21L12 21ZM8 21L12 21L12 13L8 13L8 21ZM16 17L16 14L8 14L8 17L16 17ZM12 18L16 18L16 10L12 10L12 18ZM20 14L20 10L12 10L12 14L20 14ZM16 6L12 6L12 14L16 14L16 6ZM16 10L16 7L8 7L8 10L16 10ZM12 3L8 3L8 11L12 11L12 3ZM12 7L12 3L4 3L4 7L12 7ZM8 -1L4 -1L4 7L8 7L8 -1ZM-9.53989e-08 -1.90735e-06L-9.17939e-07 3L8 3L8 1.55766e-06L-9.53989e-08 -1.90735e-06ZM-8.74228e-07 4L4 4L4 -4L-1.22392e-06 -4L-8.74228e-07 4Z" fill="#333333" mask="url(#path-1-inside-1_1043_2490)"/>
</svg>
