<svg width="16" height="24" viewBox="0 0 16 24" fill="none" xmlns="http://www.w3.org/2000/svg">
<mask id="path-1-inside-1_1043_2413" fill="white">
<path fill-rule="evenodd" clip-rule="evenodd" d="M16 0L16 24L12 24L12 21L8 21L8 17L4 17L4 14L4.37114e-07 14L6.11959e-07 10L4 10L4 7L8 7L8 3L12 3L12 -1.74846e-07L16 0Z"/>
</mask>
<path fill-rule="evenodd" clip-rule="evenodd" d="M16 0L16 24L12 24L12 21L8 21L8 17L4 17L4 14L4.37114e-07 14L6.11959e-07 10L4 10L4 7L8 7L8 3L12 3L12 -1.74846e-07L16 0Z" fill="#333333"/>
<path d="M16 24L20 24L20 28L16 28L16 24ZM16 0L16 -4L20 -4L20 1.74846e-07L16 0ZM12 24L12 28L8 28L8 24L12 24ZM12 21L12 17L16 17L16 21L12 21ZM8 21L8 25L4 25L4 21L8 21ZM8 17L8 13L12 13L12 17L8 17ZM4 17L4 21L1.31134e-07 21L3.0598e-07 17L4 17ZM4 14L4 10L8 10L8 14L4 14ZM4.37114e-07 14L2.62268e-07 18L-4 18L-4 14L4.37114e-07 14ZM6.11959e-07 10L-4 10L-4 6L7.86805e-07 6L6.11959e-07 10ZM4 10L8 10L8 14L4 14L4 10ZM4 7L7.43094e-07 7L9.17939e-07 3L4 3L4 7ZM8 7L12 7L12 11L8 11L8 7ZM8 3L4 3L4 -1L8 -1L8 3ZM12 3L16 3L16 7L12 7L12 3ZM12 -1.74846e-07L8 1.55766e-06L8 -4L12 -4L12 -1.74846e-07ZM12 24L12 -1.74846e-07L20 1.74846e-07L20 24L12 24ZM12 20L16 20L16 28L12 28L12 20ZM16 21L16 24L8 24L8 21L16 21ZM12 25L8 25L8 17L12 17L12 25ZM4 21L4 17L12 17L12 21L4 21ZM8 21L4 21L4 13L8 13L8 21ZM3.0598e-07 17L4.37114e-07 14L8 14L8 17L3.0598e-07 17ZM4 18L2.62268e-07 18L6.11959e-07 10L4 10L4 18ZM-4 14L-4 10L4 10L4 14L-4 14ZM7.86805e-07 6L4 6L4 14L4.37114e-07 14L7.86805e-07 6ZM6.11959e-07 10L7.43094e-07 7L8 7L8 10L6.11959e-07 10ZM4 3L8 3L8 11L4 11L4 3ZM4 7L4 3L12 3L12 7L4 7ZM8 -1L12 -1L12 7L8 7L8 -1ZM16 -1.90735e-06L16 3L8 3L8 1.55766e-06L16 -1.90735e-06ZM16 4L12 4L12 -4L16 -4L16 4Z" fill="#333333" mask="url(#path-1-inside-1_1043_2413)"/>
</svg>
