<svg width="12" height="18" viewBox="0 0 12 18" fill="none" xmlns="http://www.w3.org/2000/svg">
<mask id="path-1-inside-1_1821_11714" fill="white">
<path fill-rule="evenodd" clip-rule="evenodd" d="M2 -8.74228e-08C0.89543 -3.91405e-08 -7.47665e-07 0.89543 -6.99382e-07 2L-8.74228e-08 16C-3.91405e-08 17.1046 0.895431 18 2 18C3.10457 18 4 17.1046 4 16C4 14.8954 4.89543 14 6 14L6.5 14C7.32843 14 8 13.3284 8 12.5C8 11.6716 8.67157 11 9.5 11L10 11C11.1046 11 12 10.1046 12 9C12 7.89543 11.1046 7 10 7L9.5 7C8.67157 7 8 6.32843 8 5.5C8 4.67157 7.32843 4 6.5 4L6 4C4.89543 4 4 3.10457 4 2C4 0.895431 3.10457 -1.35705e-07 2 -8.74228e-08Z"/>
</mask>
<path fill-rule="evenodd" clip-rule="evenodd" d="M2 -8.74228e-08C0.89543 -3.91405e-08 -7.47665e-07 0.89543 -6.99382e-07 2L-8.74228e-08 16C-3.91405e-08 17.1046 0.895431 18 2 18C3.10457 18 4 17.1046 4 16C4 14.8954 4.89543 14 6 14L6.5 14C7.32843 14 8 13.3284 8 12.5C8 11.6716 8.67157 11 9.5 11L10 11C11.1046 11 12 10.1046 12 9C12 7.89543 11.1046 7 10 7L9.5 7C8.67157 7 8 6.32843 8 5.5C8 4.67157 7.32843 4 6.5 4L6 4C4.89543 4 4 3.10457 4 2C4 0.895431 3.10457 -1.35705e-07 2 -8.74228e-08Z" fill="#333333"/>
<path d="M6.5 4L6.5 6L6.5 4ZM9.5 7L9.5 5L9.5 7ZM10 7L10 9L10 7ZM6.5 14L6.5 12L6.5 14ZM6 14L6 16L6 14ZM2 16L2 2L-2 2L-2 16L2 16ZM6 16L6.5 16L6.5 12L6 12L6 16ZM9.5 13L10 13L10 9L9.5 9L9.5 13ZM10 5L9.5 5L9.5 9L10 9L10 5ZM6.5 2L6 2L6 6L6.5 6L6.5 2ZM6 2C6 -0.209139 4.20914 -2 2 -2L2 2L6 2ZM6 2L6 2L2 2C2 4.20914 3.79086 6 6 6L6 2ZM10 5.5C10 3.567 8.433 2 6.5 2L6.5 6C6.22386 6 6 5.77614 6 5.5L10 5.5ZM9.5 5C9.77614 5 10 5.22386 10 5.5L6 5.5C6 7.433 7.567 9 9.5 9L9.5 5ZM14 9C14 6.79086 12.2091 5 10 5L10 9L14 9ZM10 13C12.2091 13 14 11.2091 14 9L10 9L10 13ZM10 12.5C10 12.7761 9.77614 13 9.5 13L9.5 9C7.567 9 6 10.567 6 12.5L10 12.5ZM6.5 16C8.433 16 10 14.433 10 12.5L6 12.5C6 12.2239 6.22386 12 6.5 12L6.5 16ZM6 16L6 16L6 12C3.79086 12 2 13.7909 2 16L6 16ZM2 20C4.20914 20 6 18.2091 6 16L2 16L2 16L2 20ZM2 2L2 2L2 -2C-0.209139 -2 -2 -0.209141 -2 2L2 2ZM-2 16C-2 18.2091 -0.209138 20 2 20L2 16L2 16L-2 16Z" fill="#333333" mask="url(#path-1-inside-1_1821_11714)"/>
</svg>
