<svg width="56.309px" height="56.309px" viewBox="0 -3.33 56.309 56.309" xmlns="http://www.w3.org/2000/svg">
  <path id="heart_like" data-name="heart like" d="M957.027,551.415c-.065-.059-.1-.1-.117-.111h0l.453-.425-.457.419c-7.531-7.535-14.246-14.078-19.121-19.645h0c-4.844-5.591-8-10.078-8.069-14.2h0a2.966,2.966,0,0,1,.007-.311h0A14.618,14.618,0,0,1,944.329,502.6h0a14.577,14.577,0,0,1,13.21,8.434h0l.325.7.012-.019.316-.684a14.608,14.608,0,0,1,13.222-8.43h0a14.6,14.6,0,0,1,14.6,14.548h0c0,.109,0,.214.008.311h0c-.075,4.122-3.231,8.607-8.074,14.2h0c-4.868,5.557-11.566,12.088-19.087,19.608h0a.706.706,0,0,0-.054.062h0l-.848.917-.934-.829ZM932.266,517.2l0,.069v.042s0,.053,0,.136h0c-.071,2.666,2.643,7.114,7.441,12.527h0c4.594,5.25,10.984,11.513,18.171,18.685h0c7.2-7.189,13.575-13.441,18.164-18.682h0c4.8-5.411,7.517-9.858,7.446-12.524h0c0-.073,0-.142-.008-.253h0a12.067,12.067,0,0,0-12.059-12.063h0A12.067,12.067,0,0,0,960.5,512.1h0l-.316.685-.183.383-.04.065a2.471,2.471,0,0,1-2.086,1.16h0a2.506,2.506,0,0,1-2.191-1.335h0a2.581,2.581,0,0,1-.121-.258h0l-.325-.7a12.033,12.033,0,0,0-10.9-6.965h0A12.069,12.069,0,0,0,932.266,517.2Zm25.671-5.3s0,.005-.014-.035h0l.014.035Z" transform="translate(-929.715 -502.598)" fill="#2c3233"/>
</svg>
