<svg width="20" height="20" viewBox="0 0 20 20" fill="none" xmlns="http://www.w3.org/2000/svg">
<path d="M13.0268 2.58574C14.2122 2.3291 15.3148 2.66073 16.1287 3.42402C16.9465 4.19103 17.5 5.42257 17.5 6.99815C17.5 8.17523 16.9683 9.70745 15.8363 11.3685C14.7103 13.0208 13.0134 14.7652 10.7457 16.3607C10.526 16.5149 10.2658 16.5971 9.99996 16.5971C9.73409 16.5971 9.47394 16.5149 9.25421 16.3607C6.98647 14.7652 5.28963 13.0208 4.16361 11.3685C3.03164 9.70745 2.49996 8.17523 2.49996 6.99815C2.49996 5.42257 3.05339 4.19103 3.87126 3.42402C4.68517 2.66073 5.78776 2.3291 6.97316 2.58574C7.41559 2.68152 7.91945 3.00616 8.39601 3.41838C8.86057 3.82021 9.24571 4.25784 9.45039 4.50479C9.73498 4.84815 10.2649 4.84815 10.5495 4.50479C10.7542 4.25784 11.1394 3.82021 11.6039 3.41838C12.0805 3.00616 12.5843 2.68152 13.0268 2.58574Z" stroke="#566370"/>
</svg>
