<svg width="18" height="8" viewBox="0 0 18 8" fill="none" xmlns="http://www.w3.org/2000/svg">
<path d="M7.94352 0L5.16552 8H2.778L0 0H2.03051L3.97176 6.03989L5.92417 0H7.94352Z" fill="#333333"/>
<path d="M10.6487 0V8H8.74087V0H10.6487Z" fill="#333333"/>
<path d="M18 2.5755C18 3.03894 17.8959 3.46439 17.6876 3.85185C17.4794 4.23172 17.1595 4.53941 16.7281 4.77493C16.2968 5.01045 15.7612 5.12821 15.1216 5.12821H13.939V8H12.0312V0H15.1216C15.7464 0 16.2744 0.110161 16.7058 0.330484C17.1372 0.550807 17.4608 0.854701 17.6765 1.24216C17.8922 1.62963 18 2.07407 18 2.5755ZM14.9766 3.57835C15.341 3.57835 15.6125 3.49098 15.791 3.31624C15.9695 3.1415 16.0587 2.89459 16.0587 2.5755C16.0587 2.25641 15.9695 2.0095 15.791 1.83476C15.6125 1.66002 15.341 1.57265 14.9766 1.57265H13.939V3.57835H14.9766Z" fill="#333333"/>
</svg>
