<svg width="275" height="36" viewBox="0 0 275 36" fill="none" xmlns="http://www.w3.org/2000/svg">
<path fill-rule="evenodd" clip-rule="evenodd" d="M0 0V36H72.003V34.2H74.7031V32.4H77.4032V30.6H79.2033V27.9H81.0034V25.2H82.8035V10.8H81.0034V8.1H79.2033V5.4H77.4032V3.6H74.7031V1.8H72.003V0H0Z" fill="#222222"/>
<path fill-rule="evenodd" clip-rule="evenodd" d="M43.2019 16.2V12.6H39.6017V16.2H36.0016V19.8H39.6017V23.4H43.2019V19.8H46.802V16.2H43.2019Z" fill="white"/>
<path fill-rule="evenodd" clip-rule="evenodd" d="M79.2033 24.3V11.7H77.4032V8.99998H75.6032V7.19998H73.8031V5.39998H71.103V3.59998H58.5024V5.39998H55.8023V7.19998H54.0023V8.99998H52.2022V11.7H50.4021V24.3H52.2022V27H54.0023V28.8H55.8023V30.6H58.5024V32.4H71.103V30.6H73.8031V28.8H75.6032V27H77.4032V24.3H79.2033Z" fill="white"/>
<path d="M69.3029 5.40002H60.3025V7.20002H57.6024V9.00002H55.8023V10.8H54.0022V13.5H52.2021V22.5H54.0022V25.2H55.8023V27H57.6024V28.8H60.3025V30.6H69.3029V28.8H72.003V27H73.803V25.2H75.6031V22.5H77.4032V13.5H75.6031V10.8H73.803V9.00002H72.003V7.20002H69.3029V5.40002Z" fill="#FFD600"/>
<path d="M63.0027 24.3V26.1H65.7028V24.3H70.203V21.6H72.003V18.9H70.203V16.2H61.2026V13.5H70.203V10.8H65.7028V9H63.0027V10.8H58.5025V13.5H56.7024V16.2H58.5025V18.9H67.5028V21.6H58.5025V24.3H63.0027Z" fill="#513F00"/>
<path d="M32.4012 3.59998H3.59998V32.4H32.4012V3.59998Z" fill="white"/>
<path d="M30.6014 5.40002H5.40039V30.6H30.6014V5.40002Z" fill="#3DD606"/>
<path d="M12.6004 9H11.7004H10.8003V9.9V10.8H9.90028H9.00024V13.5H9.90028H10.8003V14.4V15.3H13.5004V14.4V13.5H14.4005H15.3005V10.8H14.4005H13.5004V9.9V9H12.6004Z" fill="#185A00"/>
<path d="M30.6014 30.6V9.89996H27.4513V15.75H24.7512V18.9H22.5011V22.05H18.0009V20.25H14.8508V18.45H11.2506V21.15H9.45056V23.85H7.20047V27.9H5.40039V30.6H30.6014Z" fill="#185A00"/>
<path d="M93.6039 28.575V8.09998H114.08V11.025H99.4541V16.875H111.155V19.8H99.4541V25.65H114.08V28.575H93.6039Z" fill="#222222"/>
<path d="M117.005 28.575V8.09998H122.855V11.025H125.78V13.95H128.705V16.875H131.63V8.09998H137.48V28.575H131.63V22.725H128.705V19.8H125.78V16.875H122.855V28.575H117.005Z" fill="#222222"/>
<path d="M146.256 28.575V25.65H143.331V22.725H140.406V13.95H143.331V11.025H146.256V8.09998H157.956V11.025H160.882V13.95H155.031V11.025H149.181V13.95H146.256V22.725H149.181V25.65H155.031V22.725H160.882V25.65H157.956V28.575H146.256Z" fill="#222222"/>
<path d="M163.807 28.575V8.09998H169.657V16.875H178.432V8.09998H184.283V28.575H178.432V19.8H169.657V28.575H163.807Z" fill="#222222"/>
<path d="M187.208 28.575V13.95H190.133V11.025H193.058V8.09998H201.833V11.025H204.758V13.95H207.684V28.575H201.833V22.725H193.058V28.575H187.208ZM193.058 19.8H201.833V13.95H198.908V11.025H195.983V13.95H193.058V19.8Z" fill="#222222"/>
<path d="M210.609 28.575V8.09998H216.459V11.025H219.384V13.95H222.309V16.875H225.234V8.09998H231.085V28.575H225.234V22.725H222.309V19.8H219.384V16.875H216.459V28.575H210.609Z" fill="#3DD606"/>
<path d="M234.01 28.575V8.09998H254.486V11.025H239.86V16.875H251.561V19.8H239.86V28.575H234.01Z" fill="#3DD606"/>
<path d="M263.057 28.575V11.025H257.207V8.09998H274.758V11.025H268.908V28.575H263.057Z" fill="#3DD606"/>
</svg>
