<svg width="25" height="16" viewBox="0 0 25 16" fill="none" xmlns="http://www.w3.org/2000/svg">
<path fill-rule="evenodd" clip-rule="evenodd" d="M13.5909 0V2L15.7717 2L15.7717 16H13.5909H13.5898H11.4091L11.4091 0H13.5909ZM11.4084 2L11.4084 16H9.22755H9.22657H7.04573L7.04573 4H9.22657V2L11.4084 2ZM17.9543 16V4H15.7725V16H17.9543ZM2.682 6V8H4.86329V6H7.0451L7.0451 16H4.86346H4.86329H2.682H2.68165H0.500183V6H2.682ZM24.5002 16V6H22.3184V16H24.5002ZM20.1369 8V6H17.9551V16H20.1358H20.1369H22.3176V8H20.1369Z" fill="#FFE793"/>
</svg>
