<svg width="107" height="30" viewBox="0 0 107 30" fill="none" xmlns="http://www.w3.org/2000/svg">
<path d="M6.24 23.32C4.96 23.32 3.872 23.0427 2.976 22.488C2.10133 21.9333 1.49333 21.1227 1.152 20.056C0.832 18.968 0.842667 17.6453 1.184 16.088L3.04 7.16C3.08267 6.92533 3.2 6.73333 3.392 6.584C3.584 6.43467 3.79733 6.36 4.032 6.36H8.064C8.27733 6.36 8.43733 6.43467 8.544 6.584C8.672 6.73333 8.71467 6.92533 8.672 7.16L6.816 15.896C6.66667 16.5787 6.624 17.1547 6.688 17.624C6.77333 18.0933 6.976 18.4453 7.296 18.68C7.63733 18.9147 8.13867 19.032 8.8 19.032C9.71733 19.032 10.5067 18.7653 11.168 18.232C11.8507 17.6773 12.2987 16.8987 12.512 15.896L14.368 7.16C14.4107 6.92533 14.528 6.73333 14.72 6.584C14.912 6.43467 15.1147 6.36 15.328 6.36H19.328C19.5627 6.36 19.7333 6.43467 19.84 6.584C19.968 6.73333 20.0107 6.92533 19.968 7.16L16.768 22.2C16.7253 22.4347 16.608 22.6267 16.416 22.776C16.2453 22.9253 16.0427 23 15.808 23H12.128C11.8933 23 11.712 22.9253 11.584 22.776C11.456 22.6267 11.4133 22.4347 11.456 22.2L11.712 20.984C11.264 21.4747 10.784 21.9013 10.272 22.264C9.76 22.6053 9.184 22.8613 8.544 23.032C7.904 23.224 7.136 23.32 6.24 23.32ZM29.2368 23.32C27.5728 23.32 26.1968 23.128 25.1088 22.744C24.0208 22.3387 23.1674 21.8267 22.5488 21.208C21.9514 20.568 21.5461 19.896 21.3328 19.192C21.1194 18.4667 21.0661 17.7733 21.1728 17.112C21.2154 16.92 21.3114 16.76 21.4608 16.632C21.6314 16.504 21.8128 16.44 22.0048 16.44H26.1968C26.4528 16.44 26.6448 16.4933 26.7728 16.6C26.9008 16.6853 27.0074 16.8347 27.0928 17.048C27.1568 17.4533 27.3274 17.784 27.6048 18.04C27.8821 18.296 28.2448 18.4773 28.6927 18.584C29.1621 18.6693 29.6741 18.712 30.2288 18.712C31.3168 18.712 32.2128 18.4667 32.9168 17.976C33.6208 17.464 34.0688 16.7707 34.2608 15.896C34.4528 14.9787 34.3034 14.328 33.8128 13.944C33.3221 13.5387 32.5541 13.336 31.5088 13.336H27.9248C27.7114 13.336 27.5408 13.2613 27.4128 13.112C27.2848 12.9627 27.2528 12.7707 27.3168 12.536L27.6688 10.744C27.7328 10.488 27.8394 10.264 27.9888 10.072C28.1381 9.88 28.2768 9.74133 28.4048 9.656L34.6128 5.208H25.7488C25.5141 5.208 25.3328 5.13333 25.2048 4.984C25.0981 4.83467 25.0661 4.64267 25.1088 4.408L25.7488 1.4C25.7914 1.16533 25.9088 0.973332 26.1008 0.823999C26.2928 0.674665 26.4954 0.599998 26.7088 0.599998H41.4288C41.6634 0.599998 41.8341 0.674665 41.9408 0.823999C42.0688 0.973332 42.1114 1.16533 42.0688 1.4L41.4928 4.12C41.4501 4.35467 41.3541 4.568 41.2048 4.76C41.0554 4.93067 40.9168 5.06933 40.7888 5.176L34.9328 9.688L35.1888 9.752C36.3621 9.90133 37.3754 10.232 38.2288 10.744C39.0821 11.2347 39.6901 11.928 40.0528 12.824C40.4154 13.72 40.4474 14.8613 40.1488 16.248C39.8288 17.6987 39.1461 18.9573 38.1007 20.024C37.0768 21.0693 35.7968 21.88 34.2608 22.456C32.7248 23.032 31.0501 23.32 29.2368 23.32ZM42.1385 23C41.9038 23 41.7225 22.9253 41.5945 22.776C41.4665 22.6267 41.4238 22.4347 41.4665 22.2L42.3305 18.136C42.3732 17.9227 42.4905 17.7413 42.6825 17.592C42.8745 17.4213 43.0878 17.336 43.3225 17.336H47.3545C47.5892 17.336 47.7598 17.4213 47.8665 17.592C47.9945 17.7413 48.0372 17.9227 47.9945 18.136L47.1305 22.2C47.0878 22.4347 46.9705 22.6267 46.7785 22.776C46.6078 22.9253 46.4052 23 46.1705 23H42.1385Z" fill="white"/>
<path d="M49.7945 23C49.4745 23 49.2825 22.8613 49.2185 22.584C49.1332 22.3067 49.1758 22.0613 49.3465 21.848L56.4185 14.296L52.9945 7.48C52.8878 7.224 52.9092 6.97867 53.0585 6.744C53.2292 6.488 53.4532 6.36 53.7305 6.36H57.5065C57.7838 6.36 57.9758 6.424 58.0825 6.552C58.2105 6.68 58.2958 6.79733 58.3385 6.904L60.4505 10.936L64.3225 6.904C64.4078 6.79733 64.5358 6.68 64.7065 6.552C64.8772 6.424 65.1225 6.36 65.4425 6.36H69.4745C69.7732 6.36 69.9652 6.49867 70.0505 6.776C70.1358 7.05333 70.0718 7.29867 69.8585 7.512L63.1705 14.712L66.7225 21.88C66.8505 22.136 66.8505 22.392 66.7225 22.648C66.5945 22.8827 66.3492 23 65.9865 23H62.1465C61.8905 23 61.6985 22.9467 61.5705 22.84C61.4425 22.712 61.3465 22.5947 61.2825 22.488L59.0745 18.2L55.0105 22.488C54.9252 22.5733 54.7972 22.68 54.6265 22.808C54.4772 22.936 54.2532 23 53.9545 23H49.7945ZM71.039 29.08C70.783 29.08 70.6123 28.9627 70.527 28.728C70.4417 28.5147 70.4737 28.2907 70.623 28.056L74.527 21.912L71.423 7.288C71.3803 7.05333 71.4337 6.84 71.583 6.648C71.7323 6.456 71.967 6.36 72.287 6.36H75.679C75.9563 6.36 76.1483 6.43467 76.255 6.584C76.383 6.712 76.4577 6.86133 76.479 7.032L78.271 16.344L84.127 7.032C84.2123 6.86133 84.3403 6.712 84.511 6.584C84.703 6.43467 84.9377 6.36 85.215 6.36H89.023C89.279 6.36 89.4497 6.46667 89.535 6.68C89.6417 6.872 89.631 7.08533 89.503 7.32L75.903 28.408C75.7963 28.5787 75.647 28.728 75.455 28.856C75.2843 29.0053 75.0603 29.08 74.783 29.08H71.039ZM88.7195 23C88.4848 23 88.3035 22.9253 88.1755 22.776C88.0475 22.6267 88.0048 22.4347 88.0475 22.2L88.5915 19.704C88.6342 19.4907 88.6982 19.3093 88.7835 19.16C88.8902 19.0107 89.0182 18.8827 89.1675 18.776L98.3515 10.488H91.5995C91.3862 10.488 91.2155 10.4133 91.0875 10.264C90.9595 10.1147 90.9168 9.92267 90.9595 9.688L91.5035 7.16C91.5462 6.92533 91.6635 6.73333 91.8555 6.584C92.0475 6.43467 92.2608 6.36 92.4955 6.36H105.36C105.594 6.36 105.765 6.43467 105.872 6.584C105.978 6.73333 106.01 6.92533 105.968 7.16L105.424 9.88C105.36 10.2 105.178 10.4667 104.88 10.68L95.9195 18.872H103.376C103.589 18.872 103.76 18.9467 103.888 19.096C104.016 19.2453 104.048 19.4373 103.984 19.672L103.44 22.2C103.397 22.4347 103.28 22.6267 103.088 22.776C102.917 22.9253 102.725 23 102.512 23H88.7195Z" fill="url(#paint0_linear_171_2077)"/>
<defs>
<linearGradient id="paint0_linear_171_2077" x1="48.8988" y1="-7.00003" x2="93.4041" y2="-3.72786" gradientUnits="userSpaceOnUse">
<stop stop-color="#CD62FF"/>
<stop offset="1" stop-color="#62AAFF"/>
</linearGradient>
</defs>
</svg>
