<svg width="20" height="14" viewBox="0 0 20 14" fill="none" xmlns="http://www.w3.org/2000/svg">
<path d="M16.3916 1.18239C16.3865 1.1725 16.378 1.16474 16.3677 1.16052C15.1764 0.613914 13.9191 0.224141 12.6275 0.000956052C12.6158 -0.00122554 12.6037 0.000348287 12.5929 0.0054537C12.5821 0.0105591 12.5732 0.0189362 12.5674 0.0293935C12.3962 0.340109 12.2408 0.659265 12.1018 0.985644C10.7095 0.774294 9.29329 0.774294 7.901 0.985644C7.76105 0.658436 7.60315 0.339201 7.42803 0.0293935C7.42202 0.0191634 7.41307 0.0109793 7.40235 0.00590705C7.39162 0.000834804 7.37962 -0.000890457 7.3679 0.000956052C6.07615 0.223673 4.81885 0.613474 3.62765 1.16055C3.61745 1.16487 3.60885 1.17225 3.60303 1.18167C1.22087 4.73911 0.568308 8.20908 0.888433 11.6361C0.889334 11.6445 0.891914 11.6526 0.896021 11.66C0.900128 11.6674 0.905677 11.6739 0.912339 11.679C2.29945 12.7061 3.85094 13.4901 5.50062 13.9975C5.51224 14.0009 5.52464 14.0008 5.53617 13.997C5.5477 13.9932 5.55779 13.986 5.56509 13.9763C5.9194 13.4942 6.23335 12.9837 6.50375 12.45C6.50746 12.4427 6.50958 12.4347 6.50997 12.4265C6.51036 12.4183 6.509 12.4101 6.50599 12.4024C6.50298 12.3948 6.49839 12.3879 6.49251 12.3821C6.48664 12.3764 6.47961 12.372 6.4719 12.3691C5.97683 12.1797 5.49754 11.9514 5.03853 11.6862C5.03019 11.6813 5.02319 11.6745 5.01814 11.6662C5.01309 11.658 5.01015 11.6486 5.00958 11.6389C5.00901 11.6293 5.01082 11.6196 5.01486 11.6108C5.0189 11.6021 5.02504 11.5944 5.03275 11.5885C5.12933 11.5164 5.22424 11.442 5.3174 11.3655C5.32557 11.3588 5.33546 11.3545 5.34595 11.3531C5.35644 11.3516 5.36712 11.3532 5.37678 11.3575C8.38393 12.7299 11.6396 12.7299 14.6112 11.3575C14.6208 11.3529 14.6316 11.3512 14.6423 11.3524C14.6529 11.3537 14.663 11.358 14.6713 11.3648C14.7645 11.4417 14.8597 11.5163 14.9567 11.5885C14.9644 11.5943 14.9706 11.6019 14.9747 11.6107C14.9788 11.6195 14.9807 11.6291 14.9802 11.6387C14.9797 11.6484 14.9768 11.6578 14.9718 11.6661C14.9668 11.6744 14.9599 11.6813 14.9516 11.6862C14.4936 11.9536 14.0139 12.1818 13.5175 12.3684C13.5098 12.3714 13.5028 12.3759 13.497 12.3817C13.4911 12.3875 13.4866 12.3945 13.4836 12.4022C13.4807 12.4099 13.4794 12.4182 13.4799 12.4264C13.4803 12.4346 13.4825 12.4427 13.4863 12.45C13.7612 12.9808 14.0747 13.4906 14.4242 13.9755C14.4313 13.9854 14.4414 13.9929 14.4529 13.9968C14.4645 14.0007 14.477 14.0009 14.4887 13.9974C16.1413 13.4917 17.6955 12.7077 19.0844 11.679C19.0911 11.6741 19.0968 11.6678 19.1009 11.6605C19.105 11.6532 19.1075 11.6451 19.1083 11.6368C19.4915 7.67483 18.4667 4.2333 16.3916 1.18239ZM6.95284 9.54939C6.04746 9.54939 5.30146 8.71855 5.30146 7.69817C5.30146 6.6778 6.033 5.84689 6.95284 5.84689C7.87987 5.84689 8.61865 6.68502 8.60418 7.69811C8.60418 8.71855 7.87262 9.54939 6.95284 9.54939ZM13.0585 9.54939C12.1531 9.54939 11.4071 8.71855 11.4071 7.69817C11.4071 6.6778 12.1387 5.84689 13.0585 5.84689C13.9856 5.84689 14.7243 6.68502 14.7098 7.69811C14.7098 8.71855 13.9856 9.54939 13.0585 9.54939Z" fill="#7688D3"/>
</svg>
