<svg width="102" height="48" viewBox="0 0 102 48" fill="none" xmlns="http://www.w3.org/2000/svg">
<path d="M1.09255 46.8959V45.7907H0V39.1592H2.18509V41.3697H6.55528V42.4749H7.64782V45.7907H6.55528V46.8959H1.09255ZM2.18509 45.7907H5.46273V42.4749H2.18509V45.7907Z" fill="#222222"/>
<path d="M9.83291 48.0012V46.8959H14.2031V45.7907H9.83291V44.6854H8.74037V41.3697H10.9255V44.6854H14.2031V41.3697H16.3882V46.8959H15.2956V48.0012H9.83291Z" fill="#222222"/>
<path d="M22.1052 48.0012V39.1592H30.9331V40.4223H24.6275V42.9486H29.6719V44.2118H24.6275V46.738H30.9331V48.0012H22.1052Z" fill="#222222"/>
<path d="M32.1942 48.0012V39.1592H34.7164V40.4223H35.9775V41.6855H37.2386V42.9486H38.4998V39.1592H41.022V48.0012H38.4998V45.4749H37.2386V44.2118H35.9775V42.9486H34.7164V48.0012H32.1942Z" fill="#222222"/>
<path d="M44.8054 48.0012V46.738H43.5442V45.4749H42.2831V41.6855H43.5442V40.4223H44.8054V39.1592H49.8498V40.4223H51.111V41.6855H48.5887V40.4223H46.0665V41.6855H44.8054V45.4749H46.0665V46.738H48.5887V45.4749H51.111V46.738H49.8498V48.0012H44.8054Z" fill="#222222"/>
<path d="M52.3721 48.0012V39.1592H54.8943V42.9486H58.6777V39.1592H61.1999V48.0012H58.6777V44.2118H54.8943V48.0012H52.3721Z" fill="#222222"/>
<path d="M62.461 48.0012V41.6855H63.7221V40.4223H64.9833V39.1592H68.7666V40.4223H70.0277V41.6855H71.2888V48.0012H68.7666V45.4749H64.9833V48.0012H62.461ZM64.9833 44.2118H68.7666V41.6855H67.5055V40.4223H66.2444V41.6855H64.9833V44.2118Z" fill="#222222"/>
<path d="M72.3938 48.0012V39.1592H74.8926V40.4223H76.142V41.6855H77.3915V42.9486H78.6409V39.1592H81.1397V48.0012H78.6409V45.4749H77.3915V44.2118H76.142V42.9486H74.8926V48.0012H72.3938Z" fill="#3DD606"/>
<path d="M82.3891 48.0012V39.1592H91.135V40.4223H84.8879V42.9486H89.8856V44.2118H84.8879V48.0012H82.3891Z" fill="#3DD606"/>
<path d="M96.1326 48.0012V40.4223H93.6338V39.1592H101.13V40.4223H98.6315V48.0012H96.1326Z" fill="#3DD606"/>
<path fill-rule="evenodd" clip-rule="evenodd" d="M54.9468 -0.000976562H0V27.7892H6.9475V34.1039H101.683V17.684H54.9468V-0.000976562Z" fill="#222222"/>
<path fill-rule="evenodd" clip-rule="evenodd" d="M49.2628 4.4209H42.9471V23.368V23.368V29.6837H61.8942V23.368H49.2628V4.4209ZM11.3684 4.42113H5.05273V23.3683H11.3683V29.6837H17.684V23.368H23.9997V29.6837H30.3154V23.368H36.6311V4.4209H30.3154V23.368H23.9997V4.4209H17.684V23.368H11.3684V4.42113ZM71.9994 23.368H65.6837V29.6837H71.9994V23.368Z" fill="white"/>
<path fill-rule="evenodd" clip-rule="evenodd" d="M83.7283 23.4697H82.1945V25.0035H83.7283V23.4697ZM76.0593 23.4698H74.5255V25.0036H76.0593V23.4698ZM82.1945 25.0044H83.7283V28.0721H82.1945V25.0044ZM86.7963 30.756H83.7287V32.2898H86.7963V30.756ZM92.9314 25.0044H94.4653V26.5382H92.9316V28.0708H91.3978V26.537H92.9314V25.0044ZM89.8637 28.0716H95.9989V29.6055H89.8637V28.0716ZM86.7959 28.0716H85.2625H85.2623H83.7287V29.6055H85.2623H85.2625H86.7959V30.7554H88.3297V23.4697H86.7959V28.0716ZM76.0593 25.0044H77.5931V26.537V26.5382V28.0708H76.0593V26.5382V26.537V25.0044ZM79.127 28.0708V26.5382V26.537V25.0044H77.5932V26.537V26.5382V28.0708H79.127ZM79.1268 23.4697H80.6606V25.0035H79.1268V23.4697ZM76.0592 28.0716H74.5254V29.6055H76.0592V28.0716ZM89.8637 23.4697H95.9989V25.0035H89.8637V23.4697ZM80.6606 28.0716H79.1268V29.6055H80.6606V28.0716Z" fill="#3DD606"/>
</svg>
