<svg width="23" height="18" viewBox="0 0 23 18" fill="none" xmlns="http://www.w3.org/2000/svg">
<path d="M19.17 2.01848C19.1639 2.00661 19.1537 1.9973 19.1414 1.99223C17.7117 1.33631 16.2031 0.868579 14.6531 0.600757C14.639 0.598139 14.6245 0.600027 14.6116 0.606154C14.5986 0.61228 14.5879 0.622333 14.581 0.634882C14.3756 1.00774 14.1891 1.39073 14.0223 1.78238C12.3515 1.52876 10.652 1.52876 8.98129 1.78238C8.81336 1.38973 8.62388 1.00665 8.41373 0.634882C8.40652 0.622605 8.39578 0.612785 8.38292 0.606698C8.37005 0.600611 8.35564 0.598541 8.34158 0.600757C6.79147 0.868017 5.28271 1.33578 3.85328 1.99227C3.84104 1.99746 3.83072 2.00631 3.82373 2.01762C0.965143 6.28654 0.182067 10.4505 0.566217 14.5629C0.567298 14.573 0.570395 14.5827 0.575323 14.5916C0.580251 14.6005 0.586911 14.6082 0.594905 14.6145C2.25943 15.8469 4.12123 16.7877 6.10084 17.3966C6.11478 17.4007 6.12967 17.4005 6.1435 17.396C6.15733 17.3915 6.16944 17.3828 6.17821 17.3712C6.60338 16.7927 6.98012 16.1801 7.30459 15.5396C7.30905 15.5308 7.3116 15.5212 7.31206 15.5114C7.31253 15.5015 7.3109 15.4917 7.30729 15.4825C7.30368 15.4734 7.29817 15.4651 7.29112 15.4582C7.28406 15.4513 7.27563 15.446 7.26638 15.4426C6.67229 15.2153 6.09714 14.9412 5.54633 14.6231C5.53632 14.6172 5.52792 14.609 5.52186 14.5991C5.5158 14.5892 5.51228 14.5779 5.51159 14.5663C5.5109 14.5547 5.51308 14.5432 5.51793 14.5326C5.52278 14.5221 5.53015 14.5129 5.53939 14.5059C5.6553 14.4193 5.76919 14.3301 5.88098 14.2382C5.89078 14.2302 5.90265 14.225 5.91524 14.2233C5.92783 14.2216 5.94064 14.2234 5.95223 14.2286C9.56082 15.8755 13.4676 15.8755 17.0335 14.2286C17.0451 14.2231 17.058 14.221 17.0708 14.2225C17.0836 14.2241 17.0957 14.2292 17.1056 14.2374C17.2175 14.3297 17.3317 14.4192 17.4481 14.5059C17.4574 14.5128 17.4648 14.5219 17.4697 14.5325C17.4747 14.543 17.4769 14.5545 17.4763 14.5661C17.4757 14.5777 17.4723 14.5889 17.4663 14.5989C17.4603 14.6088 17.452 14.6171 17.442 14.6231C16.8924 14.9439 16.3168 15.2178 15.7211 15.4417C15.7119 15.4452 15.7035 15.4507 15.6965 15.4577C15.6895 15.4647 15.684 15.473 15.6805 15.4823C15.6769 15.4915 15.6754 15.5014 15.6759 15.5113C15.6765 15.5212 15.6791 15.5308 15.6836 15.5396C16.0135 16.1765 16.3897 16.7884 16.8092 17.3702C16.8177 17.3821 16.8297 17.3911 16.8436 17.3958C16.8575 17.4005 16.8725 17.4007 16.8865 17.3964C18.8697 16.7896 20.7347 15.8488 22.4013 14.6145C22.4095 14.6085 22.4162 14.601 22.4212 14.5922C22.4261 14.5835 22.4291 14.5738 22.43 14.5638C22.8899 9.80941 21.6601 5.67957 19.17 2.01848ZM7.84351 12.0589C6.75706 12.0589 5.86186 11.0619 5.86186 9.83742C5.86186 8.61297 6.73969 7.61588 7.84351 7.61588C8.95594 7.61588 9.84248 8.62163 9.82512 9.83734C9.82512 11.0619 8.94724 12.0589 7.84351 12.0589ZM15.1703 12.0589C14.0838 12.0589 13.1886 11.0619 13.1886 9.83742C13.1886 8.61297 14.0665 7.61588 15.1703 7.61588C16.2828 7.61588 17.1693 8.62163 17.1519 9.83734C17.1519 11.0619 16.2828 12.0589 15.1703 12.0589Z" fill="white"/>
</svg>
