<svg width="16" height="16" viewBox="0 0 16 16" fill="none" xmlns="http://www.w3.org/2000/svg">
<path fill-rule="evenodd" clip-rule="evenodd" d="M1.77778 16H14.2222C15.2041 16 16 15.2041 16 14.2222V1.77778C16 0.795938 15.2041 0 14.2222 0H1.77778C0.795938 0 0 0.795938 0 1.77778V14.2222C0 15.2041 0.795938 16 1.77778 16ZM3.88921 6.111C3.15283 6.111 2.55588 5.51405 2.55588 4.77767C2.55588 4.04129 3.15283 3.44434 3.88921 3.44434C4.62559 3.44434 5.22255 4.04129 5.22255 4.77767C5.22255 5.51405 4.62559 6.111 3.88921 6.111ZM13.3339 12.9997H2.66725L5.33366 8.88878L8.50026 9.99975L13.3337 3.99975L13.3339 12.9997Z" fill="#8B44FF"/>
</svg>
