<svg width="16" height="16" viewBox="0 0 16 16" fill="none" xmlns="http://www.w3.org/2000/svg">
<path d="M9.19174 2.294L9.7096 1.78833L9.19174 2.294C9.71717 2.83209 10.44 3.13152 11.1921 3.12256L11.6177 3.11749C12.3197 3.10913 12.8909 3.68032 12.8825 4.38229L12.8774 4.80794C12.8685 5.55996 13.1679 6.28283 13.706 6.80826L14.0106 7.10565C14.5128 7.5961 14.5128 8.4039 14.0106 8.89435L13.706 9.19174C13.1679 9.71717 12.8685 10.44 12.8774 11.1921L12.8825 11.6177C12.8909 12.3197 12.3197 12.8909 11.6177 12.8825L11.1921 12.8774C10.44 12.8685 9.71717 13.1679 9.19174 13.706L8.89435 14.0106C8.4039 14.5128 7.5961 14.5128 7.10565 14.0106L6.80826 13.706C6.28283 13.1679 5.55996 12.8685 4.80794 12.8774L4.38229 12.8825C3.68032 12.8909 3.10913 12.3197 3.11749 11.6177L3.12256 11.1921C3.13152 10.44 2.83209 9.71717 2.294 9.19174L1.98943 8.89435C1.48716 8.4039 1.48716 7.5961 1.98943 7.10565L2.294 6.80826C2.83209 6.28283 3.13152 5.55996 3.12256 4.80794L3.11749 4.38229C3.10913 3.68032 3.68032 3.10913 4.38229 3.11749L4.80794 3.12256C5.55996 3.13152 6.28283 2.83209 6.80826 2.294L7.10565 1.98943L6.56904 1.46546L7.10565 1.98943C7.5961 1.48716 8.4039 1.48716 8.89435 1.98943L9.19174 2.294Z" stroke="#333333" stroke-width="1.5"/>
<path fill-rule="evenodd" clip-rule="evenodd" d="M8.7123 9.81313C8.71195 9.81278 8.71195 9.81222 8.7123 9.81187L11.4208 7.10333C11.7137 6.81043 11.7137 6.33556 11.4208 6.04267C11.1279 5.74977 10.6531 5.74977 10.3602 6.04267L8.35812 8.04473C7.96759 8.43526 7.33443 8.43526 6.9439 8.04473L6.56646 7.66729C6.27357 7.3744 5.7987 7.3744 5.5058 7.66729C5.21291 7.96019 5.21291 8.43506 5.5058 8.72795L7.12195 10.3441C7.41484 10.637 7.88971 10.637 8.18261 10.3441L8.7123 9.8144C8.71265 9.81405 8.71265 9.81348 8.7123 9.81313Z" fill="#333333"/>
</svg>
