<svg width="20" height="20" viewBox="0 0 20 20" fill="none" xmlns="http://www.w3.org/2000/svg">
<path d="M2 4C2 3.44772 2.44772 3 3 3H14C14.5523 3 15 3.44772 15 4V12C15 12.5523 14.5523 13 14 13H4.96838C4.6716 13 4.39015 13.1318 4.20015 13.3598L2.88411 14.9391C2.58473 15.2983 2 15.0866 2 14.619V4Z" fill="#333333"/>
<path d="M9 14C8.44772 14 8 14.4477 8 15C8 15.5523 8.44772 16 9 16H15.0316C15.3284 16 15.6099 16.1318 15.7998 16.3598L17.1159 17.9391C17.4153 18.2983 18 18.0866 18 17.619V10C18 9.44772 17.5523 9 17 9C16.4477 9 16 9.44772 16 10V13C16 13.5523 15.5523 14 15 14H9Z" fill="#333333"/>
</svg>
