<svg width="20" height="20" viewBox="0 0 20 20" fill="none" xmlns="http://www.w3.org/2000/svg">
<path fill-rule="evenodd" clip-rule="evenodd" d="M4.35355 4.64645C4.15829 4.45118 3.84171 4.45118 3.64645 4.64645L0.464466 7.82843C0.269204 8.02369 0.269204 8.34027 0.464466 8.53553C0.659728 8.7308 0.976311 8.7308 1.17157 8.53553L3.5 6.20711V13C3.5 14.933 5.067 16.5 7 16.5H11C11.2761 16.5 11.5 16.2761 11.5 16C11.5 15.7239 11.2761 15.5 11 15.5H7C5.61929 15.5 4.5 14.3807 4.5 13V6.20711L6.82843 8.53553C7.02369 8.7308 7.34027 8.7308 7.53553 8.53553C7.7308 8.34027 7.7308 8.02369 7.53553 7.82843L4.35355 4.64645ZM15.6464 16.3536C15.8417 16.5488 16.1583 16.5488 16.3536 16.3536L19.5355 13.1716C19.7308 12.9763 19.7308 12.6597 19.5355 12.4645C19.3403 12.2692 19.0237 12.2692 18.8284 12.4645L16.5 14.7929V8C16.5 6.067 14.933 4.5 13 4.5H9C8.72386 4.5 8.5 4.72386 8.5 5C8.5 5.27614 8.72386 5.5 9 5.5H13C14.3807 5.5 15.5 6.61929 15.5 8V14.7929L13.1716 12.4645C12.9763 12.2692 12.6597 12.2692 12.4645 12.4645C12.2692 12.6597 12.2692 12.9763 12.4645 13.1716L15.6464 16.3536Z" fill="#566370"/>
</svg>
