<svg width="26" height="16" viewBox="0 0 26 16" fill="none" xmlns="http://www.w3.org/2000/svg">
<path d="M20.0004 16.0001H7.0004C3.87477 16.002 1.2713 13.604 1.01677 10.4887C0.762237 7.37347 2.94193 4.58465 6.0264 4.07911C7.44612 1.562 10.1105 0.00362534 13.0004 5.65992e-05C14.8024 -0.00675485 16.5528 0.601415 17.9624 1.72411C19.3465 2.82197 20.3305 4.34509 20.7624 6.05811C23.3463 6.45514 25.1882 8.77563 24.9884 11.3822C24.7886 13.9888 22.6146 16.0015 20.0004 16.0001ZM13.0004 2.0001C10.8321 2.00267 8.83308 3.17221 7.7684 5.06111L7.3004 5.90011L6.3514 6.05511C4.30169 6.39852 2.85641 8.25441 3.02562 10.3258C3.19482 12.3972 4.92213 13.9939 7.0004 14.0001H20.0004C21.569 14.0017 22.874 12.7947 22.9946 11.2308C23.1152 9.66685 22.0107 8.27401 20.4604 8.03511L19.1444 7.83511L18.8224 6.54311C18.1577 3.86992 15.755 1.99507 13.0004 2.0001ZM14.4504 12.0001H11.5504V9.00011H9.0004L13.0004 5.00011L17.0004 9.00011H14.4504V12.0001Z" fill="#333333" fill-opacity="0.5"/>
</svg>
